<?xml version="1.0" encoding="utf-8"?>
<!-- Generator: Adobe Illustrator 22.0.1, SVG Export Plug-In . SVG Version: 6.00 Build 0)  -->
<svg version="1.1" id="레이어_1" xmlns="http://www.w3.org/2000/svg" xmlns:xlink="http://www.w3.org/1999/xlink" x="0px" width="200px" height="200px"
	 y="0px" viewBox="0 0 1366 768" style="enable-background:new 0 0 1366 768;" xml:space="preserve">
<style type="text/css">
	.st0{fill:none;}
	.st1{font-family:'AdobeMyungjoStd-Medium-KSCpc-EUC-H' ;}
	.st2{font-size:72px;}
	.st3{letter-spacing:14;}
	.st4{fill:#FFFFFF;}
</style>
<g>
	<rect x="748" y="269" class="st0" width="351" height="77"/>
	<text transform="matrix(1 0 0 1 748 332.3604)" class="st1 st2 st3">HAWOL</text>
	<g>
		<path class="st4" d="M449.1,275.7c-0.7-0.2-0.3,0.9-1,1c-0.7,0.1-1.4,0.5-0.9,0.6c0.5,0.1,1.7-0.1,1.8-0.3
			C449.1,276.8,449.3,275.7,449.1,275.7z"/>
		<path class="st4" d="M444,277.2c-0.8-0.1-1.6,0-1.7,0.3c-0.1,0.3,0.7,0.5,1.2,0.5c0.5,0,1.6-0.3,1.4-0.4
			C444.8,277.5,444,277.2,444,277.2z"/>
		<path class="st4" d="M448.4,271.3c-0.3,0.1,0.5,0.5,0.7,0.5c0.3,0,0.7-0.7,0.2-0.7C448.7,271.1,449,271.1,448.4,271.3z"/>
		<path class="st4" d="M450.6,265.7c0,0,0,0,0.4,0.3c0.4,0.3,1,0.5,1.6,0.5c0.6,0.1,0.6-0.3,0.1-0.7c-0.5-0.4-0.6-0.3-1-0.4
			c-0.4-0.1-0.5-0.5-1.5-0.5c-1,0-0.9-0.5-1-0.8c-0.1-0.3,0.9-0.1,1.2-0.1c0.3,0.1,1.3-0.8,1.3-0.8s1.7-0.7,1.9-0.5
			c0.2,0.1,1.2-0.1,1.6-0.3c0.5-0.1,0.7-0.9,0.7-0.9s0.6,0.2,0.9,0.5c0.3,0.3,1,0,1.2,0c0.2,0,1.2,0.7,1.2,0.7s1.3,0,1.8-0.1
			c0.5-0.1,1.9-0.1,2.4,0.1c0.5,0.1,2.9,0.3,3.1,0.3c0.3,0,1.6,0.5,2.4,0.3c0.9-0.2,1.2,0.1,1.4,0.2c0.2,0.1,0.4,0.1,0.7,0.5
			c0.3,0.4,0.7,0.1,1.1-0.2c0.5-0.3,0.4-0.5,0.4-0.5s0,0,0.4-0.1c0.4-0.1,0.7,0.1,1.8,0.2c1.1,0.1,0.8-0.2,1.6-0.5
			c0.8-0.3,1.6,0.3,1.8,0.3c0.3-0.1,0.6-0.6,0.8-0.3c0.2,0.3,0.5,0.8,0.5,0.8s0.9-0.7,1.1-0.7c0.3,0,1,0.3,1.5,0.2
			c0.5-0.1,2.2-0.1,2.6,0.3c0.4,0.3,1.4,0.3,1.9,0.6c0.5,0.3,1-0.3,0.8-0.4c-0.3-0.1-0.9-0.7-0.9-0.7s-1-1.2-1.1-1.4
			c-0.1-0.2-0.3-0.2-0.6,0.3c-0.3,0.5-1.2,0.5-2.4,0.6c-1.1,0.1-0.4-0.5-1.6-0.6c-1.2-0.1-0.8-0.5-0.4-0.5c0.4,0,0.7-0.8,0.8-1.3
			c0.1-0.5,0.6-0.4,1.5-0.3c0.9,0.1,1.2-0.1,2.1,0c0.9,0.1,0.8-0.4,1.8-0.3c0.9,0.1,0.5,0.2,1,0.5c0.5,0.3,0.8,0.3,1.6,0.6
			c0.7,0.3,0.5,0.3,0.8,0.4c0.3,0.1,1.4-0.1,2.1-0.2c0.7-0.1,1.2-0.1,1.5,0.3c0.3,0.4,0.3,0.9,0.7,1.2c0.5,0.3-0.3-1.2-0.3-1.8
			c0-0.5,0.9-0.1,1.5-0.1c0.6,0,1.2-0.2,1.4,0.1c0.1,0.3-0.8,0.7-0.3,1.3c0.6,0.6,1,0.8,1.5,0.8c0.5,0,1.7,0.1,1.2,0.9
			c-0.5,0.7-1.9,0.7-2.4,0.7c-0.5,0-1.2,0.3-1,0.7c0.2,0.4,1.2,0.2,2,0.2c0.7,0,2.9,0.2,3.5,0c0.6-0.2,0.5-1-0.2-1.2
			c-0.7-0.2-0.1-0.6,0.5-0.5c0.7,0.1,1.3-0.2,1.2,0c-0.1,0.2,0.1,0.7,0.1,1.2c0,0.5,0.2,0.9,0.7,0.7c0.5-0.1,0.5-0.2,1-0.3
			c0.5-0.1,0.2-1.2-0.1-1.8c-0.3-0.6-0.5-1-0.4-1.3c0.1-0.3,0.8-0.4,1.2-0.1c0.4,0.3,0.9,1,0.9,1s0.8,0.5,1,1
			c0.3,0.5,0.3,0.4,0.8,0.1c0.5-0.3,0.7-0.3,1.1,0.1c0.5,0.3,0.1,1,0.1,1.2c0,0.2,0.7,0,0.8-0.4c0.1-0.4,0.7-0.4,1-0.5
			c0.3-0.1,0.3-1,0.3-1s-0.8-0.2-1.7-0.1c-0.8,0.1-1.1-0.1-1.8-0.5c-0.7-0.5-0.3-0.8-0.6-1.3c-0.3-0.5,1-0.8,1.9-1.2
			c0.8-0.4,1.7-0.1,1.5,0.9c-0.2,1-0.3,0.9,0.7,0.7c1-0.2-0.1-1.1,0.4-1.2c0.5-0.1,1.6-0.3,2-0.2c0.4,0.1,2.5-0.2,3.1-0.2
			c0.5,0,1.4,0.5,2,0.8c0.6,0.3,2.2,0.8,2.5,1c0.4,0.2,3.1,0.6,3.4,0.7c0.3,0.1,0.3,0.9,0.5,1.6c0.3,0.7,1,0.2,1.2,0.2
			c0.3,0,1.2,0.5,1.4,0.8c0.3,0.3,2.2,0.6,2.2,0.6s-0.5,0.6-0.7,0.8c-0.2,0.2-0.7,0.3-1,0.6c-0.4,0.3-0.9-0.1-1.4-0.4
			c-0.5-0.3-1.4-0.5-1.6-0.4c-0.2,0.1-0.1,0.4,0.1,0.6c0.1,0.2,1,0.5,1.5,0.9c0.5,0.4,0.4,0.8,0.5,1.4c0.1,0.5-0.5-0.2-1.2-0.3
			c-0.7-0.1-0.7,0.5-0.7,0.5s-0.8-0.1-1.2-0.1s0,0-0.7-0.5c-0.7-0.5-0.6,0.3-1,0.1c-0.4-0.3-0.8-0.7-1-0.5c-0.2,0.1-0.8-0.6-1.2-0.5
			c-0.4,0.1-2-0.2-2.3-0.1c-0.4,0.1-0.7,0.1-1,0.3c-0.3,0.1-0.5-1-0.3-1.3c0.2-0.3,0.7-0.4,1.5-0.2c0.8,0.2,0.9,0,1.1-0.3
			c0.2-0.3,0.4-0.7,1.3-1c0.9-0.3-0.1-0.5-0.3-0.6c-0.3-0.1-0.6-0.4-0.8,0c-0.2,0.4-0.7,0.9-0.7,0.9s-0.5,0-1.2-0.1
			c-0.7-0.1-0.2-0.3,0.1-0.5c0.3-0.1,0.7-1,0.4-1.2c-0.3-0.2-0.5-0.3-1-0.2c-0.6,0.1-0.2-0.5-0.6-0.7c-0.4-0.2-0.3,0.1-0.3,0.4
			c0,0.3-0.6,0.2-0.6,0.2s-0.9-0.1-1.2,0c-0.3,0.1-0.9,0.4-0.7,0.6c0.2,0.2,0.8,0.2,1,0.8c0.2,0.6-0.8,0.8-1,0.8
			c-0.2,0.1-1,0.3-1,0.3s-0.8-0.2-1.4-0.2c-0.7,0-0.8,0.1-0.7,0.3c0.1,0.3,0.5,0.1,0.7,0.1c0.2,0,0.2,0.3,0.8,0.2
			c0.6-0.1,0.5-0.3,1,0.2c0.5,0.5,1,0.5,1.9,1c0.8,0.5-0.1,1-0.6,1c-0.5,0-0.5-0.4-0.7-0.8c-0.3-0.4-1.3,0.1-1.3,0.1
			s-0.9,0.5-1.3,0.5c-0.5,0-0.8-0.1-0.2-0.5c0.6-0.5-0.7-0.5-0.7-1.2c0-0.7-0.3,0.7-0.3,1c0,0.3-0.5,0.1-1.6,0.2
			c-1.1,0.1-0.9,0.5-2.4,1.5c-1.4,1-1.8,1.2-1.6,2c0.1,0.9,0.5,0.6,1,0.7c0.6,0.1,0.4,1.2,0.8,1.1c0.5-0.1,0.8-0.4,1.7,0.1
			c0.9,0.5,1.4,0.6,2.5,0.8c1.1,0.2,1.8,0.5,2.4,0.4c0.6-0.1,1,0.1,1,0.5c0,0.5,0.4,0.5,0.3,1.2c-0.1,0.6,0.7-0.5,0.7-0.5
			s0.3,1,0.1,1.2c-0.3,0.1,0.1,0.7,0.4,0.7c0.3-0.1,0.8,0.2,1.2-0.1c0.4-0.3-0.2-1.4-0.2-1.8c0-0.4-0.4-0.6-0.6-1
			c-0.2-0.4,0.5-0.5,0.8-0.1c0.3,0.4,0.7,0.1,1.2-0.3c0.5-0.3,0.5-1,0.5-1s-0.8-1.1-1.4-1.4c-0.6-0.3-0.3-0.3,0.3-0.5
			c0.6-0.1,0-0.3,0.1-1.1c0.1-0.7,0.1-1.2,0.5-1.2c0.3,0,1.5-0.2,2.5-0.1c1,0.1,1.4,0.8,2.1,0.9c0.7,0.1,1.7,0.2,1.9,0.5
			c0.2,0.3-0.7,0.4-0.3,1c0.5,0.5,0.5,0.5,1,0.7c0.5,0.2,1,0.1,1.6-0.8c0.6-0.8,0.8-0.9,1-0.7c0.2,0.1,1.4,1.6,1.8,2
			c0.3,0.3,1,1.1,1,1.4c0.1,0.3,1,0.3,1.2,0.3c0.3,0,1.2,0.8,1.4,1.2c0.1,0.4,0.4,0.5,1.2,0.7c0.9,0.2,0,1-0.2,1.4
			c-0.2,0.4-0.3,0.5-0.6,1c-0.3,0.5,0,0,0.3,0.2c0.3,0.2,0.5,0.5,1,0.3c0.5-0.1,0.8,0,1,0.4c0.2,0.4,0.5,0.7,0.7,1.1
			c0.2,0.3,0,0.9-0.3,0.5c-0.3-0.3-1.1-0.1-1.1-0.1s-0.4,0.4-0.5,0.2c-0.1-0.2-0.4-0.5-0.9-0.3c-0.5,0.1-0.9,0-1.4,0.1
			c-0.5,0.1-0.7-0.3-0.4-0.5c0.3-0.3,0.4-1.3,1-1.7c0.7-0.4,0.5-1,0-1c-0.5,0-0.7,0.6-0.9,0.7c-0.3,0.1-0.8,0.1-1.2,0.5
			c-0.5,0.3-1.6,0.2-1.1,0.3c0.5,0.1-0.7,0.7-1,0.7c-0.4,0-0.3-0.9-0.3-1.2s-0.5,0.2-0.5,0.2s-1-0.6-1.4-0.2c-0.4,0.4-1,0.6-1.4,1
			c-0.5,0.4-1.5,1.1-1.5,1.1s0.4-0.2,1.2-0.4c0.8-0.2,0.7-0.1,1.4-0.5c0.7-0.3,1.3-0.5,1.8,0.1c0.5,0.6-0.2,1-0.2,1s0.3,0.5,0.5,0.6
			c0.3,0.1,0.3-0.1,0.8-0.4c0.5-0.3,0.3,0.5,0.4,0.8c0.1,0.3,0.6,0.3,0.8-0.1c0.3-0.3,0.5-0.6,0.7-0.4c0.2,0.2,0.4,0.7,0.6,1.2
			c0.2,0.5-1.4,0.6-1.6,0.7c-0.3,0.1-1.5,0.3-1.7,0.4c-0.2,0.1-0.8,0.7-1.4,0.7c-0.5,0-0.5-0.8-0.5-1.3c-0.1-0.5-0.7,0.1-0.8,0.3
			c-0.1,0.2-0.7,0.1-1.1,0.2c-0.5,0.1-1.2,0.5-1.2,1.1c0,0.5,0.6,0.8,0.4,1.1c-0.2,0.3-1.4,0.5-1.8,0.3c-0.5-0.1-1.1,0.2-0.9,0.5
			c0.2,0.3,0.1,0.7-0.4,0.6c-0.5-0.1-0.5,0.4-0.3,0.7c0.2,0.3-0.6,1-0.8,0.7c-0.2-0.3-0.6-0.4-0.6,0c0,0.4,0.1,0.7,0.5,1.3
			c0.4,0.5-0.8,0.9-1.3,1.3c-0.5,0.4-2,1.8-2.7,2c-0.7,0.3-0.7,1.2-0.3,1.5c0.3,0.3,0.7,1.8,0.9,2.2c0.2,0.5-0.1,1.8-0.7,1.8
			c-0.6-0.1-0.3-0.9-0.8-1.1c-0.6-0.2-0.9-1.4-1-2.2c-0.1-0.8-0.3-0.3-0.7-0.1c-0.4,0.3-0.8-0.5-1-0.7c-0.2-0.2-1.3,0.1-2.1,0.1
			c-0.8-0.1-1,0.3-1,0.5c0,0.2-0.1,0.8-0.8,0.4c-0.7-0.4-0.9-0.4-1.6-0.4c-0.7,0-1.4-0.1-1.5,0.2c-0.1,0.3-0.9,0.9-1.3,1
			c-0.5,0.1-1.3,0.8-0.9,1c0.4,0.1,0.4,1.1,0.1,1.6c-0.3,0.5-0.2,1.5-0.1,2.5c0.1,1,0.9,1.6,1.6,2.2c0.7,0.6,1,0.8,1.7,0.3
			c0.7-0.5,1-0.2,1.2-0.1c0.2,0.1,0.7-0.3,0.5-1c-0.2-0.6,0.3-1.2,0.9-1.1c0.6,0.1,1.4-0.2,1.9-0.1c0.5,0.1,0.7,1.4,0,1.9
			c-0.7,0.5-0.3,1.4-0.5,2c-0.1,0.6-0.7,0.7,0,0.7c0.7,0,0.5,0.1,1,0.2c0.5,0.1,0.9-0.4,1.4-0.5c0.5-0.1,1.6,1,1.4,1.6
			c-0.2,0.5-0.4,1.5-0.3,2.4c0.1,0.9,0.3,1,0.5,1.2c0.1,0.3,0.7,0.9,1.2,0.6c0.6-0.3,1.2-0.5,1.4-0.8c0.2-0.3,1.4,0.5,1.3,0.7
			c-0.1,0.2,0.5,0.4,0.8,0.2c0.4-0.2,0.6-0.5,1-1.1c0.4-0.5,1-1,1.4-1.1c0.3-0.1,1.1-0.9,1.6-0.7c0.5,0.1-0.2,0.8-0.3,1.2
			c-0.1,0.4,0,1.6,0.3,1.6c0.3,0.1,0.1-0.8,0.5-1.4c0.3-0.6,1-1,1.3-1c0.3,0,0.6,1.4,1,1c0.5-0.4,1.4-0.3,1.6,0.1
			c0.2,0.4,0.4,0.6,0.4,0.6s0.3-0.3,0.3-0.6c0-0.3,1-0.7,1.7-0.3c0.7,0.4,0.4,0.5,0.7,0.6c0.3,0.1,0.7-0.9,0.9-1
			c0.2-0.1,0,1.1-0.5,1.7c-0.5,0.6,0.4,0.4,0.4,0.4s0,0,0.2,0.2c0.2,0.2,0.9-0.2,1.1,0.2c0.3,0.4,0.7,0.5,1.1,1.3
			c0.4,0.7,1,0.5,1.8,0.4c0.8-0.1,1.8,0.4,2.5,1.3c0.8,0.9,0.7,1.6,1.2,1.6c0.5,0,0.7,0.7,0.7,1c0,0.3-1.2,0.9-1.8,1
			c-0.7,0.1-0.7,0.8,0.4,0.6c1-0.2,0.6-0.6,1.2-0.8c0.7-0.2,1.3,0.3,0.7,1.1c-0.6,0.8-1.8,0.9-0.7,1c1,0.1,0.5-0.1,1-1
			c0.6-0.8,0.5-0.5,0.9-0.5c0.4,0,1.2,0.2,1.6,0.5c0.3,0.3,1.2,0.7,1.7,1c0.5,0.3,1.2,0.2,1.6,0.1c0.4-0.1,1.5,0.4,1.9,1
			c0.4,0.5,1.4,0.6,1.8,0.8c0.5,0.2,1.2,1,1.2,1.7c0.1,0.7-0.7,2.1-0.8,2.5c-0.1,0.3-1.1,1.6-2.1,2.4c-1,0.8-0.4,1.8-0.3,2.2
			c0.1,0.4-0.7,1.9-0.5,2.2c0.2,0.3-0.3,1.1-0.7,1.6c-0.4,0.5-0.7,1.4-0.9,1.8c-0.3,0.4-1.1,0.3-1.9,0.5c-0.8,0.2-1.2,0.4-1.2,0.4
			s-1.4,0.7-2.2,1.2c-0.8,0.5,0.3,1.5-0.1,2.2c-0.4,0.8-0.8,0.7-1.2,1.6c-0.4,0.9-0.6,0.1-0.9,0.3c-0.3,0.2-0.5,0.7-0.6,1.3
			c-0.1,0.5-0.7,1.1-1.6,1.9c-0.9,0.8-1.4,0.7-2.3,0.4c-0.9-0.3-0.8-2.6-0.9-2.2c-0.1,0.3-0.1,1.6,0.1,1.8c0.1,0.2,0.5,1,0.8,1.2
			c0.3,0.2,0.3,0.5,0,0.9c-0.3,0.3-1,1.6-1.2,1.6c-0.3,0.1-2.3,0.3-2.7,0.1c-0.4-0.2-0.6,0.5-0.5,0.9c0.1,0.4,0.4,0.9-0.3,0.7
			c-0.7-0.1-1.7-0.6-1.7-0.3c0,0.3,0.2,1.1,0.6,1.1c0.4,0,0.8-0.3,0.6,0.2c-0.2,0.5-0.7,0.9-1,1.1c-0.3,0.2-0.6,0.9-1.2,1.4
			c-0.7,0.5-0.7,0.7-0.5,1c0.1,0.2,1.1,0.1,1.3,0.2c0.2,0.1-0.2,1.1-0.5,1.3c-0.3,0.2-1.4,1.2-1.8,1.4c-0.5,0.3-0.5,1.1-0.3,1.5
			c0.1,0.4,1.2,1.4,1.8,1.6c0.6,0.2,1.8,0.1,1.7,0.3c-0.1,0.2-1.6,0.4-1.8,0.5c-0.2,0.1-1.2,0.3-1.8,0.3c-0.5,0-1.5-0.5-1.7-0.5
			c-0.2,0,0.1-0.3,0.8-0.8c0.7-0.5-0.3-1.2-0.4-0.4c-0.1,0.7-0.4,1-0.7,1c-0.3,0-0.7-0.5-0.9-0.7c-0.2-0.2-1-0.4-0.9-1.2
			c0.1-0.8-0.4-0.7-0.8-1.1c-0.4-0.3,0.5-0.6,0.4-1c-0.1-0.3-0.7-0.1-0.8-0.6c-0.1-0.5,0.5-1.2,0.6-1.4c0.1-0.2-0.4-0.6-0.5-1
			c-0.1-0.3,0.3-0.7,0.7-1.2c0.5-0.5,0.8-1.2,0.8-1.4c0-0.2-0.3-1-0.3-1.5c0-0.5,0.3-0.7,0.5-1.5c0.1-0.7-0.5-0.5-0.5-1.1
			s0.7-0.4,0.5-1c-0.1-0.6,0.3-1,0.5-1.4c0.2-0.4,0.4-1.1,0.7-1.6c0.3-0.5-0.3-1.6-0.3-1.8c0-0.2,0.8-0.5,0.5-0.9
			c-0.4-0.4,0.1-0.7,0.5-1.1c0.4-0.3-0.1-1.3,0.1-2.5c0.2-1.2,0.4-3.3,0.4-3.5c0-0.2,0.1-1-0.3-1.6c-0.3-0.5-0.7-1-1.2-1.2
			c-0.5-0.2-1-0.8-1.4-0.9c-0.3-0.1-1.9-0.7-1.9-1.6c0-1-1.1-1.7-1.2-2.4s-1.1-2.2-1.2-2.9c-0.1-0.7-1.4-0.9-1.6-1.6
			c-0.2-0.7,0.7-1.3,0.8-1.8c0.1-0.5-0.5-1.5-0.5-1.8c-0.1-0.3,1-1.3,1.4-1.5c0.4-0.2,0.7-1.1,1-1.1c0.3,0,0.2-0.8,0.5-1.5
			c0.3-0.7-0.1-1.8-0.3-1.9c-0.2-0.1-0.4-1-0.7-1.3c-0.3-0.3-1-0.1-1-0.1s0.1,0.6-0.5,1c-0.6,0.3-0.7-0.1-0.9-0.3
			c-0.2-0.2-0.9-0.3-1.2-0.6c-0.3-0.3-0.9-0.8-1.2-1c-0.4-0.2-1-0.4-0.9-1.2c0.1-0.8-0.9-1.3-1.1-1.4c-0.3-0.1-0.8-0.5-1.1-0.3
			c-0.3,0.2-0.9-0.4-1.4-0.3c-0.5,0.1-1.4-0.8-1.7-1.2c-0.3-0.3-0.6-0.8-1.2-0.8c-0.6,0-0.7,0.2-1,0.7c-0.4,0.5-1-0.3-1.2-0.5
			c-0.2-0.2-0.7-0.3-1.4-0.3c-0.7,0-1.2-1-1.5-1.2c-0.3-0.1-2.1-1-2.5-1.3c-0.5-0.3-0.9-1.3-0.7-1.6c0.2-0.3-0.3-1.2-0.3-1.2
			s-0.9-1.1-1.2-1.1c-0.3,0-1.4-1.9-2-2.5c-0.6-0.5-2-1.8-2.2-2.4c-0.3-0.6-0.3-1.6-1-1.1c-0.7,0.5-0.1,1,0.5,1.5
			c0.7,0.5,0.5,1.1,1.4,1.8c0.9,0.8,0.5,1.5,0.9,1.8c0.4,0.3,1.8,1.2,1.2,1.7c-0.6,0.5-1.2-0.7-1.4-0.7c-0.3-0.1-0.9-0.2-0.8-0.6
			c0.1-0.4-0.5-0.8-1-1.4c-0.5-0.6-0.7-0.3-1.2-0.3c-0.6,0-0.1-0.7,0.3-1.1c0.3-0.3-0.3-0.8-0.7-1c-0.4-0.1-0.9-1.7-1.4-2.7
			c-0.5-1-0.9-1.4-1.5-1.4c-0.6,0.1-0.8-0.7-1.2-1c-0.4-0.3-1-1.6-1.6-2.2c-0.7-0.7-1.2-2-1.2-2.7c0.1-0.7,0.3-2.7,0.3-3.1
			c0-0.5-0.3-1.6-0.3-1.8c0-0.2-0.3-0.5-0.6-0.6c-0.3-0.1-1-1-1.6-1c-0.6,0-1-0.7-0.8-1.2c0.2-0.5-0.5-1.3-0.8-1.3
			c-0.3,0-0.8-0.9-1-1.4c-0.2-0.5-0.7-0.5-0.6-0.2c0.1,0.3-0.1,0.8,0.3,0.9c0.3,0.1,0.6,1.2,0.3,1.4c-0.3,0.1-0.8-0.4-1.5-0.7
			c-0.7-0.3-0.4-1.7-0.4-2c0-0.3-0.9-0.7-1.3-0.7c-0.4,0-0.8,0.1-0.8-0.8c-0.1-0.9-1.2-1.4-1.6-1.4c-0.4,0-2.5-0.9-3.1-0.9
			c-0.7,0-1.8-0.6-2.2-0.3c-0.4,0.3-1.1-0.5-1.5-0.5c-0.4,0-0.4,0.3-1.1,0.7c-0.7,0.5-1,0.2-1.4,0.5c-0.4,0.3-1.4,0.7-1-0.1
			c0.3-0.8,0.3-1-0.2-0.7c-0.5,0.2-0.7,0.7-0.7,1.1c0,0.3-0.9,0.9-0.9,0.9s0.8,0.1,1.2,0c0.3-0.1,0.1,0.8-0.3,1
			c-0.3,0.2-0.8,0.7-1.3,0.6c-0.5-0.1-0.6-0.6-0.9-0.7c-0.3-0.1-1,0.5-2.2,1.1c-1.2,0.6-1,0.1-1.4,0.3c-0.5,0.2-2.1,0.8-2.7,0.9
			c-0.6,0.1-0.5-0.7-0.1-0.7c0.3,0,1.6-0.6,1.9-0.8c0.3-0.2,1.8-0.7,2.2-1c0.4-0.2,1-0.5,0.8-1c-0.3-0.4-1.1,0.2-1.1,0.2
			s-0.7-0.6-0.8-0.8c-0.2-0.1-0.6,0.5-0.6,0.5s-0.8-0.1-0.7-0.9c0.2-0.7-0.5-0.7-0.6-0.4c-0.1,0.3-1.2,0.9-1.3,0.5
			c-0.1-0.3-1-1-1.3-1.6c-0.3-0.5,0.3-0.6,0.8-1.1c0.6-0.5,1.4-0.6,2.2-0.5c0.7,0.1,1.2-0.8,0.9-0.9c-0.3-0.1-0.7-0.1-1.1,0.2
			c-0.4,0.3-1.4,0.3-1.4,0.3s-1.4,0-2-0.4c-0.6-0.4-0.9-1-0.9-1s1.2-0.5,2.1-0.5L450.6,265.7z M510.5,286c0.7,0.1,0.7-0.9,0.6-1.2
			c-0.1-0.3-0.1-1.4,0.2-1.6c0.3-0.2,0.6-0.8,1.3-0.9c0.7-0.1,1.2,0.5,1.1,1.1c-0.1,0.6,0.1,1.2,0.4,1.2s1-0.5,0.8-0.9
			c-0.3-0.4,0.2-1.8,0.2-1.3c0,0.5,0.5,0.8,0.9,0.7c0.3-0.1-0.3-1.3-0.8-1.4c-0.5-0.1-1.4-0.1-1.6,0c-0.2,0.1-1.3-0.3-1.8-0.3
			c-0.5,0.1-1.3,0.3-1.6,0.8c-0.3,0.5,0,1.6-0.1,2C510,284.7,509.9,285.9,510.5,286z M514.2,286c0.1,0.3,0.9,0.1,1.2-0.3
			c0.4-0.4,1.2-0.5,1.5-0.9c0.3-0.3,0.5-0.3,1.1-0.5c0.7-0.3,1.2-0.3,0.9-0.7c-0.3-0.3-1.6,0-1.8-0.1c-0.2-0.1-1.6,1.5-1.6,1.5
			s-1.2,0.5-1.2,0.7C514.2,285.8,514,285.6,514.2,286z M507.4,280.7c0,0.4,0.7,0.4,1,0.2c0.4-0.2,1-0.3,1.2-0.4
			c0.3-0.1,0.1,0.3,0.7,0.3c0.6,0,1.3,0.2,1.5,0.1c0.2-0.1,0.8-0.9,0.3-1c-0.5-0.1-1.2-0.5-1.6-1c-0.4-0.4-1.3,0.5-2.2,0.9
			C507.6,280.3,507.4,280.2,507.4,280.7z M480.6,278.5c-0.5-0.2,0.2,0.8,0.5,1c0.3,0.2,1,0.2,1,0.5c0.1,0.3,0.3,1.2,0.6,1.1
			c0.3-0.1,0.3-0.8,0.1-1.1c-0.3-0.3-1.2-1.1-1.4-1.1C481.2,278.9,480.8,278.5,480.6,278.5z"/>
		<path class="st4" d="M512.8,269.1c-0.2,0.2,0.8,0.5,1,0.2C514,269.1,513.3,268.6,512.8,269.1z"/>
		<path class="st4" d="M515.4,269.5c-0.7,0.2,0,0.7,0.4,0.5C516.2,269.9,516,269.3,515.4,269.5z"/>
		<path class="st4" d="M482.9,258.5c-0.1,0.3,0.4,0.3,1,0.3c0.6,0,1.5,0,1.7-0.1c0.3-0.1,1.6-0.5,1.5,0c0,0.4,0.5,1,0.8,1
			c0.3-0.1,0.9-0.7,1.2-0.5c0.3,0.2,0.4,0.8,0.7,0.9c0.3,0.1,1.1,0.1,1.5,0c0.4-0.1,1.5-0.1,2,0c0.5,0.1,1.9,0.4,2,0.1
			c0.1-0.3,0.5-0.3,0.6-0.6c0-0.3,0.3-1.1,0.3-1.1s-0.3-0.5-0.7-0.3c-0.4,0.2-0.6,0.4-1,0.3c-0.4-0.1-0.4-0.8-1.1-0.7
			c-0.7,0.1-0.8,0.5-1,0.7c-0.2,0.2-0.7,0.3-0.9,0.2c-0.2-0.1-1.2-0.7-1.2-0.7s-2.1-0.1-2.2-0.4c-0.1-0.3-0.4-0.7-1.4-0.6
			c-1,0.1-2.6,0.7-2.9,0.7c-0.3,0,0.3,0.5,0,0.5C483.4,258.1,483,258,482.9,258.5z"/>
		<path class="st4" d="M490.3,256.6c-0.5,0.2-0.4,0.7,0,0.7c0.3,0,1.2-0.3,1.5-0.1c0.3,0.2,0.9,0,0.9-0.2c0-0.2,0.3-1.1-0.3-1.2
			C491.8,255.8,491.1,256.3,490.3,256.6z"/>
		<path class="st4" d="M496.2,256c-0.1,0.3,0.3,0.6,0.9,0.6c0.5,0,1.7-0.3,1.7,0c0.1,0.2,0,0.4,0.6,0.5c0.6,0.1,0.9,0.2,1.2,0.2
			c0.3,0,0.2-0.6-0.1-1c-0.3-0.4-0.2-0.4-1-0.6c-0.8-0.2-1.6-0.2-2.1-0.2C496.9,255.5,496.3,255.4,496.2,256z"/>
		<path class="st4" d="M497,258.1c-0.3,0.3,0,1.2-0.1,1.3c-0.1,0.1,0,0.5,0.4,0.4c0.3-0.1,0.5-1,0.8-1c0.3,0,1.6-0.3,1.8,0.2
			c0.2,0.5,0.2,0.3,0.8,0.3c0.6,0,1.1-0.6,1.1-0.9c0-0.2-0.3-0.7-1.1-0.6C499.9,258,497.4,257.8,497,258.1z"/>
		<path class="st4" d="M498.6,260.5c-0.3,0.2-0.1,0.9,0.3,0.9c0.5,0,1.3-0.3,1.4,0c0.1,0.3,0.4,1.5,1.2,1.1c0.8-0.4,0.7-0.8,1-0.8
			c0.2,0,0-1-0.4-1.3c-0.3-0.2-1.5-0.1-1.8,0C500,260.5,499.1,260.2,498.6,260.5z"/>
		<path class="st4" d="M503.6,260.9c0.1,0.1,0.4,0.4,1,0.3c0.6-0.1,1.4-0.2,1.8-0.2c0.4,0,0.5-0.7,0-0.8c-0.4,0-0.8-0.5-1.2-0.3
			C504.8,260,503.4,260.6,503.6,260.9z"/>
		<path class="st4" d="M503.4,259c-0.2,0.5,1.7,0.7,1.5,0.2C504.7,258.6,503.7,258.5,503.4,259z"/>
		<path class="st4" d="M503.8,256.7c-0.6-0.1-1.5-0.3-1.5-0.5c0-0.1-0.3,0.6,0.2,0.9c0.5,0.2,1.3,0.6,1.8,0.9c0.6,0.2,1.7,0.3,2,0.7
			c0.3,0.5,1.5,0.8,1.5,0.8l1.4,0.1c0,0,1-0.2,2-0.1c1,0.1,2.5,0.2,3.3,0.2c0.8,0,1-0.3,1-0.5c0.1-0.2-1.5-0.5-1.9-0.5
			c-0.4,0-2.6,0-3.3,0c-0.7,0-1.5,0-2,0c-0.5,0-0.9-0.4-1.3-0.6c-0.4-0.2-1.3-1-1.8-1C504.8,257,504.9,257,503.8,256.7z"/>
		<path class="st4" d="M559.6,266.1c-0.2,0.3-0.5,0.3-0.2,1c0.4,0.6,0.6,1,0.9,1c0.3,0,1.4-0.1,1.5,0.3c0.1,0.4,0.5,0.7,1.2,0.5
			c0.7-0.2,1.3-0.4,1.5-0.6c0.2-0.3,1.4-0.3,1.4-0.3s1-0.8,0.6-1.1c-0.4-0.3-1.2-0.5-1.6-0.6c-0.4,0-0.8,0.3-1.7,0.3
			c-0.9,0-1.4,0.4-1.8,0C561.2,266.1,559.8,265.9,559.6,266.1z"/>
		<path class="st4" d="M521.3,257.1c0.5,0.4,0.8,0.1,1.5,0.3c0.7,0.1,1.2,1.1,1.5,1.3c0.3,0.1,0.8,0,1-0.3c0.2-0.3,0.5-1.2,0.5-1.2
			s0,0.9,0.5,1.1c0.5,0.2,1.8-0.1,2.2-0.1c0.3,0,2.4,0.3,3,0.6c0.6,0.3,2,0.5,2.4,1c0.4,0.6,0.4,2.6,0.7,2.9c0.2,0.2,1-0.7,1.1-1
			c0.2-0.2,1.1-0.1,1.4,0.2c0.3,0.3,1,1.1,1,1.4c0,0.3-0.2,0.8-0.4,0.6c-0.3-0.2-0.7-0.1-0.5-0.5c0.2-0.4,0.3-1.1-0.1-1.1
			c-0.3,0-0.7,0-0.7,0s-0.7-0.2-1.1,0.5c-0.4,0.7-0.1,1.4,0.2,1.4c0.3,0,1,0,1,0.2c0,0.2-0.7,0.7-0.7,1c0,0.3,0.6,1.4,0.8,1.6
			c0.2,0.2,1.1,0.5,1.3,0.5c0.3,0-0.6,0.1-0.4,0.4c0.2,0.3,0.6,1.1,1,1.3c0.5,0.2,1.8,1,2,1.4c0.2,0.4,1.2-0.3,1.4-0.3
			c0.2,0,0.2,1,0.8,1c0.6,0,0.8-0.1,1.4-0.5c0.5-0.4,0.4-1,0.4-1.4c0-0.4,0-0.7,0.6-0.6c0.6,0.1,0.9-0.1,0.8-0.5
			c0-0.5-0.5-1,0.4-1.1c0.9-0.1,1.4-0.7,2-0.7c0.6,0,2.1,0.2,2.3,0c0.2-0.2,0.9-1.3,1.4-1.3c0.5,0,1.7-0.1,2.9-0.3
			c1.1-0.2,2.4-0.9,2.7-0.8c0.4,0,1.3,0,1-0.2c-0.3-0.3-0.7-0.9-1.4-0.9c-0.7,0,0-1,0.1-1c0.2,0,1,0.1,1,0.6c0,0.5,0.3,1,1.1,0.9
			c0.9-0.2,0.7-0.9,0.6-1c-0.2-0.2-0.3-0.6-0.5-1c-0.2-0.3-0.1-0.7,0.8-0.8c0.9-0.1,2.2,0.4,2.1-0.4c0-0.7,0-1.5,0.3-1.9
			c0.3-0.4,0.8-0.7,0.5-0.8c-0.3-0.1-0.7,0.2-1-0.5c-0.3-0.7,0.3-1.2,0.6-1.5c0.3-0.3,2.2-2,3.2-2.3c1-0.3,1.7-1.3,1-1.5
			c-0.7-0.2-2.1-0.6-3,0.1c-0.9,0.7-1.4,1.4-2.5,1.2c-1-0.2-0.9,0.1-1-1.2c0-1.3-1.2-3.5-2.1-3.4c-0.9,0.1-0.9,0.1-0.9,0.1
			s-16-0.1-16.6,0.5c-0.5,0.5-1,1.9-1.5,1.5c-0.5-0.4-0.6-1.3-1.2-0.9c-0.6,0.4,0,1.3-0.6,1.9c-0.5,0.6-2,0.5-2.4,0.3
			c-0.4-0.2-0.9-0.4-2.6-0.3c-1.7,0.1-3.7,0.6-3.3,1.2c0.4,0.5-0.8,0.9-1.1,0.6c-0.3-0.3-1.7,0.3-1.6,0.9c0.1,0.5-0.2,1.2-1,1
			c-0.7-0.1-1.3,0.3-1.3,0.8c0,0.5-1.7,0.8-1.8,0.8C522.7,256.6,520.6,256.6,521.3,257.1z"/>
		<path class="st4" d="M512.4,301.2c-0.1,0.7,0.6,0.5,1.4,0.5c0.8,0,2.2-0.1,2.4,0.2c0.3,0.3,1.4,0.9,1.8,1.2
			c0.3,0.3,1.4,0.3,1.4,0.1c0.1-0.3-0.7-1-1.2-1c-0.5,0.1-1.4-0.5-2-1c-0.5-0.5-1.5-0.5-1.9-0.5C514,300.7,512.4,301.2,512.4,301.2z
			"/>
		<path class="st4" d="M517.2,299.3c-0.6,0.1-0.5,0.8,0.3,0.7C518.1,299.9,517.7,299.2,517.2,299.3z"/>
		<path class="st4" d="M517.5,305c-0.6,0.1-0.5,1.3,0.3,1.1C518.5,305.8,518.1,304.8,517.5,305z"/>
		<path class="st4" d="M526.1,304.2c-0.6,0.1-0.5,1.3,0.3,1.1C527.1,305.1,526.7,304.1,526.1,304.2z"/>
		<path class="st4" d="M520.2,304.5c0,0,0.7,0.1,1.2,0.1c0.5,0,0.7,0.3,1.1,0.5c0.4,0.2,1.1-0.3,1.4-0.3c0.3,0,0.6,0.8,0.7-0.1
			c0.1-0.9-0.8-1.3-1.3-1.4c-0.5-0.1-1.1,0-1.5,0.1C521.3,303.5,520.2,304.5,520.2,304.5z"/>
		<path class="st4" d="M574.9,291.1c0.3-0.1,1.3-0.5,1.9-0.7c0.6-0.3,2.5-1,2.7-1c0.3,0,3.5,0.1,4-0.1c0.5-0.2,1.6-0.5,2.2,1
			c0.5,1.5,0,1-0.5,1.2c-0.5,0.3,0.2,0.9,0.5,0.9c0.3,0,1.2,0.9,1.6,0.9c0.5,0,1.6,0.5,1.6,0.5s1.1,0.9,1.7,0.9c0.6,0,1,0.5,1.7-0.2
			c0.7-0.7,1.5-1.5,2.2-1.4c0.7,0.1,1.4,0.7,2.2,0.7c0.9,0,2.4-0.1,2.7,0.2c0.3,0.3-1.8,1.5-1.6,1.8c0.1,0.3,0.4,0.2,1-0.6
			c0.7-0.8,1.6-0.8,2.4-1c0.8-0.2,1.2,1.1,1.3,1.5c0.1,0.4,0.7,1.2,1.2,2c0.5,0.9,0.9,2.1,1.4,3.1c0.5,1,0.8,2.4,1.4,3
			c0.5,0.6,1,1.6,1.3,2.5c0.3,0.8,1.1,1.6,1.4,1.7c0.3,0.1,1.4,1.6,1.4,2c0.1,0.4-0.4,1.3,0.7,1.4c1,0.1,2-0.5,2.3-0.6
			c0.3-0.1,2.9-1.2,3.2-0.7c0.3,0.4-0.5,2.2-0.5,2.7c-0.1,0.5-2,2.8-2,3.4c-0.1,0.6-1.2,1.7-1.9,1.8c-0.7,0.1-2.2,2-2.7,2.7
			c-0.5,0.6-1.4,2-1.8,2.1c-0.4,0.1-0.5,1.6-0.3,1.8c0.2,0.3,0.1,1.9,0.7,2.5c0.6,0.5,0.8,1,0.5,1.4c-0.3,0.5,0.1,1.6,0,2.5
			c-0.1,0.9-0.8,2-1.1,2.3c-0.3,0.3-1.9,0.8-2.4,1.4c-0.5,0.7-1,1.3-0.9,1.6c0.1,0.3,0.7,2,0.6,2.5c-0.1,0.4-1.3,1-1.8,1.2
			c-0.5,0.3-0.3,0.8-0.1,1.4c0.1,0.5-0.9,1.4-1.4,1.9c-0.5,0.5-1.7,2.1-2.5,2.7c-0.8,0.6-1.8,1.1-2.7,1c-0.8-0.1-2.5,0-2.8,0.3
			c-0.3,0.3-0.8,0.3-1.4-0.1c-0.7-0.3-0.7-0.8-0.8-1.6c-0.1-0.7-0.3-1.2-0.3-1.2s-0.2-1.2-0.8-1.7c-0.6-0.5-0.8-1.2-1.1-1.6
			c-0.3-0.4-0.1-1.3-0.2-2c-0.1-0.8-0.5-1.9-0.8-2.4c-0.3-0.5-1-1.8-1.2-2.2c-0.3-0.5-0.6-1.4-0.5-2.8c0.1-1.4,1-2.1,1.5-2.5
			c0.5-0.4,0.1-1-0.4-1.8c-0.5-0.8,0.1-2.2-0.3-2.7c-0.4-0.5-1.7-3-2.4-3.4c-0.7-0.4-0.8-0.5-0.4-1.5c0.4-1,0-1.9,0.7-2.5
			c0.7-0.6,0.3-1-0.4-1.4c-0.7-0.4-0.5-0.6-1-0.1c-0.6,0.5-1.4,0.7-1.8,0.3c-0.5-0.5-0.3-1.2-1.2-1.8c-0.8-0.5-2,0.2-2.3,0.3
			c-0.3,0.1-1.2,0.7-2.2,0.9c-0.9,0.1-1.6-0.1-2.5-0.1c-0.9,0-1.7,0.1-1.8,0.5c-0.1,0.5-0.3,0.7-0.9,0.3c-0.6-0.5-1.8-1.6-1.8-1.6
			s-1.6-1.4-2-2.2c-0.3-0.8-0.9-1.4-2.2-2c-1.2-0.6-0.5-1.3-0.7-2c-0.1-0.7-0.8-1-0.5-1c0.3-0.1,0.3-0.5,1-1.5c0.7-1,0.3-2,0.1-2.5
			c-0.1-0.5-0.8-1.4-0.1-2.2c0.7-0.9,1.3-2.8,1.8-3.3c0.5-0.5,1.8-1.3,2.5-1.6c0.7-0.3,0.3-1.2,0.7-2.2c0.4-1,1-1.5,1.2-1.5
			c0.2,0,0.9-0.7,1.7-1.2C573.3,290.9,574.7,291.3,574.9,291.1z M603.5,319.1c-0.2-0.3-1.3-0.2-1.5,0.1c-0.2,0.3-0.4,1.9,0.2,2
			C602.8,321.4,603.8,319.7,603.5,319.1z"/>
		<path class="st4" d="M615.4,329.2c-0.8-0.2-0.9,0.9-1.6,1.6c-0.7,0.7-1.4,1.4-1.6,1.3c-0.3-0.1-1.7,0.5-1.2,1.5
			c0.5,1,0.4,2-0.1,2.5c-0.5,0.5,0.4,1.8,0.3,2.6c-0.1,0.7,0.2,1.2,1.1,1.2c0.9,0,1.2-0.3,1.6-1.2c0.4-0.9,0.5-1.8,0.8-2.5
			c0.4-0.7,0.7-2.3,0.9-2.7c0.2-0.4,0.6-1.7,0.5-2.5C616.1,330.3,615.8,329.3,615.4,329.2z"/>
		<path class="st4" d="M639.1,311.7c-0.4,0.2-0.8,2.5,0,2.8c0.8,0.3,1.2-1.1,1-1.4C639.8,312.7,639.7,311.4,639.1,311.7z"/>
		<path class="st4" d="M584.1,286.3c-0.6,0-0.9,1-0.5,1.4c0.4,0.3,0.8,0.3,1.1-0.2C585,287,584.4,286.3,584.1,286.3z"/>
		<path class="st4" d="M579.1,287.4c-0.2,0.3,0.5,0.3,0.7,0.1C579.9,287.2,579.6,286.6,579.1,287.4z"/>
		<path class="st4" d="M586.9,288.6c-0.2,0.1,0.4,0.6,0.7,0.7c0.3,0.1,0.6,0.5,0.9,0.6c0.3,0.1,1.1,0,0.8-0.7
			c-0.3-0.7-0.8-0.7-1-0.7C588.1,288.6,587.2,288.3,586.9,288.6z"/>
		<path class="st4" d="M571.3,274.8c-0.6,0.1-0.7,0.8-1,0.8c-0.4,0-0.9,0.1-0.7,0.6c0.1,0.5,0.4,0.8,0,1c-0.4,0.2,0.1,1,0.6,1.1
			c0.5,0.1,1.1-0.3,1.6-0.5c0.5-0.2,1.1-0.6,1.1-1.2c0-0.6-0.1-1.2-0.4-1.4C572.1,274.8,571.7,274.7,571.3,274.8z"/>
		<path class="st4" d="M572,272.8c-0.5,0.2-0.3,0.9-0.1,1.2c0.3,0.3,0.7,1.1,1.4,1.4c0.7,0.3,2,0.5,1.5,0.8c-0.5,0.3-1.4,1-1.6,1.4
			c-0.1,0.4,1.1,0.8,1.1,0.8s-0.4,0.5-0.1,0.6c0.3,0.1,0.5-0.5,1-0.5c0.5,0,1.6,0.3,2.1,0.3c0.5,0,1.4-0.7,1.3-1.2
			c-0.1-0.5-0.7-1.2-1.3-1.5c-0.6-0.3-1.2-1.5-1.6-1.8c-0.4-0.3,0.4-1-0.1-1.4c-0.5-0.5-0.8-0.4-1.3-0.8c-0.5-0.3-1,0.1-1.3,0.5
			C572.8,273.1,572.4,272.6,572,272.8z"/>
		<path class="st4" d="M576.3,282.2c-0.1-0.6-1.4-1.2-2.2-1.3c-0.8-0.1-0.7-0.5,0.2-0.6c0.9-0.1,0.9-0.4,1.6-0.5
			c0.8-0.1,1.6-0.3,2.2-0.4c0.6-0.1,0.6-0.6,0.6-1c0-0.4,1.6-0.5,1.6-0.5s0.9-0.9,1.4-1.3c0.5-0.4,1.4-0.3,2.2-0.1
			c0.7,0.2-0.1-0.5-0.3-0.8c-0.3-0.3-0.1-1.1,0.1-1.5c0.2-0.4,1.4-0.6,1.7-0.5c0.3,0.1,0,0.7,0.1,1.3c0.1,0.5,0.6,0.9,0.6,0.9
			l0.5-0.1c0,0,0,0,0.8,0c0.9,0,0.6,0.5,1.2,0.3c0.7-0.2,1.4-0.5,1.7-0.6c0.3-0.1,1-0.1,2,0.2c1,0.3,0.5-0.6,0.7-1.2
			c0.2-0.5,0.6-1.5,1.2-1.4c0.7,0.1,1.2,0.5,1.7,0.1c0.5-0.3-1-0.8-1-1c0-0.2,1.2-0.2,2.4-0.3c1.1-0.1,1.8,0,2.3-0.1
			c0.5-0.1-0.4-1.1-0.6-1.1c-0.2,0-1.5,0.1-2.2,0.1c-0.7-0.1-1.4,0.4-2,0.5c-0.6,0.1-0.7-0.8-1-1.2c-0.3-0.4-0.5-1.2,0.4-1.6
			c0.9-0.4,2.4-1.3,2.6-1.7c0.3-0.4-1-0.3-2.3-0.3c-1.2,0.1,0.2,0.4-1,1.6c-1.2,1.2-1.8,0.4-2.7,1.2c-0.9,0.8-0.3,0.9,0.6,1.2
			c0.8,0.3,0.1,1.1-0.1,1.3c-0.2,0.2-1.2,1-1,1.5c0.1,0.5-0.7,0.9-0.7,0.9s-2.4,0.5-2.9,0.6c-0.5,0.1-0.6-0.3-0.5-0.7
			c0.1-0.4-0.5-1.4-0.6-2c-0.1-0.6-1,0.3-1.1,0.7c-0.1,0.4-1.3,0.5-2,0.2c-0.7-0.3-1.1-1.3-1-1.5c0.1-0.2-0.4-1.2-0.4-1.5
			c0-0.3,1.4-1.4,2.7-1.6c1.2-0.3,2.8-1.8,3.7-2.5c0.9-0.7,1.2-1.5,1.5-1.7c0.3-0.2,4.8-1.4,6.4-1.7c1.6-0.3,5.2,0.3,5.8,0.5
			c0.6,0.1,0.9,0.3,2.4,0.9c1.4,0.5,2.7,0.5,3.6,0.7c0.9,0.1,1.5,0.4,2.1,0.7c0.6,0.3,0,0.5-1.4,1c-1.4,0.5-2.4,0.3-3.2,0.1
			c-0.8-0.3-1.2-0.3-0.7,0.1c0.6,0.4,0.4,0.6,0.5,1.2c0.1,0.6,1,0.1,1.2-0.1c0.2-0.1,0.2-0.4,0.9,0.1c0.7,0.5,1,0.2,1.3,0.1
			c0.3-0.1,0.1-0.8,0.3-1.1c0.2-0.3,1-0.3,1.2-0.4c0.2-0.1,0.7-0.3,1-0.4c0.4-0.1,0.3,0.6,0.7,0.8c0.4,0.2,0.2-0.9,0.1-1.2
			c-0.1-0.3-0.3-1-0.1-1.2c0.2-0.2,1.6-0.3,1.9-0.1c0.3,0.3-0.5,1.1-0.3,1.6c0.2,0.5,0.7-0.3,1-0.7c0.3-0.4,1,0,2.2-0.2
			c1.2-0.2,0.9-0.9,2.2-0.5c1.2,0.4,0.9,0.4,1.3,0c0.4-0.4,1.1,0.1,1.8-0.2c0.7-0.3,0.7,0,1.2,0.3c0.5,0.3,1.2-0.5,1.4-0.8
			c0.3-0.3,1.3-0.3,1.8-0.2c0.5,0.1,1.2,0.4,1.7,0.4c0.5,0,1.4,0.4,1.4,0.4s1.1,0.4,1.4,0.1c0.3-0.3-0.1-0.6-1-1.1
			c-1-0.5-0.6-1.3,0-1.4c0.6-0.1,0.5-0.4,1-0.7c0.5-0.3,1-1.3,1.6-1.1c0.5,0.2,1,0.6,1.6,1c0.6,0.3,0.1,0.8-0.1,1.2
			c-0.1,0.3,0.1,1.6,0.3,1.8c0.2,0.2-0.2,1-0.7,1.3c-0.5,0.3-1.2,1.1-1,1.2c0.2,0.1,1.8-0.6,1.8-0.6s1-1.2,1.4-1.6
			c0.5-0.3,0.9-0.3,1,0.1c0.1,0.4,0.9,0.5,1.5,0.3c0.7-0.3,0-0.5-0.1-1.1c-0.1-0.6-1.1-0.3-1.7-0.1c-0.6,0.1-1,0.8-1.2,0.8
			c-0.2,0-0.2-0.4-0.1-1c0.1-0.6-0.3-1-0.3-1.3c0-0.3,0.2-0.3,0.7-1c0.5-0.7,0.5,0.5,0.5,1.1c0.1,0.6,0.5,0.3,0.9,0.3
			c0.4-0.1,0.2-0.9,0.5-1.3c0.3-0.4,1-0.5,1.7,0.1c0.7,0.6,0.6,0.4,1.4,0.7c0.8,0.3,0.9,0.3,0.9,1c0.1,0.6,0.6,0.7,0.9,0.5
			c0.3-0.2,0.1-1-0.1-1.3c-0.2-0.3-1.8-0.7-2.3-1.2c-0.5-0.5,0.3-0.5,0.9-0.5c0.6,0,1.7,0.1,1.7,0.1s1.2-0.3,1.9-0.8
			c0.7-0.5,1.1-0.5,1.8-0.7c0.7-0.3,1.7-0.3,2.4-0.1c0.7,0.1,1.1-0.3,1.8-0.5c0.7-0.3,1.4-0.5,1.6-0.3c0.2,0.1,1.8,0.5,2.1,0.5
			c0.3-0.1,0.9-0.3,1.9-0.7c1-0.4,0.6-0.3,1-0.5c0.4-0.2,1-0.3,2.4,0.3c1.4,0.6,0,0,0.4,0.4c0.4,0.4,0.6-0.1,1.5-0.2
			c0.9-0.1,1.5,0,2.1,0.1c0.6,0.1,1.9,0.1,2.5,0.5c0.6,0.4-0.4,1.3-0.7,1.6c-0.3,0.3,0.5,0.5,0.8,0.4c0.3-0.1,2.4,0,3.4,0.1
			c1,0.1,1.4,0.6,1.8,0.6c0.5,0,1.2-0.2,1.4-0.5c0.3-0.3,1.9-0.4,2.4-0.5c0.5-0.1,2,0,2.2,0.1c0.2,0.1,0.4,0.8,0.4,1.4
			c0,0.5,0.6,1,1,1.1c0.5,0.1,1.3-0.8,1.6-1c0.3-0.1,0.7,0.6,0.9,0.4c0.2-0.2,1.8,0.1,2.5-0.3c0.7-0.3,1,0,1.4-0.1
			c0.3-0.1,0.8-0.9,0.8-1.2c0-0.3,0.3-0.5,0-0.9c-0.3-0.4-1.2-0.1-2.2-0.4c-1-0.3-0.1-0.7,0.3-1c0.4-0.3,1,0,1.7,0.1
			c0.7,0.1,0.4-0.2,0.7-0.2c0.3,0,1.5,0.3,2.2,0.3s1.2,0.7,1.2,0.7s-1.8,0.5-2.2,0.5c-0.4,0-0.1,0.5,0.2,0.5c0.3,0,0.8,0.2,1.2,0.5
			c0.5,0.3,2.5,0,2.7,0c0.3,0,1,0.3,1.8,0.8c0.8,0.5,1.3,0.7,1.3,0.7s1.1,0,2.2-0.1c1.1-0.1,2.6-0.1,2.8,0.1c0.3,0.2,1,0.4,1.5,0.9
			c0.5,0.5,0.9,0.3,1.6,0.2c0.7-0.1,1.4-0.2,2.1-0.2c0.7,0,2.8-0.1,3.2,0.5c0.4,0.6,0.9,0.5,0.9,0.5s0.6-1.1,0.8-1.3
			c0.3-0.2,1.1,0.1,1.6,0.4c0.5,0.3,3.1,0,3.7,0.1c0.7,0.1,1.6,0.8,1,1.4c-0.5,0.5,0.4,1.5,0.2,2c-0.2,0.5-0.7,0.6-1.2,0.7
			c-0.5,0.1,0.5,0.8,1,1.3c0.5,0.5-0.3,0.6-0.7,0.4c-0.5-0.2-1.6,0.1-3.1,0.5c-1.5,0.4-2.1,1.2-3.7,1.3c-1.6,0.1-0.9-0.1-2.9-0.1
			c-2,0-1.9,0.5-2.3,1.2c-0.4,0.7,0.2,0.5,0,1.1c-0.2,0.5-0.5,1.2-0.5,1.6c0,0.5-1.2,0.5-1.6,1c-0.4,0.4-1,1.4-2.2,2.2
			c-1.1,0.7-1.9,1.9-1.9,1.9s0.2-1.2,0.7-2c0.5-0.8-0.6-2-0.7-2.9c-0.1-0.9,0.3-1.2,1-2c0.7-0.8,2.2-1.1,2.9-1.5
			c0.7-0.4,3.3-2.3,3.3-2.3s-0.5,0.3-1.2,0.6c-0.7,0.3-1.4,0.8-2,0.8c-0.5,0-0.3-0.5-0.4-1.1c-0.1-0.5-1.3-0.1-1.8,0.4
			c-0.5,0.5-1.3,0.9-2.2,1.6c-0.9,0.7-0.7,0.6-1.2,0.7c-0.6,0.1-1.6-0.3-2-0.7c-0.5-0.3-0.9,0.3-2.4,0.3c-1.4,0.1-3.1-0.1-3.7-0.1
			c-0.7,0.1-2.3,2-3.3,2.4c-1,0.3-2.2,1-1.9,1.4c0.3,0.5,0.9-0.4,1.2-0.4c0.3,0-0.2,1,0.4,1c0.6,0,0.9-0.3,1.5-0.4
			c0.6-0.1,1,0.5,1.2,1.2c0.1,0.7-0.3,1.4-0.5,2.3c-0.3,1-0.7,1.9-1.7,2.7c-1,0.8-2.7,2.3-3.1,2.7c-0.3,0.4-1.5,0.1-1.7-0.2
			c-0.2-0.3-0.8,0.6-1.2,0.8c-0.5,0.2-0.9,0.6-0.9,1.2c0,0.5-1.3,0.5-1.3,0.9c0,0.3,0.8,1.3,1.1,1.8c0.3,0.5-0.1,2-0.7,2.3
			c-0.6,0.3-0.8,0.7-1.6,0.3c-0.8-0.5-0.1-0.8,0.2-1.5c0.3-0.7-0.3-1.2-0.5-1.4c-0.1-0.2-0.7,0.4-0.9,0.5c-0.3,0.1-0.3-0.6-0.1-1
			c0.2-0.4-0.1-1.3-0.3-1.4c-0.2-0.1-1.4,1-2,1c-0.5-0.1-0.1-1.3,0.1-1.6c0.2-0.3-0.4-0.1-0.8,0.3c-0.4,0.3-1.2,1.1-1.6,1
			c-0.3-0.1-1,0.5-0.5,1c0.5,0.4,0.7,0.7,1,0.8c0.3,0.1,1.2-0.1,1.5-0.2c0.3-0.1,1,0.5,0.3,1.1c-0.7,0.6-2,0.7-1.8,1.1
			c0.3,0.4,0.9,1,1.4,2c0.5,1,0.3,2,0.5,2.7c0.1,0.7-1.9,2.3-2.5,2.8c-0.6,0.5-1.2,1.6-2.2,2.2c-1,0.5-3.1,1-3.4,0.8
			c-0.3-0.2-1.2,0.3-1.2,1.1c0.1,0.7,0.5,0.7,0.5,0.9c0,0.2-0.7,1-0.9,1.4c-0.3,0.3-1.2,0-1-1c0.1-1,0.8-1.4,0.7-1.9
			c-0.1-0.5-0.7-0.7-1-0.3c-0.4,0.4-1.6,1.6-1.6,1.6s0.5,1.2,1,1.7c0.6,0.5,1,1.2,1.8,2.2c0.8,1,0.2,1.9,0,2.7
			c-0.2,0.7-0.8,0.7-1.4,0.9c-0.5,0.1-0.7,0.3-0.9,0.7c-0.2,0.4-1.1,0.9-1.2,0.5c-0.1-0.3-1-1.2-1-1.2s-0.6-1.2-1.4-1.8
			c-0.8-0.6-1.2-0.9-1.2-0.3c0,0.6-0.5,1.8-0.5,2.2c0,0.4-1.2-1.2-1.2-1.9c0-0.7-0.2-1.8-0.1-2.9c0.1-1.1-1.4-0.1-1.4-0.1
			s-0.7,1.2-1,1.2c-0.3,0-0.5-1-0.4-1.8c0.1-0.8-0.3-1.6-0.5-1.8c-0.2-0.3-1.3-1.4-1.5-2.1c-0.2-0.7-0.6-0.5-1-0.1
			c-0.4,0.4-0.3,0.4-1.8,0.4c-1.6,0-1.5,1-2.3,1.6c-0.8,0.6-1.4,1.8-2.4,2.2c-0.9,0.4-1.3,0.8-1.3,1.3c0,0.5,0,1.7-0.2,2.4
			c-0.2,0.7-0.3,1.6-0.8,2.3c-0.5,0.7-0.9,1.8-1.2,1.8c-0.4,0-0.5-1-0.5-1.6c0-0.6-1.1-2-1.4-2.5c-0.3-0.5-1.2-2.6-1.2-2.6
			s-0.8-2.2-0.7-2.9c0.1-0.6,0.1-2.3,0.1-2.3s-1,1.1-1.5,1c-0.5-0.1-0.9-0.8-0.8-1.7c0.1-0.9-0.8-0.8-1.2-1c-0.5-0.1-1-1.4-1.4-1.4
			c-0.3,0-0.5,0-0.8,0.4c-0.3,0.4-1.6,0.3-2,0.3c-0.3,0-2.3-0.1-2.9-0.3c-0.6-0.2-1.2-1.4-1.6-1.6c-0.3-0.1-1.3,0.7-1.7,0.6
			c-0.4-0.1-1.2-0.8-2-1.2c-0.8-0.4-1.1-1.4-1.4-2c-0.3-0.6-1.4,0.3-1.3,1c0.1,0.7,1.6,1.6,1.6,2c0,0.5,0.3,0.6,1,1.2
			c0.7,0.6,0.1,1,0.6,1.1c0.5,0.1,1.1-0.5,1.8-0.9c0.7-0.3,0.6-0.8,0.9-0.8c0.3,0,0.3,0.9,0.8,1c0.5,0.1,1.9,0.9,2.2,1.4
			c0.3,0.5-0.3,0.9-0.6,1.4c-0.3,0.5-1,1.8-1.7,2.4c-0.7,0.5-1.4,1.3-2.4,1.5c-1,0.2-1.1,0.8-1.9,0.8c-0.8,0.1-2.9,1.2-3.3,1.4
			c-0.3,0.2-2.1,0.7-2.6,0.5c-0.5-0.2-0.7-1.6-0.9-2.6c-0.2-1-0.5-1.6-0.7-2c-0.2-0.4-1.4-1.5-1.6-1.7c-0.3-0.2-0.9-1.8-1-2.5
			c-0.1-0.7-0.8-0.4-0.9-1.2c-0.1-0.8-0.9-1.8-1-2.2c-0.1-0.5-1.4,0.1-2,0.1c-0.5,0.1-1.5-0.4-1.4-1.5c0.1-1.1,0.7-1.1,1.3-1.1
			c0.7,0,0.4-0.3,1-1c0.7-0.7,0.9-2,0.9-2.9c0.1-0.9-0.5-0.5-1-0.3c-0.5,0.1-1.3,0.3-1.6,0.3c-0.3-0.1-1.3-0.4-1.5-0.2
			c-0.2,0.2-1.3,0.1-1.6-0.3c-0.3-0.3-1.6-0.7-1.7-1c-0.1-0.3,0-1.9-0.3-2.3c-0.3-0.4-0.8,0.1-1.2,0.3c-0.3,0.3-1.2,0.5-1,0.7
			c0.3,0.2,1.1,0.6,1,1.2c-0.1,0.5-0.7,0.7-1,1c-0.3,0.3-1,0.7-1.2,0.3c-0.2-0.3-0.9-1.8-1-2.1c-0.2-0.3-0.8-1-1-1.6
			c-0.2-0.6-0.9-0.8-1.4-1.3c-0.5-0.5-1.8-1.2-2.3-1.8c-0.5-0.5-1.4-1-1.5-0.3c-0.1,0.7,0.9,0.8,1.3,1.5c0.4,0.7,1.2,1.1,1.7,1.3
			c0.5,0.2,1.7,1.1,1.7,1.1s-0.5,0.2-1,0.1c-0.5-0.1-0.1,0.8-0.1,1.3c-0.1,0.5-0.5,0.5-0.7-0.1c-0.1-0.5-0.5-1.2-0.8-1.4
			c-0.3-0.2-2-0.7-2.2-0.9c-0.3-0.1-1.4-0.9-1.5-1.5c-0.1-0.6-1.1-0.7-1.4-0.5c-0.3,0.1-1.2,0.9-1.7,0.9c-0.5,0-1.2-0.3-1.7-0.4
			c-0.5-0.1-0.6,0.9-0.8,1.4c-0.2,0.5-1,0.1-1.5,0.6c-0.5,0.5-1.2,1-1,1.4c0.2,0.4,0.5,0.4-0.1,0.7c-0.6,0.3-0.9,1-1.5,1.1
			c-0.6,0.1-1.4,0.3-1.7,0.1c-0.3-0.2-0.6,0.7-0.8,0.9c-0.2,0.2-0.5-0.6-0.8-1c-0.3-0.3-1.2-0.1-1.4-0.1c-0.3-0.1-0.5-0.7-0.9-1
			c-0.3-0.3-0.3-0.9,0-1.1c0.3-0.2,0.5-0.5,0.3-1.2c-0.2-0.6-0.3-2,0.3-2.2c0.7-0.3,2.2,0,3,0c0.8,0,2.1,0.3,2.4-0.1
			C576.2,283.5,576.4,282.8,576.3,282.2z M600.9,270.2c-0.2,0.6,1.5,1.2,1.8,0.7C603.1,270.4,601.3,269.3,600.9,270.2z M598.7,286.7
			c0.1,0.3,0.8-0.4,1.3-0.4c0.5,0,1.7,0.2,2-0.3c0.3-0.5,1.4-0.5,2.2-0.4c0.9,0.1,1.6,0.7,2.2,0.8c0.6,0.1,2.2-0.1,2.7-0.2
			c0.5-0.1,0.4-1.1-0.5-1.6c-0.8-0.5-1.6-1.2-2.4-1.5c-0.8-0.3-1-0.5-0.6-0.7c0.5-0.1,1-0.7,0.4-0.7c-0.7,0-1.2,0.2-1.3,0.5
			c-0.1,0.3-0.5,0.7-0.7,0.9c-0.3,0.1-0.9,0.7-1.1,0.3c-0.2-0.4-0.9-1.6-1.2-1.7c-0.3-0.1-0.8,0-1.2,0.7c-0.4,0.7-0.8,1.4-1.2,1.6
			c-0.4,0.3-0.9,1.1-0.5,1.2C599.1,285.5,598.7,286.7,598.7,286.7z M613.7,281.9c-0.8,0.6-1,1.3-0.7,1.8c0.3,0.5,1.2,2,1.7,2.1
			c0.5,0.1,2.1,0.4,1.4,1c-0.7,0.6-0.8,0.8-1.4,0.7c-0.6-0.1-0.3,1.6,0.1,1.8c0.5,0.1,1.8,0.6,2.3,0.7c0.5,0.1,2-0.1,1.9-0.5
			c-0.1-0.4-0.3-2-0.8-2.5c-0.5-0.4,0.7-0.8,0.4-1.2c-0.3-0.3-0.8-0.2-1-0.6c-0.3-0.4-0.4-0.8-0.8-1.1c-0.4-0.3-0.7,0.3-0.7-0.5
			c0.1-0.7,1-1.2,1.4-0.8c0.4,0.4,1.6,0.2,1.8,0c0.3-0.2-0.5-0.8-0.7-1.2c-0.2-0.4-1.5-0.7-1.7-0.6c-0.2,0.1-0.7,0.5-1.2,0.9
			C615.1,282.3,614.1,281.7,613.7,281.9z"/>
		<path class="st4" d="M621.2,262.7c-0.5,0.5-1.5,0.3-2.2-0.1c-0.7-0.4-1.6-0.5-2-0.6c-0.4-0.1,0.1-1,0.5-1.2
			c0.5-0.2,1.7-0.8,2.6-1.2c0.9-0.4,1.2-1.2,1.8-1.2c0.7,0,3.8-0.7,4.2-0.5c0.4,0.1,2.3,0.3,2.7-0.3c0.4-0.5,1.8-0.2,1.4,0.3
			c-0.3,0.5-1.5,1.6-2.3,1.4c-0.8-0.2-3-0.1-4,0c-1,0.1-1.9,0.7-2.7,1.2c-0.9,0.5-0.7,1-0.3,1.1
			C621.2,261.6,621.6,262.3,621.2,262.7z"/>
		<path class="st4" d="M687.3,276.2c-0.4,0.1-1.5-0.1-1.1,0.8c0.4,1,0.5,1.6,0.4,2.4c-0.1,0.8,0,2.3,0.1,2.5c0.1,0.2,0.7,0.7,1,0.5
			c0.3-0.1-0.1-1.5-0.1-1.8c0-0.3,0.5-0.7,0.7-0.7c0.3-0.1,0-1.2-0.3-1.7c-0.3-0.5-0.8-0.7-0.5-0.8c0.3-0.1,0.6-0.6,0.4-0.7
			C687.6,276.6,687.8,276.1,687.3,276.2z"/>
		<path class="st4" d="M686.7,283.2c-0.5,0.1-0.7,0.8-0.7,1c0,0.2-1.8,0.6-1.2,1.2c0.6,0.5,1.2,0.1,2.1,0.1c0.9-0.1,1.8-0.3,1.8-0.3
			s1.4,0.1,1.2-0.6c-0.2-0.7-1.6-0.7-1.9-0.7C687.6,283.9,687.2,283,686.7,283.2z"/>
		<path class="st4" d="M685.2,285.8c-0.5,0.3-0.2,1.5-0.6,2.3c-0.4,0.8-0.7,1.6-1,1.6c-0.3,0-1.6,0.5-2,1c-0.4,0.4-2.3-0.3-2.5,0
			c-0.3,0.3-0.8,0.8-1.1,1c-0.3,0.3-1.2,0.1-1,0.9c0.2,0.8,0.7,1.6,1,1.6s0.9-0.3,0.9-1s0.9,0,1.4-0.1c0.5-0.1,0.7-0.5,0.9-1.1
			c0.2-0.5-0.3,0.3,0.5,0.5c0.8,0.2,1-0.3,1-0.5c0-0.2,1.4-0.5,1.7-0.7c0.3-0.2,1.3-0.5,1.4-0.8c0.1-0.3,0-1.8,0.3-2
			c0.3-0.1,0.8-0.1,0.3-1.1C685.8,286.3,685.8,285.4,685.2,285.8z"/>
		<path class="st4" d="M670.8,299.2c-1,0.2-1.6,2.3-0.8,2.2C670.8,301.4,671.6,299.1,670.8,299.2z"/>
		<path class="st4" d="M711.1,347.5c-0.3,0.1,0,0.9,0.3,1.2c0.3,0.3,0.4,1.2,0.3,1.5c-0.1,0.3-1.2,0.6-0.7,1c0.5,0.3,1.5,0,1.4,0.4
			c-0.1,0.4-0.7,1-0.1,1.1c0.6,0.1,0.8-0.5,1-1c0.3-0.5,0.5-0.9,0.9-1.2c0.5-0.3,0-0.9-0.3-0.9c-0.3,0-0.4,0.3-1,0
			c-0.6-0.3-0.5-0.2-0.8-0.9C711.8,348,711.8,347.1,711.1,347.5z"/>
		<path class="st4" d="M710.6,351.8c-0.1,0.3-0.7,0.4-1,0.7c-0.4,0.3,0,0.5-1.1,1.2c-1.1,0.7-2.5,1.4-2.7,2c-0.3,0.6,0.3,1,1.3,1
			c1,0.1,0.8,0.3,1.5-0.5c0.7-0.8,1.4-1.3,2.2-2c0.9-0.7,0.9-1.7,0.9-1.7S710.6,351.6,710.6,351.8z"/>
		<path class="st4" d="M688.7,352.4c-0.7,0.7,0.7,0.7,0.5,1.5c-0.2,0.7,1,0.5,1.3,0.3c0.3-0.1,1.1-1.7,1-2.1
			c-0.1-0.4-1.4,0.7-1.8,0.6C689.5,352.6,688.7,352.4,688.7,352.4z"/>
		<path class="st4" d="M684,347c0-0.7-0.4,0.7-0.7,0.1c-0.3-0.6,0.3-1.6-0.4-1.2c-0.7,0.4-1,0.7-1,1.1c-0.1,0.3-1.2,0.5-1.2,0.1
			c0.1-0.3,0.5-1.2,0.1-1.5c-0.5-0.3-1.2-0.5-1.8-0.7c-0.6-0.2,0.1-0.9-1.5-0.5c-1.6,0.3-2.2,0.8-2.2,0.8s-1.4-0.5-1.9,0.1
			c-0.5,0.5-1.1,1.6-1.1,1.6s-1.8,0.1-2.2,0.1c-0.4,0.1-1,0.6-1.6,0.8c-0.6,0.2-1.6,0.4-2,0.1c-0.4-0.3-1-1-0.8-1.4
			c0.2-0.4,1.6-1,1.1-1.6c-0.5-0.7-0.8-0.8-0.9-1.2c-0.1-0.4,0.2-0.6-0.6-1.4c-0.8-0.8-0.6-1.8-0.3-1.9c0.3-0.1-0.2-1-0.5-1.3
			c-0.3-0.3-0.3-1.6,0.3-1.9c0.5-0.3,2.1-1.6,2.6-1.6s1.2,0.2,1.6-0.1c0.5-0.3,1.8-0.2,1.8-0.5c0-0.3,0.1-1.4,0.5-1.7
			c0.3-0.3,1.7-0.7,1.9-1c0.2-0.3,0.5-1.4,0.9-1.6c0.4-0.2,0.7-0.7,1.3,0c0.6,0.7,1.2,1,1.4,0.3c0.3-0.7,0.1-0.5,0.7-1.1
			c0.6-0.6-0.1-1.6,0.5-1c0.6,0.6,1,1.1,1,1.1s-0.1-1.4,0.3-1.4c0.4,0,0.8,0.7,1,0.7c0.2,0,2-0.4,2.3,0.1c0.3,0.5-0.9,1.8-0.5,2.2
			c0.5,0.5,1.4,0.7,2,1.2c0.7,0.4,1.4,1.4,1.8,0.5c0.3-0.8,1-2,0.5-2.7c-0.5-0.6,0.1-2.6,0.3-2.7c0.2-0.1,0.5,1.6,1.2,2.3
			c0.7,0.7,1.3,1.3,1.6,2.1c0.3,0.8,0.4,2.2,1,2.7c0.6,0.5,1.8,0.5,1.7,1.1c-0.1,0.6,1.3,1.8,2,2.9c0.7,1.2,0.8,3.7,0.8,4.8
			c0,1.1-0.8,2.5-1.4,3.3c-0.6,0.8-0.8,1.9-1,2.3c-0.3,0.4-0.1,0.3-1.1,0.6c-1,0.3-1.7,1.1-2,0.8c-0.3-0.3-1.2-0.7-1.4-0.4
			c-0.3,0.3-0.6,1.1-1,0.3c-0.5-0.8-1.5-0.7-1.7-0.8c-0.2-0.1-0.2-0.5-0.2-1.2c0-0.7-0.8-0.7-0.9-1C684.2,347.5,684,347.2,684,347z"
			/>
		<path class="st4" d="M714.1,333.7c0.9,0.3,2.4-1.2,1.8-1.4C715.3,332.1,714.1,333.7,714.1,333.7z"/>
		<path class="st4" d="M705.8,337.1c-0.1,0.7-0.9,0.3-1.3-0.3c-0.4-0.6-1.2-1.1,0-0.8C705.7,336.3,705.9,336.8,705.8,337.1z"/>
		<path class="st4" d="M650.7,314.9c-0.8,0.2,1.2,1.6,1.4,1.8c0.2,0.2,2,1.8,2,2.5c0,0.7,1.2,2.5,1.5,2.8c0.3,0.3,2,1.3,2.2,1.8
			c0.3,0.5,0.8,0.7,0.8-0.1c0-0.7,0.1-1.6,0.5-2c0.3-0.4,0.2-1-0.3-1c-0.5,0.1-1-0.9-1.8-1.5c-0.8-0.6-1.5-1-2.3-1.9
			c-0.8-0.9-1.8-1.4-2.3-1.9C651.8,315,651,314.8,650.7,314.9z"/>
		<path class="st4" d="M653.3,311.3c-0.5,0.1-0.5,1.1-0.3,1.4c0.3,0.3,0.8,0.1,1.1,1.4c0.3,1.2,1,2.5,1.2,2.9
			c0.3,0.5,1.4,1.2,1.8,1.5c0.4,0.3,1-0.1,0.7-0.5c-0.3-0.4-0.8-1-0.9-1.5c-0.1-0.5-0.4-1.2-0.9-2c-0.5-0.8-1-1-1.3-1.6
			C654.4,312.3,653.3,311.3,653.3,311.3z"/>
		<path class="st4" d="M658.8,324.2c-0.5,0.6,0.1,1.1,0.3,1.2c0.2,0.1,0.9,0.3,1.6,0.2c0.7-0.1,1.6-0.3,0.8-0.7
			c-0.7-0.4-1.6,0-1.8-0.5C659.4,323.8,659,323.8,658.8,324.2z"/>
		<path class="st4" d="M662.5,324.7c-0.5,0.2-1.2,0.3-0.7,0.8c0.5,0.5,0.9,0.7,1.6,0.6c0.8-0.1,2,0.4,2,0c0.1-0.4-0.7-1-1-1
			C664.2,325.1,662.5,324.7,662.5,324.7z"/>
		<path class="st4" d="M669,327c-0.1,0.6,1,0.9,1,0.2C670.1,326.5,669.1,326.4,669,327z"/>
		<path class="st4" d="M672.4,327.4c0.1,0.7,1.4-0.4,1.4-0.4s1-0.1,1-0.6c0-0.5-1-1.1-1.4-0.5C673.1,326.4,672.4,327,672.4,327.4z"
			/>
		<path class="st4" d="M669.5,319.8c-0.4,0.1-0.3,0.5-0.5,1.2c-0.1,0.7-0.7,1.2-0.2,1.5c0.5,0.3,1.5-1.2,1.8-0.7
			c0.3,0.5-0.1,0.7,0.4,1.3c0.5,0.6,1.3,0.5,1.3,0.5s-0.1-1.6-0.8-2s-1.2-0.9-0.3-0.7c0.9,0.1,1.3-0.2,1.1-0.6
			c-0.2-0.4-1.4-0.2-1.8-0.1C670.1,320.1,669.5,319.8,669.5,319.8z"/>
		<path class="st4" d="M669.9,318.4c-0.5,0.5-0.1,1,0.6,0.9c0.7-0.1,2.2-0.3,2.6-0.3c0.3,0,0.8-0.9,0.5-0.9c-0.3,0-2.1,0.3-2.3,0.4
			C671.1,318.6,669.9,318.4,669.9,318.4z"/>
		<path class="st4" d="M676.6,317.5c-0.6-0.3-1.7,2.2-0.9,2.5C676.5,320.1,677.1,317.7,676.6,317.5z"/>
		<path class="st4" d="M667.6,313.9c0-0.5-1,0.1-1.1,0.6c-0.1,0.5,0.7,0.9-0.5,0.9c-1.2,0-1.3,1-1.6,1.2c-0.3,0.2-0.5,0.3-1,0.4
			c-0.5,0.1-0.7,0.7-0.8,1c-0.1,0.3-1-0.6-1.3-0.3c-0.3,0.3-0.1,1.6,0.4,2.7c0.5,1.1,1.6,1.8,2,1.8c0.3,0,1,0,1.4,0.1
			c0.5,0.1,2,0.3,1.9-0.3c-0.1-0.6-0.2-1.6,0.5-2.2c0.7-0.6,1.3-1,1-1.8c-0.3-0.9-1-1.4-0.5-1.8c0.5-0.4,1-0.5,1-0.9
			C668.9,314.8,667.8,316.1,667.6,313.9z"/>
		<path class="st4" d="M670.8,304.3c-0.5,0,0.1,0.7-0.6,1.2c-0.7,0.5-1.4,0.7-1,1.5c0.4,0.8,1.8,1.4,1.4,1.8c-0.3,0.3-1.3,1-1.4,1.6
			c-0.1,0.6,1.6-1,2-1.6c0.5-0.6,1.4-0.3,1.6-0.6c0.2-0.3,0.2-0.3,0.2-0.3s-0.7-0.1-1.3-0.3c-0.6-0.2-1.3,0.5-1-0.5
			c0.3-1.1,1.3-0.9,1.1-1.7C671.7,304.5,671,304.3,670.8,304.3z"/>
		<path class="st4" d="M671.4,310.2c-0.2,0.1-0.8,1.3-0.1,1.3c0.7,0,2,0.2,1.7-0.1C672.8,311,672.2,309.9,671.4,310.2z"/>
		<path class="st4" d="M673.6,309.2c-0.3,0-1.1,1.4,0.1,1.4C674.8,310.5,674.5,309.3,673.6,309.2z"/>
		<path class="st4" d="M673.8,311.7c-0.9,1.2-0.9,1-1.5,0.7c-0.7-0.3-1.7,0.6-1.5,1c0.2,0.3,1.6-0.1,2,0.5c0.3,0.6,0.3,0.7,1,0.5
			c0.7-0.1,1.3-1.1,1.1-1.6C674.6,312.4,673.8,311.7,673.8,311.7z"/>
		<path class="st4" d="M678.2,319.7c-0.5,0.5-0.7,0.5,0.4,0.8c1.1,0.2,1.4,0.2,1,0.7c-0.5,0.5-0.8,1.2-0.4,1.3
			c0.4,0.1,1.6-0.3,1.7,0c0.1,0.3-0.3,0.3,1,0.5c1.3,0.2,1.6,0.7,1.8,1c0.3,0.3,1,1.2,0.5,1.2c-0.5,0-1.1,0.7-0.7,0.7
			c0.4,0.1,1.6-0.2,1.6,0c0.1,0.2,0.7,1.5,1.4,1.4c0.7-0.1,1-1.3,1.4-1.6c0.3-0.3,1.6-0.5,1.8,0.1c0.1,0.6,0.5,1.2,1.3,1.6
			c0.8,0.4,1.7,0.8,1.8,0.5c0.1-0.3-0.4-1.6-0.9-1.8c-0.5-0.2-1.4-1.4-1.4-1.8c0-0.5-0.8-0.6-1.2-1c-0.4-0.3-0.7-1.3-1.7-1.5
			c-1-0.2-1.2-0.5-2.3-1.1c-1-0.5-3.4-0.5-3.5-0.2c-0.1,0.3,0,0-0.8-0.3c-0.8-0.3-1.4,0-1.6-0.5
			C679.3,319.3,678.8,319.1,678.2,319.7z"/>
	</g>
</g>
</svg>
