<?xml version="1.0" encoding="utf-8"?>
<!-- Generator: Adobe Illustrator 22.0.1, SVG Export Plug-In . SVG Version: 6.00 Build 0)  -->
<svg version="1.1" id="레이어_1" xmlns="http://www.w3.org/2000/svg" xmlns:xlink="http://www.w3.org/1999/xlink" x="0px"
	 y="0px" viewBox="0 0 3000 1500" style="enable-background:new 0 0 3000 1500;" xml:space="preserve">
<style type="text/css">
	.st0{fill:none;}
	.st1{fill:#FFFFFF;}
	.st2{font-family:'ArialMT';}
	.st3{font-size:936.1365px;}
	.st4{letter-spacing:179.3;}
</style>
<g>
	<rect x="1397" y="267" class="st0" width="1603" height="1002.8"/>
	<rect x="1396.5" y="287.3" class="st0" width="1500.8" height="1107.3"/>
	<text transform="matrix(0.3514 0 0 1 1396.5479 1090.6213)" class="st1 st2 st3 st4">HAWOL</text>
	<g>
		<path class="st1" d="M31.1,353.9c-3.2-2.6-1.4,11.7-4.6,13s-6.4,6.5-4.1,7.8c2.3,1.3,7.8-1.3,8.2-3.9
			C31.1,368.2,32,353.9,31.1,353.9z"/>
		<path class="st1" d="M7.8,373.4c-3.7-1.3-7.3,0-7.8,3.9s3.2,6.5,5.5,6.5s7.3-3.9,6.4-5.2C11.5,377.3,7.8,373.4,7.8,373.4z"/>
		<path class="st1" d="M27.9,296.7c-1.4,1.3,2.3,6.5,3.2,6.5c1.4,0,3.2-9.1,0.9-9.1C29.3,294.1,30.6,294.1,27.9,296.7z"/>
		<path class="st1" d="M38,223.2c0,0,0,0,1.8,3.9c1.8,3.9,4.6,6.5,7.3,6.5c2.7,1.3,2.7-3.9,0.5-9.1c-2.3-5.2-2.7-3.9-4.6-5.2
			c-1.8-1.3-2.3-6.5-6.9-6.5c-4.6,0-4.1-6.5-4.6-10.4c-0.5-3.9,4.1-1.3,5.5-1.3c1.4,1.3,5.9-10.4,5.9-10.4s7.8-9.1,8.7-6.5
			c0.9,1.3,5.5-1.3,7.3-3.9c2.3-1.3,3.2-11.7,3.2-11.7s2.7,2.6,4.1,6.5c1.4,3.9,4.6,0,5.5,0s5.5,9.1,5.5,9.1s5.9,0,8.2-1.3
			c2.3-1.3,8.7-1.3,11,1.3c2.3,1.3,13.2,3.9,14.2,3.9c1.4,0,7.3,6.5,11,3.9c4.1-2.6,5.5,1.3,6.4,2.6c0.9,1.3,1.8,1.3,3.2,6.5
			c1.4,5.2,3.2,1.3,5-2.6c2.3-3.9,1.8-6.5,1.8-6.5s0,0,1.8-1.3c1.8-1.3,3.2,1.3,8.2,2.6c5,1.3,3.7-2.6,7.3-6.5
			c3.7-3.9,7.3,3.9,8.2,3.9c1.4-1.3,2.7-7.8,3.7-3.9c0.9,3.9,2.3,10.4,2.3,10.4s4.1-9.1,5-9.1c1.4,0,4.6,3.9,6.9,2.6
			c2.3-1.3,10.1-1.3,11.9,3.9c1.8,3.9,6.4,3.9,8.7,7.8c2.3,3.9,4.6-3.9,3.7-5.2c-1.4-1.3-4.1-9.1-4.1-9.1s-4.6-15.6-5-18.2
			c-0.5-2.6-1.4-2.6-2.7,3.9c-1.4,6.5-5.5,6.5-11,7.8c-5,1.3-1.8-6.5-7.3-7.8c-5.5-1.3-3.7-6.5-1.8-6.5c1.8,0,3.2-10.4,3.7-16.9
			c0.5-6.5,2.7-5.2,6.9-3.9c4.1,1.3,5.5-1.3,9.6,0c4.1,1.3,3.7-5.2,8.2-3.9c4.1,1.3,2.3,2.6,4.6,6.5c2.3,3.9,3.7,3.9,7.3,7.8
			c3.2,3.9,2.3,3.9,3.7,5.2c1.4,1.3,6.4-1.3,9.6-2.6c3.2-1.3,5.5-1.3,6.9,3.9c1.4,5.2,1.4,11.7,3.2,15.6c2.3,3.9-1.4-15.6-1.4-23.4
			c0-6.5,4.1-1.3,6.9-1.3c2.7,0,5.5-2.6,6.4,1.3c0.5,3.9-3.7,9.1-1.4,16.9c2.7,7.8,4.6,10.4,6.9,10.4s7.8,1.3,5.5,11.7
			c-2.3,9.1-8.7,9.1-11,9.1c-2.3,0-5.5,3.9-4.6,9.1c0.9,5.2,5.5,2.6,9.1,2.6c3.2,0,13.2,2.6,16,0c2.7-2.6,2.3-13-0.9-15.6
			s-0.5-7.8,2.3-6.5c3.2,1.3,5.9-2.6,5.5,0c-0.5,2.6,0.5,9.1,0.5,15.6s0.9,11.7,3.2,9.1c2.3-1.3,2.3-2.6,4.6-3.9
			c2.3-1.3,0.9-15.6-0.5-23.4c-1.4-7.8-2.3-13-1.8-16.9c0.5-3.9,3.7-5.2,5.5-1.3c1.8,3.9,4.1,13,4.1,13s3.7,6.5,4.6,13
			c1.4,6.5,1.4,5.2,3.7,1.3c2.3-3.9,3.2-3.9,5,1.3c2.3,3.9,0.5,13,0.5,15.6s3.2,0,3.7-5.2c0.5-5.2,3.2-5.2,4.6-6.5s1.4-13,1.4-13
			s-3.7-2.6-7.8-1.3c-3.7,1.3-5-1.3-8.2-6.5c-3.2-6.5-1.4-10.4-2.7-16.9c-1.4-6.5,4.6-10.4,8.7-15.6c3.7-5.2,7.8-1.3,6.9,11.7
			c-0.9,13-1.4,11.7,3.2,9.1c4.6-2.6-0.5-14.3,1.8-15.6s7.3-3.9,9.1-2.6c1.8,1.3,11.4-2.6,14.2-2.6c2.3,0,6.4,6.5,9.1,10.4
			c2.7,3.9,10.1,10.4,11.4,13c1.8,2.6,14.2,7.8,15.5,9.1c1.4,1.3,1.4,11.7,2.3,20.8c1.4,9.1,4.6,2.6,5.5,2.6c1.4,0,5.5,6.5,6.4,10.4
			c1.4,3.9,10.1,7.8,10.1,7.8s-2.3,7.8-3.2,10.4c-0.9,2.6-3.2,3.9-4.6,7.8c-1.8,3.9-4.1-1.3-6.4-5.2c-2.3-3.9-6.4-6.5-7.3-5.2
			c-0.9,1.3-0.5,5.2,0.5,7.8c0.5,2.6,4.6,6.5,6.9,11.7c2.3,5.2,1.8,10.4,2.3,18.2c0.5,6.5-2.3-2.6-5.5-3.9c-3.2-1.3-3.2,6.5-3.2,6.5
			s-3.7-1.3-5.5-1.3c-1.8,0,0,0-3.2-6.5c-3.2-6.5-2.7,3.9-4.6,1.3c-1.8-3.9-3.7-9.1-4.6-6.5c-0.9,1.3-3.7-7.8-5.5-6.5
			c-1.8,1.3-9.1-2.6-10.5-1.3c-1.8,1.3-3.2,1.3-4.6,3.9c-1.4,1.3-2.3-13-1.4-16.9c0.9-3.9,3.2-5.2,6.9-2.6c3.7,2.6,4.1,0,5-3.9
			c0.9-3.9,1.8-9.1,5.9-13c4.1-3.9-0.5-6.5-1.4-7.8c-1.4-1.3-2.7-5.2-3.7,0c-0.9,5.2-3.2,11.7-3.2,11.7s-2.3,0-5.5-1.3
			c-3.2-1.3-0.9-3.9,0.5-6.5c1.4-1.3,3.2-13,1.8-15.6c-1.4-2.6-2.3-3.9-4.6-2.6c-2.7,1.3-0.9-6.5-2.7-9.1c-1.8-2.6-1.4,1.3-1.4,5.2
			c0,3.9-2.7,2.6-2.7,2.6s-4.1-1.3-5.5,0c-1.4,1.3-4.1,5.2-3.2,7.8s3.7,2.6,4.6,10.4c0.9,7.8-3.7,10.4-4.6,10.4
			c-0.9,1.3-4.6,3.9-4.6,3.9s-3.7-2.6-6.4-2.6c-3.2,0-3.7,1.3-3.2,3.9c0.5,3.9,2.3,1.3,3.2,1.3c0.9,0,0.9,3.9,3.7,2.6
			c2.7-1.3,2.3-3.9,4.6,2.6s4.6,6.5,8.7,13c3.7,6.5-0.5,13-2.7,13s-2.3-5.2-3.2-10.4c-1.4-5.2-5.9,1.3-5.9,1.3s-4.1,6.5-5.9,6.5
			c-2.3,0-3.7-1.3-0.9-6.5c2.7-6.5-3.2-6.5-3.2-15.6s-1.4,9.1-1.4,13c0,3.9-2.3,1.3-7.3,2.6c-5,1.3-4.1,6.5-11,19.5
			c-6.4,13-8.2,15.6-7.3,26c0.5,11.7,2.3,7.8,4.6,9.1c2.7,1.3,1.8,15.6,3.7,14.3c2.3-1.3,3.7-5.2,7.8,1.3c4.1,6.5,6.4,7.8,11.4,10.4
			c5,2.6,8.2,6.5,11,5.2c2.7-1.3,4.6,1.3,4.6,6.5c0,6.5,1.8,6.5,1.4,15.6c-0.5,7.8,3.2-6.5,3.2-6.5s1.4,13,0.5,15.6
			c-1.4,1.3,0.5,9.1,1.8,9.1c1.4-1.3,3.7,2.6,5.5-1.3c1.8-3.9-0.9-18.2-0.9-23.4s-1.8-7.8-2.7-13c-0.9-5.2,2.3-6.5,3.7-1.3
			c1.4,5.2,3.2,1.3,5.5-3.9c2.3-3.9,2.3-13,2.3-13s-3.7-14.3-6.4-18.2c-2.7-3.9-1.4-3.9,1.4-6.5c2.7-1.3,0-3.9,0.5-14.3
			c0.5-9.1,0.5-15.6,2.3-15.6c1.4,0,6.9-2.6,11.4-1.3c4.6,1.3,6.4,10.4,9.6,11.7c3.2,1.3,7.8,2.6,8.7,6.5c0.9,3.9-3.2,5.2-1.4,13
			c2.3,6.5,2.3,6.5,4.6,9.1c2.3,2.6,4.6,1.3,7.3-10.4c2.7-10.4,3.7-11.7,4.6-9.1c0.9,1.3,6.4,20.8,8.2,26c1.4,3.9,4.6,14.3,4.6,18.2
			c0.5,3.9,4.6,3.9,5.5,3.9c1.4,0,5.5,10.4,6.4,15.6c0.5,5.2,1.8,6.5,5.5,9.1c4.1,2.6,0,13-0.9,18.2c-0.9,5.2-1.4,6.5-2.7,13
			s0,0,1.4,2.6c1.4,2.6,2.3,6.5,4.6,3.9c2.3-1.3,3.7,0,4.6,5.2c0.9,5.2,2.3,9.1,3.2,14.3c0.9,3.9,0,11.7-1.4,6.5
			c-1.4-3.9-5-1.3-5-1.3s-1.8,5.2-2.3,2.6c-0.5-2.6-1.8-6.5-4.1-3.9c-2.3,1.3-4.1,0-6.4,1.3c-2.3,1.3-3.2-3.9-1.8-6.5
			c1.4-3.9,1.8-16.9,4.6-22.1c3.2-5.2,2.3-13,0-13s-3.2,7.8-4.1,9.1c-1.4,1.3-3.7,1.3-5.5,6.5c-2.3,3.9-7.3,2.6-5,3.9
			c2.3,1.3-3.2,9.1-4.6,9.1c-1.8,0-1.4-11.7-1.4-15.6c0-3.9-2.3,2.6-2.3,2.6s-4.6-7.8-6.4-2.6c-1.8,5.2-4.6,7.8-6.4,13
			c-2.3,5.2-6.9,14.3-6.9,14.3s1.8-2.6,5.5-5.2c3.7-2.6,3.2-1.3,6.4-6.5c3.2-3.9,5.9-6.5,8.2,1.3c2.3,7.8-0.9,13-0.9,13
			s1.4,6.5,2.3,7.8c1.4,1.3,1.4-1.3,3.7-5.2s1.4,6.5,1.8,10.4c0.5,3.9,2.7,3.9,3.7-1.3c1.4-3.9,2.3-7.8,3.2-5.2
			c0.9,2.6,1.8,9.1,2.7,15.6c0.9,6.5-6.4,7.8-7.3,9.1c-1.4,1.3-6.9,3.9-7.8,5.2c-0.9,1.3-3.7,9.1-6.4,9.1c-2.3,0-2.3-10.4-2.3-16.9
			c-0.5-6.5-3.2,1.3-3.7,3.9c-0.5,2.6-3.2,1.3-5,2.6c-2.3,1.3-5.5,6.5-5.5,14.3c0,6.5,2.7,10.4,1.8,14.3c-0.9,3.9-6.4,6.5-8.2,3.9
			c-2.3-1.3-5,2.6-4.1,6.5c0.9,3.9,0.5,9.1-1.8,7.8s-2.3,5.2-1.4,9.1c0.9,3.9-2.7,13-3.7,9.1s-2.7-5.2-2.7,0s0.5,9.1,2.3,16.9
			c1.8,6.5-3.7,11.7-5.9,16.9s-9.1,23.4-12.3,26c-3.2,3.9-3.2,15.6-1.4,19.5c1.4,3.9,3.2,23.4,4.1,28.6c0.9,6.5-0.5,23.4-3.2,23.4
			c-2.7-1.3-1.4-11.7-3.7-14.3c-2.7-2.6-4.1-18.2-4.6-28.6c-0.5-10.4-1.4-3.9-3.2-1.3c-1.8,3.9-3.7-6.5-4.6-9.1
			c-0.9-2.6-5.9,1.3-9.6,1.3c-3.7-1.3-4.6,3.9-4.6,6.5s-0.5,10.4-3.7,5.2c-3.2-5.2-4.1-5.2-7.3-5.2c-3.2,0-6.4-1.3-6.9,2.6
			c-0.5,3.9-4.1,11.7-5.9,13c-2.3,1.3-5.9,10.4-4.1,13c1.8,1.3,1.8,14.3,0.5,20.8c-1.4,6.5-0.9,19.5-0.5,32.5s4.1,20.8,7.3,28.6
			c3.2,7.8,4.6,10.4,7.8,3.9c3.2-6.5,4.6-2.6,5.5-1.3c0.9,1.3,3.2-3.9,2.3-13c-0.9-7.8,1.4-15.6,4.1-14.3c2.7,1.3,6.4-2.6,8.7-1.3
			c2.3,1.3,3.2,18.2,0,24.7c-3.2,6.5-1.4,18.2-2.3,26c-0.5,7.8-3.2,9.1,0,9.1s2.3,1.3,4.6,2.6c2.3,1.3,4.1-5.2,6.4-6.5
			c2.3-1.3,7.3,13,6.4,20.8c-0.9,6.5-1.8,19.5-1.4,31.2c0.5,11.7,1.4,13,2.3,15.6c0.5,3.9,3.2,11.7,5.5,7.8
			c2.7-3.9,5.5-6.5,6.4-10.4c0.9-3.9,6.4,6.5,5.9,9.1c-0.5,2.6,2.3,5.2,3.7,2.6c1.8-2.6,2.7-6.5,4.6-14.3c1.8-6.5,4.6-13,6.4-14.3
			c1.4-1.3,5-11.7,7.3-9.1c2.3,1.3-0.9,10.4-1.4,15.6c-0.5,5.2,0,20.8,1.4,20.8c1.4,1.3,0.5-10.4,2.3-18.2c1.4-7.8,4.6-13,5.9-13
			c1.4,0,2.7,18.2,4.6,13c2.3-5.2,6.4-3.9,7.3,1.3c0.9,5.2,1.8,7.8,1.8,7.8s1.4-3.9,1.4-7.8c0-3.9,4.6-9.1,7.8-3.9
			c3.2,5.2,1.8,6.5,3.2,7.8c1.4,1.3,3.2-11.7,4.1-13c0.9-1.3,0,14.3-2.3,22.1c-2.3,7.8,1.8,5.2,1.8,5.2s0,0,0.9,2.6
			c0.9,2.6,4.1-2.6,5,2.6c1.4,5.2,3.2,6.5,5,16.9c1.8,9.1,4.6,6.5,8.2,5.2c3.7-1.3,8.2,5.2,11.4,16.9c3.7,11.7,3.2,20.8,5.5,20.8
			s3.2,9.1,3.2,13c0,3.9-5.5,11.7-8.2,13c-3.2,1.3-3.2,10.4,1.8,7.8c4.6-2.6,2.7-7.8,5.5-10.4c3.2-2.6,5.9,3.9,3.2,14.3
			c-2.7,10.4-8.2,11.7-3.2,13c4.6,1.3,2.3-1.3,4.6-13c2.7-10.4,2.3-6.5,4.1-6.5c1.8,0,5.5,2.6,7.3,6.5c1.4,3.9,5.5,9.1,7.8,13
			s5.5,2.6,7.3,1.3c1.8-1.3,6.9,5.2,8.7,13c1.8,6.5,6.4,7.8,8.2,10.4c2.3,2.6,5.5,13,5.5,22.1c0.5,9.1-3.2,27.3-3.7,32.5
			c-0.5,3.9-5,20.8-9.6,31.2s-1.8,23.4-1.4,28.6c0.5,5.2-3.2,24.7-2.3,28.6c0.9,3.9-1.4,14.3-3.2,20.8c-1.8,6.5-3.2,18.2-4.1,23.4
			c-1.4,5.2-5,3.9-8.7,6.5c-3.7,2.6-5.5,5.2-5.5,5.2s-6.4,9.1-10.1,15.6c-3.7,6.5,1.4,19.5-0.5,28.6c-1.8,10.4-3.7,9.1-5.5,20.8
			c-1.8,11.7-2.7,1.3-4.1,3.9c-1.4,2.6-2.3,9.1-2.7,16.9c-0.5,6.5-3.2,14.3-7.3,24.7c-4.1,10.4-6.4,9.1-10.5,5.2
			c-4.1-3.9-3.7-33.8-4.1-28.6c-0.5,3.9-0.5,20.8,0.5,23.4c0.5,2.6,2.3,13,3.7,15.6c1.4,2.6,1.4,6.5,0,11.7
			c-1.4,3.9-4.6,20.8-5.5,20.8c-1.4,1.3-10.5,3.9-12.3,1.3c-1.8-2.6-2.7,6.5-2.3,11.7c0.5,5.2,1.8,11.7-1.4,9.1
			c-3.2-1.3-7.8-7.8-7.8-3.9c0,3.9,0.9,14.3,2.7,14.3c1.8,0,3.7-3.9,2.7,2.6c-0.9,6.5-3.2,11.7-4.6,14.3c-1.4,2.6-2.7,11.7-5.5,18.2
			c-3.2,6.5-3.2,9.1-2.3,13c0.5,2.6,5,1.3,5.9,2.6c0.9,1.3-0.9,14.3-2.3,16.9c-1.4,2.6-6.4,15.6-8.2,18.2
			c-2.3,3.9-2.3,14.3-1.4,19.5c0.5,5.2,5.5,18.2,8.2,20.8c2.7,2.6,8.2,1.3,7.8,3.9c-0.5,2.6-7.3,5.2-8.2,6.5
			c-0.9,1.3-5.5,3.9-8.2,3.9c-2.3,0-6.9-6.5-7.8-6.5c-0.9,0,0.5-3.9,3.7-10.4c3.2-6.5-1.4-15.6-1.8-5.2c-0.5,9.1-1.8,13-3.2,13
			c-1.4,0-3.2-6.5-4.1-9.1c-0.9-2.6-4.6-5.2-4.1-15.6c0.5-10.4-1.8-9.1-3.7-14.3c-1.8-3.9,2.3-7.8,1.8-13c-0.5-3.9-3.2-1.3-3.7-7.8
			c-0.5-6.5,2.3-15.6,2.7-18.2c0.5-2.6-1.8-7.8-2.3-13c-0.5-3.9,1.4-9.1,3.2-15.6c2.3-6.5,3.7-15.6,3.7-18.2c0-2.6-1.4-13-1.4-19.5
			s1.4-9.1,2.3-19.5c0.5-9.1-2.3-6.5-2.3-14.3c0-7.8,3.2-5.2,2.3-13c-0.5-7.8,1.4-13,2.3-18.2c0.9-5.2,1.8-14.3,3.2-20.8
			c1.4-6.5-1.4-20.8-1.4-23.4c0-2.6,3.7-6.5,2.3-11.7c-1.8-5.2,0.5-9.1,2.3-14.3c1.8-3.9-0.5-16.9,0.5-32.5
			c0.9-15.6,1.8-42.9,1.8-45.5c0-2.6,0.5-13-1.4-20.8c-1.4-6.5-3.2-13-5.5-15.6s-4.6-10.4-6.4-11.7c-1.4-1.3-8.7-9.1-8.7-20.8
			c0-13-5-22.1-5.5-31.2c-0.5-9.1-5-28.6-5.5-37.7c-0.5-9.1-6.4-11.7-7.3-20.8c-0.9-9.1,3.2-16.9,3.7-23.4
			c0.5-6.5-2.3-19.5-2.3-23.4c-0.5-3.9,4.6-16.9,6.4-19.5c1.8-2.6,3.2-14.3,4.6-14.3s0.9-10.4,2.3-19.5c1.4-9.1-0.5-23.4-1.4-24.7
			c-0.9-1.3-1.8-13-3.2-16.9c-1.4-3.9-4.6-1.3-4.6-1.3s0.5,7.8-2.3,13c-2.7,3.9-3.2-1.3-4.1-3.9c-0.9-2.6-4.1-3.9-5.5-7.8
			c-1.4-3.9-4.1-10.4-5.5-13c-1.8-2.6-4.6-5.2-4.1-15.6c0.5-10.4-4.1-16.9-5-18.2c-1.4-1.3-3.7-6.5-5-3.9c-1.4,2.6-4.1-5.2-6.4-3.9
			c-2.3,1.3-6.4-10.4-7.8-15.6c-1.4-3.9-2.7-10.4-5.5-10.4s-3.2,2.6-4.6,9.1c-1.8,6.5-4.6-3.9-5.5-6.5c-0.9-2.6-3.2-3.9-6.4-3.9
			c-3.2,0-5.5-13-6.9-15.6c-1.4-1.3-9.6-13-11.4-16.9c-2.3-3.9-4.1-16.9-3.2-20.8c0.9-3.9-1.4-15.6-1.4-15.6s-4.1-14.3-5.5-14.3
			c-1.4,0-6.4-24.7-9.1-32.5c-2.7-6.5-9.1-23.4-10.1-31.2c-1.4-7.8-1.4-20.8-4.6-14.3c-3.2,6.5-0.5,13,2.3,19.5
			c3.2,6.5,2.3,14.3,6.4,23.4c4.1,10.4,2.3,19.5,4.1,23.4c1.8,3.9,8.2,15.6,5.5,22.1c-2.7,6.5-5.5-9.1-6.4-9.1
			c-1.4-1.3-4.1-2.6-3.7-7.8s-2.3-10.4-4.6-18.2c-2.3-7.8-3.2-3.9-5.5-3.9c-2.7,0-0.5-9.1,1.4-14.3c1.4-3.9-1.4-10.4-3.2-13
			c-1.8-1.3-4.1-22.1-6.4-35.1s-4.1-18.2-6.9-18.2c-2.7,1.3-3.7-9.1-5.5-13c-1.8-3.9-4.6-20.8-7.3-28.6c-3.2-9.1-5.5-26-5.5-35.1
			c0.5-9.1,1.4-35.1,1.4-40.3c0-6.5-1.4-20.8-1.4-23.4c0-2.6-1.4-6.5-2.7-7.8c-1.4-1.3-4.6-13-7.3-13c-2.7,0-4.6-9.1-3.7-15.6
			c0.9-6.5-2.3-16.9-3.7-16.9c-1.4,0-3.7-11.7-4.6-18.2c-0.9-6.5-3.2-6.5-2.7-2.6c0.5,3.9-0.5,10.4,1.4,11.7
			c1.4,1.3,2.7,15.6,1.4,18.2c-1.4,1.3-3.7-5.2-6.9-9.1c-3.2-3.9-1.8-22.1-1.8-26c0-3.9-4.1-9.1-5.9-9.1c-1.8,0-3.7,1.3-3.7-10.4
			c-0.5-11.7-5.5-18.2-7.3-18.2s-11.4-11.7-14.2-11.7c-3.2,0-8.2-7.8-10.1-3.9c-1.8,3.9-5-6.5-6.9-6.5c-1.8,0-1.8,3.9-5,9.1
			c-3.2,6.5-4.6,2.6-6.4,6.5c-1.8,3.9-6.4,9.1-4.6-1.3c1.4-10.4,1.4-13-0.9-9.1c-2.3,2.6-3.2,9.1-3.2,14.3c0,3.9-4.1,11.7-4.1,11.7
			s3.7,1.3,5.5,0c1.4-1.3,0.5,10.4-1.4,13c-1.4,2.6-3.7,9.1-5.9,7.8s-2.7-7.8-4.1-9.1c-1.4-1.3-4.6,6.5-10.1,14.3
			c-5.5,7.8-4.6,1.3-6.4,3.9c-2.3,2.6-9.6,10.4-12.3,11.7c-2.7,1.3-2.3-9.1-0.5-9.1c1.4,0,7.3-7.8,8.7-10.4c1.4-2.6,8.2-9.1,10.1-13
			c1.8-2.6,4.6-6.5,3.7-13c-1.4-5.2-5,2.6-5,2.6s-3.2-7.8-3.7-10.4c-0.9-1.3-2.7,6.5-2.7,6.5s-3.7-1.3-3.2-11.7
			c0.9-9.1-2.3-9.1-2.7-5.2c-0.5,3.9-5.5,11.7-5.9,6.5c-0.5-3.9-4.6-13-5.9-20.8c-1.4-6.5,1.4-7.8,3.7-14.3
			c2.7-6.5,6.4-7.8,10.1-6.5c3.2,1.3,5.5-10.4,4.1-11.7c-1.4-1.3-3.2-1.3-5,2.6c-1.8,3.9-6.4,3.9-6.4,3.9s-6.4,0-9.1-5.2
			c-2.7-5.2-4.1-13-4.1-13s5.5-6.5,9.6-6.5L38,223.2z M311.6,487.8c3.2,1.3,3.2-11.7,2.7-15.6c-0.5-3.9-0.5-18.2,0.9-20.8
			c1.4-2.6,2.7-10.4,5.9-11.7c3.2-1.3,5.5,6.5,5,14.3c-0.5,7.8,0.5,15.6,1.8,15.6s4.6-6.5,3.7-11.7c-1.4-5.2,0.9-23.4,0.9-16.9
			c0,6.5,2.3,10.4,4.1,9.1c1.4-1.3-1.4-16.9-3.7-18.2s-6.4-1.3-7.3,0c-0.9,1.3-5.9-3.9-8.2-3.9c-2.3,1.3-5.9,3.9-7.3,10.4
			c-1.4,6.5,0,20.8-0.5,26C309.3,470.9,308.9,486.5,311.6,487.8z M328.5,487.8c0.5,3.9,4.1,1.3,5.5-3.9c1.8-5.2,5.5-6.5,6.9-11.7
			c1.4-3.9,2.3-3.9,5-6.5c3.2-3.9,5.5-3.9,4.1-9.1c-1.4-3.9-7.3,0-8.2-1.3s-7.3,19.5-7.3,19.5s-5.5,6.5-5.5,9.1
			C328.5,485.2,327.6,482.6,328.5,487.8z M297.4,418.9c0,5.2,3.2,5.2,4.6,2.6c1.8-2.6,4.6-3.9,5.5-5.2c1.4-1.3,0.5,3.9,3.2,3.9
			s5.9,2.6,6.9,1.3c0.9-1.3,3.7-11.7,1.4-13s-5.5-6.5-7.3-13c-1.8-5.2-5.9,6.5-10.1,11.7C298.3,413.7,297.4,412.4,297.4,418.9z
			 M175,390.3c-2.3-2.6,0.9,10.4,2.3,13c1.4,2.6,4.6,2.6,4.6,6.5c0.5,3.9,1.4,15.6,2.7,14.3c1.4-1.3,1.4-10.4,0.5-14.3
			c-1.4-3.9-5.5-14.3-6.4-14.3C177.7,395.5,175.9,390.3,175,390.3z"/>
		<path class="st1" d="M322.1,268.1c-0.9,2.6,3.7,6.5,4.6,2.6C327.6,268.1,324.4,261.6,322.1,268.1z"/>
		<path class="st1" d="M334,273.3c-3.2,2.6,0,9.1,1.8,6.5C337.6,278.5,336.7,270.7,334,273.3z"/>
		<path class="st1" d="M185.5,130.3c-0.5,3.9,1.8,3.9,4.6,3.9s6.9,0,7.8-1.3c1.4-1.3,7.3-6.5,6.9,0c0,5.2,2.3,13,3.7,13
			c1.4-1.3,4.1-9.1,5.5-6.5c1.4,2.6,1.8,10.4,3.2,11.7c1.4,1.3,5,1.3,6.9,0c1.8-1.3,6.9-1.3,9.1,0c2.3,1.3,8.7,5.2,9.1,1.3
			c0.5-3.9,2.3-3.9,2.7-7.8c0-3.9,1.4-14.3,1.4-14.3s-1.4-6.5-3.2-3.9c-1.8,2.6-2.7,5.2-4.6,3.9c-1.8-1.3-1.8-10.4-5-9.1
			c-3.2,1.3-3.7,6.5-4.6,9.1c-0.9,2.6-3.2,3.9-4.1,2.6c-0.9-1.3-5.5-9.1-5.5-9.1s-9.6-1.3-10.1-5.2c-0.5-3.9-1.8-9.1-6.4-7.8
			s-11.9,9.1-13.2,9.1c-1.4,0,1.4,6.5,0,6.5C187.8,125.1,186,123.8,185.5,130.3z"/>
		<path class="st1" d="M219.3,105.6c-2.3,2.6-1.8,9.1,0,9.1c1.4,0,5.5-3.9,6.9-1.3c1.4,2.6,4.1,0,4.1-2.6s1.4-14.3-1.4-15.6
			C226.2,95.2,223,101.7,219.3,105.6z"/>
		<path class="st1" d="M246.3,97.8c-0.5,3.9,1.4,7.8,4.1,7.8c2.3,0,7.8-3.9,7.8,0c0.5,2.6,0,5.2,2.7,6.5s4.1,2.6,5.5,2.6
			c1.4,0,0.9-7.8-0.5-13c-1.4-5.2-0.9-5.2-4.6-7.8c-3.7-2.6-7.3-2.6-9.6-2.6C249.5,91.3,246.7,90,246.3,97.8z"/>
		<path class="st1" d="M249.9,125.1c-1.4,3.9,0,15.6-0.5,16.9c-0.5,1.3,0,6.5,1.8,5.2c1.4-1.3,2.3-13,3.7-13c1.4,0,7.3-3.9,8.2,2.6
			c0.9,6.5,0.9,3.9,3.7,3.9c2.7,0,5-7.8,5-11.7c0-2.6-1.4-9.1-5-7.8C263.2,123.8,251.7,121.2,249.9,125.1z"/>
		<path class="st1" d="M257.2,156.3c-1.4,2.6-0.5,11.7,1.4,11.7c2.3,0,5.9-3.9,6.4,0c0.5,3.9,1.8,19.5,5.5,14.3
			c3.7-5.2,3.2-10.4,4.6-10.4c0.9,0,0-13-1.8-16.9c-1.4-2.6-6.9-1.3-8.2,0C263.6,156.3,259.5,152.4,257.2,156.3z"/>
		<path class="st1" d="M280.1,161.5c0.5,1.3,1.8,5.2,4.6,3.9c2.7-1.3,6.4-2.6,8.2-2.6c1.8,0,2.3-9.1,0-10.4c-1.8,0-3.7-6.5-5.5-3.9
			C285.6,149.8,279.2,157.6,280.1,161.5z"/>
		<path class="st1" d="M279.2,136.8c-0.9,6.5,7.8,9.1,6.9,2.6C285.1,131.6,280.5,130.3,279.2,136.8z"/>
		<path class="st1" d="M281,106.4c-2.7-1.3-6.9-3.9-6.9-6.5c0-1.3-1.4,7.8,0.9,11.7c2.3,2.6,5.9,7.8,8.2,11.7
			c2.7,2.6,7.8,3.9,9.1,9.1c1.4,6.5,6.9,10.4,6.9,10.4l6.4,1.3c0,0,4.6-2.6,9.1-1.3c4.6,1.3,11.4,2.6,15.1,2.6
			c3.7,0,4.6-3.9,4.6-6.5c0.5-2.6-6.9-6.5-8.7-6.5s-11.9,0-15.1,0c-3.2,0-6.9,0-9.1,0s-4.1-5.2-5.9-7.8c-1.8-2.6-5.9-13-8.2-13
			C285.6,110.3,286,110.3,281,106.4z"/>
		<path class="st1" d="M535.9,229.1c-0.9,3.9-2.3,3.9-0.9,13c1.8,7.8,2.7,13,4.1,13c1.4,0,6.4-1.3,6.9,3.9c0.5,5.2,2.3,9.1,5.5,6.5
			c3.2-2.6,5.9-5.2,6.9-7.8c0.9-3.9,6.4-3.9,6.4-3.9s4.6-10.4,2.7-14.3c-1.8-3.9-5.5-6.5-7.3-7.8c-1.8,0-3.7,3.9-7.8,3.9
			c-4.1,0-6.4,5.2-8.2,0C543.2,229.1,536.8,226.5,535.9,229.1z"/>
		<path class="st1" d="M360.9,111.9c2.3,5.2,3.7,1.3,6.9,3.9c3.2,1.3,5.5,14.3,6.9,16.9c1.4,1.3,3.7,0,4.6-3.9
			c0.9-3.9,2.3-15.6,2.3-15.6s0,11.7,2.3,14.3s8.2-1.3,10.1-1.3c1.4,0,11,3.9,13.7,7.8c2.7,3.9,9.1,6.5,11,13
			c1.8,7.8,1.8,33.8,3.2,37.7c0.9,2.6,4.6-9.1,5-13c0.9-2.6,5-1.3,6.4,2.6c1.4,3.9,4.6,14.3,4.6,18.2c0,3.9-0.9,10.4-1.8,7.8
			c-1.4-2.6-3.2-1.3-2.3-6.5s1.4-14.3-0.5-14.3c-1.4,0-3.2,0-3.2,0s-3.2-2.6-5,6.5c-1.8,9.1-0.5,18.2,0.9,18.2s4.6,0,4.6,2.6
			s-3.2,9.1-3.2,13c0,3.9,2.7,18.2,3.7,20.8c0.9,2.6,5,6.5,5.9,6.5c1.4,0-2.7,1.3-1.8,5.2c0.9,3.9,2.7,14.3,4.6,16.9
			c2.3,2.6,8.2,13,9.1,18.2c0.9,5.2,5.5-3.9,6.4-3.9s0.9,13,3.7,13c2.7,0,3.7-1.3,6.4-6.5c2.3-5.2,1.8-13,1.8-18.2
			c0-5.2,0-9.1,2.7-7.8c2.7,1.3,4.1-1.3,3.7-6.5c0-6.5-2.3-13,1.8-14.3c4.1-1.3,6.4-9.1,9.1-9.1c2.7,0,9.6,2.6,10.5,0
			s4.1-16.9,6.4-16.9c2.3,0,7.8-1.3,13.2-3.9c5-2.6,11-11.7,12.3-10.4c1.8,0,5.9,0,4.6-2.6c-1.4-3.9-3.2-11.7-6.4-11.7s0-13,0.5-13
			c0.9,0,4.6,1.3,4.6,7.8c0,6.5,1.4,13,5,11.7c4.1-2.6,3.2-11.7,2.7-13c-0.9-2.6-1.4-7.8-2.3-13c-0.9-3.9-0.5-9.1,3.7-10.4
			c4.1-1.3,10.1,5.2,9.6-5.2c0-9.1,0-19.5,1.4-24.7c1.4-5.2,3.7-9.1,2.3-10.4c-1.4-1.3-3.2,2.6-4.6-6.5s1.4-15.6,2.7-19.5
			c1.4-3.9,10.1-26,14.6-29.9s7.8-16.9,4.6-19.5c-3.2-2.6-9.6-7.8-13.7,1.3c-4.1,9.1-6.4,18.2-11.4,15.6c-4.6-2.6-4.1,1.3-4.6-15.6
			c0-16.9-5.5-45.5-9.6-44.2c-4.1,1.3-4.1,1.3-4.1,1.3S453.2,0,450.5,7.8c-2.3,6.5-4.6,24.7-6.9,19.5s-2.7-16.9-5.5-11.7
			c-2.7,5.2,0,16.9-2.7,24.7c-2.3,7.8-9.1,6.5-11,3.9c-1.8-2.6-4.1-5.2-11.9-3.9c-7.8,1.3-16.9,7.8-15.1,15.6
			c1.8,6.5-3.7,11.7-5,7.8c-1.4-3.9-7.8,3.9-7.3,11.7c0.5,6.5-0.9,15.6-4.6,13c-3.2-1.3-5.9,3.9-5.9,10.4c0,6.5-7.8,10.4-8.2,10.4
			C367.3,105.4,357.7,105.4,360.9,111.9z"/>
		<path class="st1" d="M320.3,685.5c-0.5,9.1,2.7,6.5,6.4,6.5c3.7,0,10.1-1.3,11,2.6c1.4,3.9,6.4,11.7,8.2,15.6
			c1.4,3.9,6.4,3.9,6.4,1.3c0.5-3.9-3.2-13-5.5-13c-2.3,1.3-6.4-6.5-9.1-13c-2.3-6.5-6.9-6.5-8.7-6.5
			C327.6,679,320.3,685.5,320.3,685.5z"/>
		<path class="st1" d="M342.2,660.8c-2.7,1.3-2.3,10.4,1.4,9.1C346.3,668.6,344.5,659.5,342.2,660.8z"/>
		<path class="st1" d="M343.6,734.9c-2.7,1.3-2.3,16.9,1.4,14.3C348.1,745.3,346.3,732.3,343.6,734.9z"/>
		<path class="st1" d="M382.9,724.5c-2.7,1.3-2.3,16.9,1.4,14.3C387.4,736.2,385.6,723.2,382.9,724.5z"/>
		<path class="st1" d="M355.9,728.4c0,0,3.2,1.3,5.5,1.3s3.2,3.9,5,6.5c1.8,2.6,5-3.9,6.4-3.9c1.4,0,2.7,10.4,3.2-1.3
			c0.5-11.7-3.7-16.9-5.9-18.2c-2.3-1.3-5,0-6.9,1.3C360.9,715.4,355.9,728.4,355.9,728.4z"/>
		<path class="st1" d="M605.8,554.2c1.4-1.3,5.9-6.5,8.7-9.1c2.7-3.9,11.4-13,12.3-13c1.4,0,16,1.3,18.3-1.3s7.3-6.5,10.1,13
			c2.3,19.5,0,13-2.3,15.6c-2.3,3.9,0.9,11.7,2.3,11.7s5.5,11.7,7.3,11.7c2.3,0,7.3,6.5,7.3,6.5s5,11.7,7.8,11.7
			c2.7,0,4.6,6.5,7.8-2.6c3.2-9.1,6.9-19.5,10.1-18.2c3.2,1.3,6.4,9.1,10.1,9.1c4.1,0,11-1.3,12.3,2.6c1.4,3.9-8.2,19.5-7.3,23.4
			c0.5,3.9,1.8,2.6,4.6-7.8c3.2-10.4,7.3-10.4,11-13c3.7-2.6,5.5,14.3,5.9,19.5s3.2,15.6,5.5,26c2.3,11.7,4.1,27.3,6.4,40.3
			s3.7,31.2,6.4,39c2.3,7.8,4.6,20.8,5.9,32.5c1.4,10.4,5,20.8,6.4,22.1c1.4,1.3,6.4,20.8,6.4,26c0.5,5.2-1.8,16.9,3.2,18.2
			c4.6,1.3,9.1-6.5,10.5-7.8c1.4-1.3,13.2-15.6,14.6-9.1c1.4,5.2-2.3,28.6-2.3,35.1c-0.5,6.5-9.1,36.4-9.1,44.2
			c-0.5,7.8-5.5,22.1-8.7,23.4c-3.2,1.3-10.1,26-12.3,35.1c-2.3,7.8-6.4,26-8.2,27.3c-1.8,1.3-2.3,20.8-1.4,23.4
			c0.9,3.9,0.5,24.7,3.2,32.5c2.7,6.5,3.7,13,2.3,18.2c-1.4,6.5,0.5,20.8,0,32.5s-3.7,26-5,29.9s-8.7,10.4-11,18.2
			c-2.3,9.1-4.6,16.9-4.1,20.8c0.5,3.9,3.2,26,2.7,32.5c-0.5,5.2-5.9,13-8.2,15.6c-2.3,3.9-1.4,10.4-0.5,18.2
			c0.5,6.5-4.1,18.2-6.4,24.7c-2.3,6.5-7.8,27.3-11.4,35.1s-8.2,14.3-12.3,13c-3.7-1.3-11.4,0-12.8,3.9c-1.4,3.9-3.7,3.9-6.4-1.3
			c-3.2-3.9-3.2-10.4-3.7-20.8c-0.5-9.1-1.4-15.6-1.4-15.6s-0.9-15.6-3.7-22.1c-2.7-6.5-3.7-15.6-5-20.8s-0.5-16.9-0.9-26
			c-0.5-10.4-2.3-24.7-3.7-31.2c-1.4-6.5-4.6-23.4-5.5-28.6c-1.4-6.5-2.7-18.2-2.3-36.4c0.5-18.2,4.6-27.3,6.9-32.5s0.5-13-1.8-23.4
			c-2.3-10.4,0.5-28.6-1.4-35.1c-1.8-6.5-7.8-39-11-44.2s-3.7-6.5-1.8-19.5c1.8-13,0-24.7,3.2-32.5c3.2-7.8,1.4-13-1.8-18.2
			c-3.2-5.2-2.3-7.8-4.6-1.3c-2.7,6.5-6.4,9.1-8.2,3.9c-2.3-6.5-1.4-15.6-5.5-23.4c-3.7-6.5-9.1,2.6-10.5,3.9
			c-1.4,1.3-5.5,9.1-10.1,11.7c-4.1,1.3-7.3-1.3-11.4-1.3s-7.8,1.3-8.2,6.5c-0.5,6.5-1.4,9.1-4.1,3.9c-2.7-6.5-8.2-20.8-8.2-20.8
			s-7.3-18.2-9.1-28.6c-1.4-10.4-4.1-18.2-10.1-26c-5.5-7.8-2.3-16.9-3.2-26c-0.5-9.1-3.7-13-2.3-13c1.4-1.3,1.4-6.5,4.6-19.5
			s1.4-26,0.5-32.5c-0.5-6.5-3.7-18.2-0.5-28.6c3.2-11.7,5.9-36.4,8.2-42.9s8.2-16.9,11.4-20.8c3.2-3.9,1.4-15.6,3.2-28.6
			c1.8-13,4.6-19.5,5.5-19.5s4.1-9.1,7.8-15.6C598.5,551.6,604.9,556.8,605.8,554.2z M736.4,918.2c-0.9-3.9-5.9-2.6-6.9,1.3
			c-0.9,3.9-1.8,24.7,0.9,26C733.2,948.1,737.8,926,736.4,918.2z"/>
		<path class="st1" d="M790.8,1049.5c-3.7-2.6-4.1,11.7-7.3,20.8c-3.2,9.1-6.4,18.2-7.3,16.9c-1.4-1.3-7.8,6.5-5.5,19.5
			c2.3,13,1.8,26-0.5,32.5c-2.3,6.5,1.8,23.4,1.4,33.8c-0.5,9.1,0.9,15.6,5,15.6c4.1,0,5.5-3.9,7.3-15.6c1.8-11.7,2.3-23.4,3.7-32.5
			c1.8-9.1,3.2-29.9,4.1-35.1c0.9-5.2,2.7-22.1,2.3-32.5C794,1063.8,792.6,1050.8,790.8,1049.5z"/>
		<path class="st1" d="M899.1,822c-1.8,2.6-3.7,32.5,0,36.4c3.7,3.9,5.5-14.3,4.6-18.2C902.3,835,901.8,818.1,899.1,822z"/>
		<path class="st1" d="M647.8,491.7c-2.7,0-4.1,13-2.3,18.2c1.8,3.9,3.7,3.9,5-2.6C651.9,500.8,649.2,491.7,647.8,491.7z"/>
		<path class="st1" d="M625,506c-0.9,3.9,2.3,3.9,3.2,1.3C628.6,503.4,627.3,495.6,625,506z"/>
		<path class="st1" d="M660.6,521.6c-0.9,1.3,1.8,7.8,3.2,9.1c1.4,1.3,2.7,6.5,4.1,7.8c1.4,1.3,5,0,3.7-9.1
			c-1.4-9.1-3.7-9.1-4.6-9.1C666.1,521.6,662,517.7,660.6,521.6z"/>
		<path class="st1" d="M589.3,342.2c-2.7,1.3-3.2,10.4-4.6,10.4c-1.8,0-4.1,1.3-3.2,7.8c0.5,6.5,1.8,10.4,0,13
			c-1.8,2.6,0.5,13,2.7,14.3c2.3,1.3,5-3.9,7.3-6.5c2.3-2.6,5-7.8,5-15.6s-0.5-15.6-1.8-18.2C593,342.2,591.2,340.9,589.3,342.2z"/>
		<path class="st1" d="M592.5,316.2c-2.3,2.6-1.4,11.7-0.5,15.6c1.4,3.9,3.2,14.3,6.4,18.2c3.2,3.9,9.1,6.5,6.9,10.4
			s-6.4,13-7.3,18.2c-0.5,5.2,5,10.4,5,10.4s-1.8,6.5-0.5,7.8c1.4,1.3,2.3-6.5,4.6-6.5s7.3,3.9,9.6,3.9s6.4-9.1,5.9-15.6
			c-0.5-6.5-3.2-15.6-5.9-19.5s-5.5-19.5-7.3-23.4c-1.8-3.9,1.8-13-0.5-18.2c-2.3-6.5-3.7-5.2-5.9-10.4c-2.3-3.9-4.6,1.3-5.9,6.5
			C596.2,320.1,594.4,313.6,592.5,316.2z"/>
		<path class="st1" d="M612.2,437.7c-0.5-7.8-6.4-15.6-10.1-16.9c-3.7-1.3-3.2-6.5,0.9-7.8c4.1-1.3,4.1-5.2,7.3-6.5
			c3.7-1.3,7.3-3.9,10.1-5.2c2.7-1.3,2.7-7.8,2.7-13c0-5.2,7.3-6.5,7.3-6.5s4.1-11.7,6.4-16.9c2.3-5.2,6.4-3.9,10.1-1.3
			c3.2,2.6-0.5-6.5-1.4-10.4c-1.4-3.9-0.5-14.3,0.5-19.5c0.9-5.2,6.4-7.8,7.8-6.5c1.4,1.3,0,9.1,0.5,16.9c0.5,6.5,2.7,11.7,2.7,11.7
			l2.3-1.3c0,0,0,0,3.7,0c4.1,0,2.7,6.5,5.5,3.9c3.2-2.6,6.4-6.5,7.8-7.8c1.4-1.3,4.6-1.3,9.1,2.6c4.6,3.9,2.3-7.8,3.2-15.6
			c0.9-6.5,2.7-19.5,5.5-18.2c3.2,1.3,5.5,6.5,7.8,1.3c2.3-3.9-4.6-10.4-4.6-13s5.5-2.6,11-3.9c5-1.3,8.2,0,10.5-1.3
			s-1.8-14.3-2.7-14.3c-0.9,0-6.9,1.3-10.1,1.3c-3.2-1.3-6.4,5.2-9.1,6.5s-3.2-10.4-4.6-15.6c-1.4-5.2-2.3-15.6,1.8-20.8
			s11-16.9,11.9-22.1c1.4-5.2-4.6-3.9-10.5-3.9c-5.5,1.3,0.9,5.2-4.6,20.8s-8.2,5.2-12.3,15.6c-4.1,10.4-1.4,11.7,2.7,15.6
			c3.7,3.9,0.5,14.3-0.5,16.9c-0.9,2.6-5.5,13-4.6,19.5c0.5,6.5-3.2,11.7-3.2,11.7s-11,6.5-13.2,7.8c-2.3,1.3-2.7-3.9-2.3-9.1
			c0.5-5.2-2.3-18.2-2.7-26s-4.6,3.9-5,9.1c-0.5,5.2-5.9,6.5-9.1,2.6c-3.2-3.9-5-16.9-4.6-19.5c0.5-2.6-1.8-15.6-1.8-19.5
			c0-3.9,6.4-18.2,12.3-20.8c5.5-3.9,12.8-23.4,16.9-32.5s5.5-19.5,6.9-22.1c1.4-2.6,21.9-18.2,29.2-22.1c7.3-3.9,23.8,3.9,26.5,6.5
			c2.7,1.3,4.1,3.9,11,11.7c6.4,6.5,12.3,6.5,16.4,9.1c4.1,1.3,6.9,5.2,9.6,9.1c2.7,3.9,0,6.5-6.4,13c-6.4,6.5-11,3.9-14.6,1.3
			c-3.7-3.9-5.5-3.9-3.2,1.3c2.7,5.2,1.8,7.8,2.3,15.6c0.5,7.8,4.6,1.3,5.5-1.3c0.9-1.3,0.9-5.2,4.1,1.3s4.6,2.6,5.9,1.3
			c1.4-1.3,0.5-10.4,1.4-14.3c0.9-3.9,4.6-3.9,5.5-5.2c0.9-1.3,3.2-3.9,4.6-5.2c1.8-1.3,1.4,7.8,3.2,10.4c1.8,2.6,0.9-11.7,0.5-15.6
			c-0.5-3.9-1.4-13-0.5-15.6s7.3-3.9,8.7-1.3c1.4,3.9-2.3,14.3-1.4,20.8c0.9,6.5,3.2-3.9,4.6-9.1c1.4-5.2,4.6,0,10.1-2.6
			c5.5-2.6,4.1-11.7,10.1-6.5c5.5,5.2,4.1,5.2,5.9,0c1.8-5.2,5,1.3,8.2-2.6c3.2-3.9,3.2,0,5.5,3.9s5.5-6.5,6.4-10.4
			c1.4-3.9,5.9-3.9,8.2-2.6c2.3,1.3,5.5,5.2,7.8,5.2s6.4,5.2,6.4,5.2s5,5.2,6.4,1.3c1.4-3.9-0.5-7.8-4.6-14.3
			c-4.6-6.5-2.7-16.9,0-18.2c2.7-1.3,2.3-5.2,4.6-9.1c2.3-3.9,4.6-16.9,7.3-14.3c2.3,2.6,4.6,7.8,7.3,13c2.7,3.9,0.5,10.4-0.5,15.6
			c-0.5,3.9,0.5,20.8,1.4,23.4c0.9,2.6-0.9,13-3.2,16.9c-2.3,3.9-5.5,14.3-4.6,15.6s8.2-7.8,8.2-7.8s4.6-15.6,6.4-20.8
			c2.3-3.9,4.1-3.9,4.6,1.3s4.1,6.5,6.9,3.9c3.2-3.9,0-6.5-0.5-14.3c-0.5-7.8-5-3.9-7.8-1.3c-2.7,1.3-4.6,10.4-5.5,10.4
			s-0.9-5.2-0.5-13c0.5-7.8-1.4-13-1.4-16.9c0-3.9,0.9-3.9,3.2-13s2.3,6.5,2.3,14.3c0.5,7.8,2.3,3.9,4.1,3.9
			c1.8-1.3,0.9-11.7,2.3-16.9c1.4-5.2,4.6-6.5,7.8,1.3s2.7,5.2,6.4,9.1c3.7,3.9,4.1,3.9,4.1,13c0.5,7.8,2.7,9.1,4.1,6.5
			c1.4-2.6,0.5-13-0.5-16.9c-0.9-3.9-8.2-9.1-10.5-15.6s1.4-6.5,4.1-6.5c2.7,0,7.8,1.3,7.8,1.3s5.5-3.9,8.7-10.4
			c3.2-6.5,5-6.5,8.2-9.1c3.2-3.9,7.8-3.9,11-1.3c3.2,1.3,5-3.9,8.2-6.5c3.2-3.9,6.4-6.5,7.3-3.9c0.9,1.3,8.2,6.5,9.6,6.5
			c1.4-1.3,4.1-3.9,8.7-9.1c4.6-5.2,2.7-3.9,4.6-6.5c1.8-2.6,4.6-3.9,11,3.9c6.4,7.8,0,0,1.8,5.2c1.8,5.2,2.7-1.3,6.9-2.6
			c4.1-1.3,6.9,0,9.6,1.3c2.7,1.3,8.7,1.3,11.4,6.5c2.7,5.2-1.8,16.9-3.2,20.8c-1.4,3.9,2.3,6.5,3.7,5.2s11,0,15.5,1.3
			c4.6,1.3,6.4,7.8,8.2,7.8c2.3,0,5.5-2.6,6.4-6.5c1.4-3.9,8.7-5.2,11-6.5c2.3-1.3,9.1,0,10.1,1.3c0.9,1.3,1.8,10.4,1.8,18.2
			c0,6.5,2.7,13,4.6,14.3c2.3,1.3,5.9-10.4,7.3-13c1.4-1.3,3.2,7.8,4.1,5.2c0.9-2.6,8.2,1.3,11.4-3.9c3.2-3.9,4.6,0,6.4-1.3
			c1.4-1.3,3.7-11.7,3.7-15.6c0-3.9,1.4-6.5,0-11.7c-1.4-5.2-5.5-1.3-10.1-5.2s-0.5-9.1,1.4-13c1.8-3.9,4.6,0,7.8,1.3
			c3.2,1.3,1.8-2.6,3.2-2.6c1.4,0,6.9,3.9,10.1,3.9c3.2,0,5.5,9.1,5.5,9.1s-8.2,6.5-10.1,6.5s-0.5,6.5,0.9,6.5
			c1.4,0,3.7,2.6,5.5,6.5c2.3,3.9,11.4,0,12.3,0c1.4,0,4.6,3.9,8.2,10.4c3.7,6.5,5.9,9.1,5.9,9.1s5,0,10.1-1.3
			c5-1.3,11.9-1.3,12.8,1.3c1.4,2.6,4.6,5.2,6.9,11.7c2.3,6.5,4.1,3.9,7.3,2.6c3.2-1.3,6.4-2.6,9.6-2.6c3.2,0,12.8-1.3,14.6,6.5
			c1.8,7.8,4.1,6.5,4.1,6.5s2.7-14.3,3.7-16.9c1.4-2.6,5,1.3,7.3,5.2c2.3,3.9,14.2,0,16.9,1.3c3.2,1.3,7.3,10.4,4.6,18.2
			c-2.3,6.5,1.8,19.5,0.9,26s-3.2,7.8-5.5,9.1c-2.3,1.3,2.3,10.4,4.6,16.9c2.3,6.5-1.4,7.8-3.2,5.2c-2.3-2.6-7.3,1.3-14.2,6.5
			c-6.9,5.2-9.6,15.6-16.9,16.9c-7.3,1.3-4.1-1.3-13.2-1.3s-8.7,6.5-10.5,15.6c-1.8,9.1,0.9,6.5,0,14.3c-0.9,6.5-2.3,15.6-2.3,20.8
			c0,6.5-5.5,6.5-7.3,13c-1.8,5.2-4.6,18.2-10.1,28.6c-5,9.1-8.7,24.7-8.7,24.7s0.9-15.6,3.2-26c2.3-10.4-2.7-26-3.2-37.7
			c-0.5-11.7,1.4-15.6,4.6-26s10.1-14.3,13.2-19.5c3.2-5.2,15.1-29.9,15.1-29.9s-2.3,3.9-5.5,7.8c-3.2,3.9-6.4,10.4-9.1,10.4
			c-2.3,0-1.4-6.5-1.8-14.3c-0.5-6.5-5.9-1.3-8.2,5.2c-2.3,6.5-5.9,11.7-10.1,20.8c-4.1,9.1-3.2,7.8-5.5,9.1
			c-2.7,1.3-7.3-3.9-9.1-9.1c-2.3-3.9-4.1,3.9-11,3.9c-6.4,1.3-14.2-1.3-16.9-1.3c-3.2,1.3-10.5,26-15.1,31.2
			c-4.6,3.9-10.1,13-8.7,18.2c1.4,6.5,4.1-5.2,5.5-5.2c1.4,0-0.9,13,1.8,13c2.7,0,4.1-3.9,6.9-5.2c2.7-1.3,4.6,6.5,5.5,15.6
			c0.5,9.1-1.4,18.2-2.3,29.9c-1.4,13-3.2,24.7-7.8,35.1c-4.6,10.4-12.3,29.9-14.2,35.1c-1.4,5.2-6.9,1.3-7.8-2.6
			c-0.9-3.9-3.7,7.8-5.5,10.4c-2.3,2.6-4.1,7.8-4.1,15.6c0,6.5-5.9,6.5-5.9,11.7c0,3.9,3.7,16.9,5,23.4c1.4,6.5-0.5,26-3.2,29.9
			c-2.7,3.9-3.7,9.1-7.3,3.9c-3.7-6.5-0.5-10.4,0.9-19.5c1.4-9.1-1.4-15.6-2.3-18.2c-0.5-2.6-3.2,5.2-4.1,6.5
			c-1.4,1.3-1.4-7.8-0.5-13c0.9-5.2-0.5-16.9-1.4-18.2s-6.4,13-9.1,13c-2.3-1.3-0.5-16.9,0.5-20.8c0.9-3.9-1.8-1.3-3.7,3.9
			c-1.8,3.9-5.5,14.3-7.3,13c-1.4-1.3-4.6,6.5-2.3,13c2.3,5.2,3.2,9.1,4.6,10.4c1.4,1.3,5.5-1.3,6.9-2.6c1.4-1.3,4.6,6.5,1.4,14.3
			s-9.1,9.1-8.2,14.3c1.4,5.2,4.1,13,6.4,26c2.3,13,1.4,26,2.3,35.1c0.5,9.1-8.7,29.9-11.4,36.4c-2.7,6.5-5.5,20.8-10.1,28.6
			c-4.6,6.5-14.2,13-15.5,10.4c-1.4-2.6-5.5,3.9-5.5,14.3c0.5,9.1,2.3,9.1,2.3,11.7c0,2.6-3.2,13-4.1,18.2c-1.4,3.9-5.5,0-4.6-13
			c0.5-13,3.7-18.2,3.2-24.7c-0.5-6.5-3.2-9.1-4.6-3.9c-1.8,5.2-7.3,20.8-7.3,20.8s2.3,15.6,4.6,22.1c2.7,6.5,4.6,15.6,8.2,28.6
			s0.9,24.7,0,35.1c-0.9,9.1-3.7,9.1-6.4,11.7c-2.3,1.3-3.2,3.9-4.1,9.1c-0.9,5.2-5,11.7-5.5,6.5c-0.5-3.9-4.6-15.6-4.6-15.6
			s-2.7-15.6-6.4-23.4c-3.7-7.8-5.5-11.7-5.5-3.9s-2.3,23.4-2.3,28.6c0,5.2-5.5-15.6-5.5-24.7c0-9.1-0.9-23.4-0.5-37.7
			c0.5-14.3-6.4-1.3-6.4-1.3s-3.2,15.6-4.6,15.6s-2.3-13-1.8-23.4s-1.4-20.8-2.3-23.4c-0.9-3.9-5.9-18.2-6.9-27.3s-2.7-6.5-4.6-1.3
			c-1.8,5.2-1.4,5.2-8.2,5.2c-7.3,0-6.9,13-10.5,20.8c-3.7,7.8-6.4,23.4-11,28.6c-4.1,5.2-5.9,10.4-5.9,16.9c0,6.5,0,22.1-0.9,31.2
			c-0.9,9.1-1.4,20.8-3.7,29.9c-2.3,9.1-4.1,23.4-5.5,23.4c-1.8,0-2.3-13-2.3-20.8s-5-26-6.4-32.5c-1.4-6.5-5.5-33.8-5.5-33.8
			s-3.7-28.6-3.2-37.7c0.5-7.8,0.5-29.9,0.5-29.9s-4.6,14.3-6.9,13c-2.3-1.3-4.1-10.4-3.7-22.1c0.5-11.7-3.7-10.4-5.5-13
			c-2.3-1.3-4.6-18.2-6.4-18.2c-1.4,0-2.3,0-3.7,5.2c-1.4,5.2-7.3,3.9-9.1,3.9c-1.4,0-10.5-1.3-13.2-3.9c-2.7-2.6-5.5-18.2-7.3-20.8
			c-1.4-1.3-5.9,9.1-7.8,7.8c-1.8-1.3-5.5-10.4-9.1-15.6c-3.7-5.2-5-18.2-6.4-26c-1.4-7.8-6.4,3.9-5.9,13c0.5,9.1,7.3,20.8,7.3,26
			c0,6.5,1.4,7.8,4.6,15.6s0.5,13,2.7,14.3c2.3,1.3,5-6.5,8.2-11.7c3.2-3.9,2.7-10.4,4.1-10.4c1.4,0,1.4,11.7,3.7,13
			s8.7,11.7,10.1,18.2c1.4,6.5-1.4,11.7-2.7,18.2c-1.4,6.5-4.6,23.4-7.8,31.2c-3.2,6.5-6.4,16.9-11,19.5s-5,10.4-8.7,10.4
			c-3.7,1.3-13.2,15.6-15.1,18.2c-1.4,2.6-9.6,9.1-11.9,6.5s-3.2-20.8-4.1-33.8s-2.3-20.8-3.2-26s-6.4-19.5-7.3-22.1
			c-1.4-2.6-4.1-23.4-4.6-32.5s-3.7-5.2-4.1-15.6c-0.5-10.4-4.1-23.4-4.6-28.6c-0.5-6.5-6.4,1.3-9.1,1.3c-2.3,1.3-6.9-5.2-6.4-19.5
			c0.5-14.3,3.2-14.3,5.9-14.3c3.2,0,1.8-3.9,4.6-13c3.2-9.1,4.1-26,4.1-37.7c0.5-11.7-2.3-6.5-4.6-3.9c-2.3,1.3-5.9,3.9-7.3,3.9
			c-1.4-1.3-5.9-5.2-6.9-2.6c-0.9,2.6-5.9,1.3-7.3-3.9c-1.4-3.9-7.3-9.1-7.8-13c-0.5-3.9,0-24.7-1.4-29.9s-3.7,1.3-5.5,3.9
			c-1.4,3.9-5.5,6.5-4.6,9.1c1.4,2.6,5,7.8,4.6,15.6c-0.5,6.5-3.2,9.1-4.6,13c-1.4,3.9-4.6,9.1-5.5,3.9c-0.9-3.9-4.1-23.4-4.6-27.3
			c-0.9-3.9-3.7-13-4.6-20.8c-0.9-7.8-4.1-10.4-6.4-16.9s-8.2-15.6-10.5-23.4c-2.3-6.5-6.4-13-6.9-3.9c-0.5,9.1,4.1,10.4,5.9,19.5
			c1.8,9.1,5.5,14.3,7.8,16.9c2.3,2.6,7.8,14.3,7.8,14.3s-2.3,2.6-4.6,1.3S672,510.5,672,517c-0.5,6.5-2.3,6.5-3.2-1.3
			c-0.5-6.5-2.3-15.6-3.7-18.2c-1.4-2.6-9.1-9.1-10.1-11.7c-1.4-1.3-6.4-11.7-6.9-19.5c-0.5-7.8-5-9.1-6.4-6.5
			c-1.4,1.3-5.5,11.7-7.8,11.7s-5.5-3.9-7.8-5.2c-2.3-1.3-2.7,11.7-3.7,18.2s-4.6,1.3-6.9,7.8s-5.5,13-4.6,18.2
			c0.9,5.2,2.3,5.2-0.5,9.1c-2.7,3.9-4.1,13-6.9,14.3c-2.7,1.3-6.4,3.9-7.8,1.3c-1.4-2.6-2.7,9.1-3.7,11.7c-0.9,2.6-2.3-7.8-3.7-13
			c-1.4-3.9-5.5-1.3-6.4-1.3c-1.4-1.3-2.3-9.1-4.1-13c-1.4-3.9-1.4-11.7,0-14.3c1.4-2.6,2.3-6.5,1.4-15.6c-0.9-7.8-1.4-26,1.4-28.6
			c3.2-3.9,10.1,0,13.7,0s9.6,3.9,11-1.3C611.7,454.6,612.6,445.5,612.2,437.7z M724.6,282.4c-0.9,7.8,6.9,15.6,8.2,9.1
			C734.6,285,726.4,270.7,724.6,282.4z M714.5,496.9c0.5,3.9,3.7-5.2,5.9-5.2s7.8,2.6,9.1-3.9s6.4-6.5,10.1-5.2
			c4.1,1.3,7.3,9.1,10.1,10.4c2.7,1.3,10.1-1.3,12.3-2.6s1.8-14.3-2.3-20.8c-3.7-6.5-7.3-15.6-11-19.5c-3.7-3.9-4.6-6.5-2.7-9.1
			c2.3-1.3,4.6-9.1,1.8-9.1c-3.2,0-5.5,2.6-5.9,6.5c-0.5,3.9-2.3,9.1-3.2,11.7c-1.4,1.3-4.1,9.1-5,3.9c-0.9-5.2-4.1-20.8-5.5-22.1
			s-3.7,0-5.5,9.1c-1.8,9.1-3.7,18.2-5.5,20.8c-1.8,3.9-4.1,14.3-2.3,15.6C716.3,481.3,714.5,496.9,714.5,496.9z M783,434.5
			c-3.7,7.8-4.6,16.9-3.2,23.4s5.5,26,7.8,27.3s9.6,5.2,6.4,13c-3.2,7.8-3.7,10.4-6.4,9.1c-2.7-1.3-1.4,20.8,0.5,23.4
			c2.3,1.3,8.2,7.8,10.5,9.1s9.1-1.3,8.7-6.5s-1.4-26-3.7-32.5c-2.3-5.2,3.2-10.4,1.8-15.6c-1.4-3.9-3.7-2.6-4.6-7.8
			c-1.4-5.2-1.8-10.4-3.7-14.3c-1.8-3.9-3.2,3.9-3.2-6.5c0.5-9.1,4.6-15.6,6.4-10.4c1.8,5.2,7.3,2.6,8.2,0
			c1.4-2.6-2.3-10.4-3.2-15.6c-0.9-5.2-6.9-9.1-7.8-7.8c-0.9,1.3-3.2,6.5-5.5,11.7C789.4,439.7,784.9,431.9,783,434.5z"/>
		<path class="st1" d="M817.3,184.9c-2.3,6.5-6.9,3.9-10.1-1.3c-3.2-5.2-7.3-6.5-9.1-7.8s0.5-13,2.3-15.6
			c2.3-2.6,7.8-10.4,11.9-15.6c4.1-5.2,5.5-15.6,8.2-15.6c3.2,0,17.4-9.1,19.2-6.5c1.8,1.3,10.5,3.9,12.3-3.9
			c1.8-6.5,8.2-2.6,6.4,3.9c-1.4,6.5-6.9,20.8-10.5,18.2s-13.7-1.3-18.3,0c-4.6,1.3-8.7,9.1-12.3,15.6c-4.1,6.5-3.2,13-1.4,14.3
			C817.3,170.6,819.1,179.7,817.3,184.9z"/>
		<path class="st1" d="M1119.3,360.4c-1.8,1.3-6.9-1.3-5,10.4c1.8,13,2.3,20.8,1.8,31.2s0,29.9,0.5,32.5c0.5,2.6,3.2,9.1,4.6,6.5
			c1.4-1.3-0.5-19.5-0.5-23.4c0-3.9,2.3-9.1,3.2-9.1c1.4-1.3,0-15.6-1.4-22.1c-1.4-6.5-3.7-9.1-2.3-10.4c1.4-1.3,2.7-7.8,1.8-9.1
			C1120.6,365.6,1121.5,359.1,1119.3,360.4z"/>
		<path class="st1" d="M1116.5,451.4c-2.3,1.3-3.2,10.4-3.2,13c0,2.6-8.2,7.8-5.5,15.6c2.7,6.5,5.5,1.3,9.6,1.3
			c4.1-1.3,8.2-3.9,8.2-3.9s6.4,1.3,5.5-7.8c-0.9-9.1-7.3-9.1-8.7-9.1C1120.6,460.5,1118.8,448.8,1116.5,451.4z"/>
		<path class="st1" d="M1109.7,485.2c-2.3,3.9-0.9,19.5-2.7,29.9c-1.8,10.4-3.2,20.8-4.6,20.8c-1.4,0-7.3,6.5-9.1,13
			c-1.8,5.2-10.5-3.9-11.4,0c-1.4,3.9-3.7,10.4-5,13c-1.4,3.9-5.5,1.3-4.6,11.7s3.2,20.8,4.6,20.8c1.4,0,4.1-3.9,4.1-13
			s4.1,0,6.4-1.3c2.3-1.3,3.2-6.5,4.1-14.3c0.9-6.5-1.4,3.9,2.3,6.5s4.6-3.9,4.6-6.5c0-2.6,6.4-6.5,7.8-9.1
			c1.4-2.6,5.9-6.5,6.4-10.4c0.5-3.9,0-23.4,1.4-26c1.4-1.3,3.7-1.3,1.4-14.3C1112.4,491.7,1112.4,480,1109.7,485.2z"/>
		<path class="st1" d="M1043.9,659.5c-4.6,2.6-7.3,29.9-3.7,28.6C1043.9,688.1,1047.5,658.2,1043.9,659.5z"/>
		<path class="st1" d="M1228,1287.5c-1.4,1.3,0,11.7,1.4,15.6c1.4,3.9,1.8,15.6,1.4,19.5c-0.5,3.9-5.5,7.8-3.2,13
			c2.3,3.9,6.9,0,6.4,5.2c-0.5,5.2-3.2,13-0.5,14.3c2.7,1.3,3.7-6.5,4.6-13c1.4-6.5,2.3-11.7,4.1-15.6c2.3-3.9,0-11.7-1.4-11.7
			c-1.4,0-1.8,3.9-4.6,0c-2.7-3.9-2.3-2.6-3.7-11.7C1231.2,1294,1231.2,1282.3,1228,1287.5z"/>
		<path class="st1" d="M1225.7,1343.4c-0.5,3.9-3.2,5.2-4.6,9.1c-1.8,3.9,0,6.5-5,15.6c-5,9.1-11.4,18.2-12.3,26
			c-1.4,7.8,1.4,13,5.9,13c4.6,1.3,3.7,3.9,6.9-6.5c3.2-10.4,6.4-16.9,10.1-26c4.1-9.1,4.1-22.1,4.1-22.1
			S1225.7,1340.8,1225.7,1343.4z"/>
		<path class="st1" d="M1125.7,1351.2c-3.2,9.1,3.2,9.1,2.3,19.5c-0.9,9.1,4.6,6.5,5.9,3.9c1.4-1.3,5-22.1,4.6-27.3
			c-0.5-5.2-6.4,9.1-8.2,7.8C1129.3,1353.8,1125.7,1351.2,1125.7,1351.2z"/>
		<path class="st1" d="M1104.2,1281c0-9.1-1.8,9.1-3.2,1.3c-1.4-7.8,1.4-20.8-1.8-15.6c-3.2,5.2-4.6,9.1-4.6,14.3
			c-0.5,3.9-5.5,6.5-5.5,1.3c0.5-3.9,2.3-15.6,0.5-19.5c-2.3-3.9-5.5-6.5-8.2-9.1c-2.7-2.6,0.5-11.7-6.9-6.5
			c-7.3,3.9-10.1,10.4-10.1,10.4s-6.4-6.5-8.7,1.3c-2.3,6.5-5,20.8-5,20.8s-8.2,1.3-10.1,1.3c-1.8,1.3-4.6,7.8-7.3,10.4
			c-2.7,2.6-7.3,5.2-9.1,1.3c-1.8-3.9-4.6-13-3.7-18.2s7.3-13,5-20.8c-2.3-9.1-3.7-10.4-4.1-15.6c-0.5-5.2,0.9-7.8-2.7-18.2
			c-3.7-10.4-2.7-23.4-1.4-24.7c1.4-1.3-0.9-13-2.3-16.9c-1.4-3.9-1.4-20.8,1.4-24.7c2.3-3.9,9.6-20.8,11.9-20.8
			c2.3,0,5.5,2.6,7.3-1.3c2.3-3.9,8.2-2.6,8.2-6.5s0.5-18.2,2.3-22.1c1.4-3.9,7.8-9.1,8.7-13c0.9-3.9,2.3-18.2,4.1-20.8
			c1.8-2.6,3.2-9.1,5.9,0c2.7,9.1,5.5,13,6.4,3.9c1.4-9.1,0.5-6.5,3.2-14.3c2.7-7.8-0.5-20.8,2.3-13s4.6,14.3,4.6,14.3
			s-0.5-18.2,1.4-18.2c1.8,0,3.7,9.1,4.6,9.1s9.1-5.2,10.5,1.3c1.4,6.5-4.1,23.4-2.3,28.6c2.3,6.5,6.4,9.1,9.1,15.6
			c3.2,5.2,6.4,18.2,8.2,6.5c1.4-10.4,4.6-26,2.3-35.1c-2.3-7.8,0.5-33.8,1.4-35.1c0.9-1.3,2.3,20.8,5.5,29.9
			c3.2,9.1,5.9,16.9,7.3,27.3c1.4,10.4,1.8,28.6,4.6,35.1s8.2,6.5,7.8,14.3c-0.5,7.8,5.9,23.4,9.1,37.7c3.2,15.6,3.7,48.1,3.7,62.4
			c0,14.3-3.7,32.5-6.4,42.9c-2.7,10.4-3.7,24.7-4.6,29.9c-1.4,5.2-0.5,3.9-5,7.8c-4.6,3.9-7.8,14.3-9.1,10.4
			c-1.4-3.9-5.5-9.1-6.4-5.2c-1.4,3.9-2.7,14.3-4.6,3.9c-2.3-10.4-6.9-9.1-7.8-10.4c-0.9-1.3-0.9-6.5-0.9-15.6c0-9.1-3.7-9.1-4.1-13
			C1105.1,1287.5,1104.2,1283.6,1104.2,1281z"/>
		<path class="st1" d="M1241.7,1108c4.1,3.9,11-15.6,8.2-18.2C1247.2,1087.2,1241.7,1108,1241.7,1108z"/>
		<path class="st1" d="M1203.8,1152.2c-0.5,9.1-4.1,3.9-5.9-3.9c-1.8-7.8-5.5-14.3,0-10.4
			C1203.3,1141.8,1204.2,1148.3,1203.8,1152.2z"/>
		<path class="st1" d="M952.1,863.6c-3.7,2.6,5.5,20.8,6.4,23.4c0.9,2.6,9.1,23.4,9.1,32.5s5.5,32.5,6.9,36.4
			c1.4,3.9,9.1,16.9,10.1,23.4c1.4,6.5,3.7,9.1,3.7-1.3c0-9.1,0.5-20.8,2.3-26c1.4-5.2,0.9-13-1.4-13c-2.3,1.3-4.6-11.7-8.2-19.5
			c-3.7-7.8-6.9-13-10.5-24.7c-3.7-11.7-8.2-18.2-10.5-24.7C957.1,864.9,953.4,862.3,952.1,863.6z"/>
		<path class="st1" d="M963.9,816.8c-2.3,1.3-2.3,14.3-1.4,18.2c1.4,3.9,3.7,1.3,5,18.2c1.4,15.6,4.6,32.5,5.5,37.7
			c1.4,6.5,6.4,15.6,8.2,19.5c1.8,3.9,4.6-1.3,3.2-6.5s-3.7-13-4.1-19.5c-0.5-6.5-1.8-15.6-4.1-26s-4.6-13-5.9-20.8
			C969,829.8,963.9,816.8,963.9,816.8z"/>
		<path class="st1" d="M989.1,984.5c-2.3,7.8,0.5,14.3,1.4,15.6c0.9,1.3,4.1,3.9,7.3,2.6c3.2-1.3,7.3-3.9,3.7-9.1
			c-3.2-5.2-7.3,0-8.2-6.5C991.8,979.3,990,979.3,989.1,984.5z"/>
		<path class="st1" d="M1006,991c-2.3,2.6-5.5,3.9-3.2,10.4c2.3,6.5,4.1,9.1,7.3,7.8c3.7-1.3,9.1,5.2,9.1,0c0.5-5.2-3.2-13-4.6-13
			C1013.7,996.2,1006,991,1006,991z"/>
		<path class="st1" d="M1035.7,1020.9c-0.5,7.8,4.6,11.7,4.6,2.6C1040.7,1014.4,1036.1,1013.1,1035.7,1020.9z"/>
		<path class="st1" d="M1051.2,1026.1c0.5,9.1,6.4-5.2,6.4-5.2s4.6-1.3,4.6-7.8c0-6.5-4.6-14.3-6.4-6.5
			C1054.4,1013.1,1051.2,1020.9,1051.2,1026.1z"/>
		<path class="st1" d="M1037.9,927.3c-1.8,1.3-1.4,6.5-2.3,15.6c-0.5,9.1-3.2,15.6-0.9,19.5c2.3,3.9,6.9-15.6,8.2-9.1
			c1.4,6.5-0.5,9.1,1.8,16.9c2.3,7.8,5.9,6.5,5.9,6.5s-0.5-20.8-3.7-26c-3.2-5.2-5.5-11.7-1.4-9.1c4.1,1.3,5.9-2.6,5-7.8
			s-6.4-2.6-8.2-1.3C1040.7,931.2,1037.9,927.3,1037.9,927.3z"/>
		<path class="st1" d="M1039.8,909.1c-2.3,6.5-0.5,13,2.7,11.7c3.2-1.3,10.1-3.9,11.9-3.9c1.4,0,3.7-11.7,2.3-11.7
			c-1.4,0-9.6,3.9-10.5,5.2C1045.3,911.7,1039.8,909.1,1039.8,909.1z"/>
		<path class="st1" d="M1070.4,897.4c-2.7-3.9-7.8,28.6-4.1,32.5C1069.9,931.2,1072.7,900,1070.4,897.4z"/>
		<path class="st1" d="M1029.3,850.6c0-6.5-4.6,1.3-5,7.8c-0.5,6.5,3.2,11.7-2.3,11.7s-5.9,13-7.3,15.6s-2.3,3.9-4.6,5.2
			c-2.3,1.3-3.2,9.1-3.7,13c-0.5,3.9-4.6-7.8-5.9-3.9c-1.4,3.9-0.5,20.8,1.8,35.1c2.3,14.3,7.3,23.4,9.1,23.4c1.4,0,4.6,0,6.4,1.3
			c2.3,1.3,9.1,3.9,8.7-3.9c-0.5-7.8-0.9-20.8,2.3-28.6c3.2-7.8,5.9-13,4.6-23.4c-1.4-11.7-4.6-18.2-2.3-23.4
			c2.3-5.2,4.6-6.5,4.6-11.7C1035.2,862.3,1030.2,879.2,1029.3,850.6z"/>
		<path class="st1" d="M1043.9,725.8c-2.3,0,0.5,9.1-2.7,15.6c-3.2,6.5-6.4,9.1-4.6,19.5s8.2,18.2,6.4,23.4
			c-1.4,3.9-5.9,13-6.4,20.8c-0.5,7.8,7.3-13,9.1-20.8c2.3-7.8,6.4-3.9,7.3-7.8c0.9-3.9,0.9-3.9,0.9-3.9s-3.2-1.3-5.9-3.9
			c-2.7-2.6-5.9,6.5-4.6-6.5c1.4-14.3,5.9-11.7,5-22.1C1048,728.4,1044.8,725.8,1043.9,725.8z"/>
		<path class="st1" d="M1046.6,802.5c-0.9,1.3-3.7,16.9-0.5,16.9c3.2,0,9.1,2.6,7.8-1.3C1053,812.9,1050.3,798.6,1046.6,802.5z"/>
		<path class="st1" d="M1056.7,789.5c-1.4,0-5,18.2,0.5,18.2C1062.2,806.4,1060.8,790.8,1056.7,789.5z"/>
		<path class="st1" d="M1057.6,822c-4.1,15.6-4.1,13-6.9,9.1c-3.2-3.9-7.8,7.8-6.9,13c0.9,3.9,7.3-1.3,9.1,6.5
			c1.4,7.8,1.4,9.1,4.6,6.5c3.2-1.3,5.9-14.3,5-20.8C1061.2,831.1,1057.6,822,1057.6,822z"/>
		<path class="st1" d="M1077.7,926c-2.3,6.5-3.2,6.5,1.8,10.4c5,2.6,6.4,2.6,4.6,9.1c-2.3,6.5-3.7,15.6-1.8,16.9
			c1.8,1.3,7.3-3.9,7.8,0c0.5,3.9-1.4,3.9,4.6,6.5c5.9,2.6,7.3,9.1,8.2,13c1.4,3.9,4.6,15.6,2.3,15.6c-2.3,0-5,9.1-3.2,9.1
			c1.8,1.3,7.3-2.6,7.3,0c0.5,2.6,3.2,19.5,6.4,18.2c3.2-1.3,4.6-16.9,6.4-20.8c1.4-3.9,7.3-6.5,8.2,1.3c0.5,7.8,2.3,15.6,5.9,20.8
			s7.8,10.4,8.2,6.5c0.5-3.9-1.8-20.8-4.1-23.4c-2.3-2.6-6.4-18.2-6.4-23.4c0-6.5-3.7-7.8-5.5-13c-1.8-3.9-3.2-16.9-7.8-19.5
			c-4.6-2.6-5.5-6.5-10.5-14.3c-4.6-6.5-15.5-6.5-16-2.6c-0.5,3.9,0,0-3.7-3.9s-6.4,0-7.3-6.5C1082.7,920.8,1080.4,918.2,1077.7,926
			z"/>
	</g>
</g>
</svg>
