<?xml version="1.0" encoding="utf-8"?>
<!-- Generator: Adobe Illustrator 22.0.1, SVG Export Plug-In . SVG Version: 6.00 Build 0)  -->
<svg version="1.1" id="레이어_1" xmlns="http://www.w3.org/2000/svg" xmlns:xlink="http://www.w3.org/1999/xlink" x="0px"
	 y="0px" viewBox="0 0 500 200" style="enable-background:new 0 0 500 200;" xml:space="preserve">
<style type="text/css">
	.st0{fill:none;}
	.st1{fill:#FFFFFF;}
</style>
<g>
	<rect x="439.8" y="321" class="st0" width="708.2" height="297.5"/>
	
		<text transform="matrix(0.5222 0 0 1 439.8086 565.7723)" class="st1" style="font-family:'ArialMT'; font-size:278.1962px; letter-spacing:53.6;">HAWOL</text>
	<g>
		<path class="st1" d="M-163.3,346.8c-1.4-0.8-0.6,3.5-2,3.9s-2.8,1.9-1.8,2.3s3.4-0.4,3.6-1.2
			C-163.3,351.1-162.9,346.8-163.3,346.8z"/>
		<path class="st1" d="M-173.6,352.6c-1.6-0.4-3.2,0-3.4,1.2c-0.2,1.2,1.4,1.9,2.4,1.9s3.2-1.2,2.8-1.5
			C-171.9,353.8-173.6,352.6-173.6,352.6z"/>
		<path class="st1" d="M-164.7,329.8c-0.6,0.4,1,1.9,1.4,1.9c0.6,0,1.4-2.7,0.4-2.7C-164.1,329.1-163.5,329.1-164.7,329.8z"/>
		<path class="st1" d="M-160.2,308.2c0,0,0,0,0.8,1.2c0.8,1.2,2,1.9,3.2,1.9c1.2,0.4,1.2-1.2,0.2-2.7c-1-1.5-1.2-1.2-2-1.5
			c-0.8-0.4-1-1.9-3-1.9c-2,0-1.8-1.9-2-3.1c-0.2-1.2,1.8-0.4,2.4-0.4c0.6,0.4,2.6-3.1,2.6-3.1s3.4-2.7,3.8-1.9
			c0.4,0.4,2.4-0.4,3.2-1.2c1-0.4,1.4-3.5,1.4-3.5s1.2,0.8,1.8,1.9c0.6,1.2,2,0,2.4,0c0.4,0,2.4,2.7,2.4,2.7s2.6,0,3.6-0.4
			c1-0.4,3.8-0.4,4.8,0.4c1,0.4,5.9,1.2,6.3,1.2c0.6,0,3.2,1.9,4.8,1.2c1.8-0.8,2.4,0.4,2.8,0.8c0.4,0.4,0.8,0.4,1.4,1.9
			c0.6,1.5,1.4,0.4,2.2-0.8c1-1.2,0.8-1.9,0.8-1.9s0,0,0.8-0.4c0.8-0.4,1.4,0.4,3.6,0.8c2.2,0.4,1.6-0.8,3.2-1.9
			c1.6-1.2,3.2,1.2,3.6,1.2c0.6-0.4,1.2-2.3,1.6-1.2c0.4,1.2,1,3.1,1,3.1s1.8-2.7,2.2-2.7c0.6,0,2,1.2,3,0.8c1-0.4,4.4-0.4,5.2,1.2
			c0.8,1.2,2.8,1.2,3.8,2.3c1,1.2,2-1.2,1.6-1.5c-0.6-0.4-1.8-2.7-1.8-2.7s-2-4.6-2.2-5.4c-0.2-0.8-0.6-0.8-1.2,1.2
			c-0.6,1.9-2.4,1.9-4.8,2.3c-2.2,0.4-0.8-1.9-3.2-2.3c-2.4-0.4-1.6-1.9-0.8-1.9c0.8,0,1.4-3.1,1.6-5c0.2-1.9,1.2-1.5,3-1.2
			c1.8,0.4,2.4-0.4,4.2,0c1.8,0.4,1.6-1.5,3.6-1.2c1.8,0.4,1,0.8,2,1.9c1,1.2,1.6,1.2,3.2,2.3c1.4,1.2,1,1.2,1.6,1.5
			c0.6,0.4,2.8-0.4,4.2-0.8s2.4-0.4,3,1.2c0.6,1.5,0.6,3.5,1.4,4.6c1,1.2-0.6-4.6-0.6-7c0-1.9,1.8-0.4,3-0.4s2.4-0.8,2.8,0.4
			c0.2,1.2-1.6,2.7-0.6,5c1.2,2.3,2,3.1,3,3.1s3.4,0.4,2.4,3.5c-1,2.7-3.8,2.7-4.8,2.7s-2.4,1.2-2,2.7c0.4,1.5,2.4,0.8,4,0.8
			c1.4,0,5.9,0.8,7.1,0c1.2-0.8,1-3.9-0.4-4.6c-1.4-0.8-0.2-2.3,1-1.9c1.4,0.4,2.6-0.8,2.4,0c-0.2,0.8,0.2,2.7,0.2,4.6
			s0.4,3.5,1.4,2.7c1-0.4,1-0.8,2-1.2c1-0.4,0.4-4.6-0.2-7c-0.6-2.3-1-3.9-0.8-5c0.2-1.2,1.6-1.5,2.4-0.4c0.8,1.2,1.8,3.9,1.8,3.9
			s1.6,1.9,2,3.9c0.6,1.9,0.6,1.5,1.6,0.4c1-1.2,1.4-1.2,2.2,0.4c1,1.2,0.2,3.9,0.2,4.6c0,0.8,1.4,0,1.6-1.5c0.2-1.5,1.4-1.5,2-1.9
			s0.6-3.9,0.6-3.9s-1.6-0.8-3.4-0.4c-1.6,0.4-2.2-0.4-3.6-1.9c-1.4-1.9-0.6-3.1-1.2-5c-0.6-1.9,2-3.1,3.8-4.6
			c1.6-1.5,3.4-0.4,3,3.5c-0.4,3.9-0.6,3.5,1.4,2.7c2-0.8-0.2-4.3,0.8-4.6s3.2-1.2,4-0.8c0.8,0.4,5-0.8,6.3-0.8c1,0,2.8,1.9,4,3.1
			c1.2,1.2,4.4,3.1,5,3.9c0.8,0.8,6.3,2.3,6.9,2.7c0.6,0.4,0.6,3.5,1,6.2c0.6,2.7,2,0.8,2.4,0.8c0.6,0,2.4,1.9,2.8,3.1
			C-3.9,307.8,0,309,0,309s-1,2.3-1.4,3.1c-0.4,0.8-1.4,1.2-2,2.3c-0.8,1.2-1.8-0.4-2.8-1.5c-1-1.2-2.8-1.9-3.2-1.5
			c-0.4,0.4-0.2,1.5,0.2,2.3c0.2,0.8,2,1.9,3,3.5c1,1.5,0.8,3.1,1,5.4c0.2,1.9-1-0.8-2.4-1.2c-1.4-0.4-1.4,1.9-1.4,1.9
			s-1.6-0.4-2.4-0.4c-0.8,0,0,0-1.4-1.9c-1.4-1.9-1.2,1.2-2,0.4c-0.8-1.2-1.6-2.7-2-1.9c-0.4,0.4-1.6-2.3-2.4-1.9s-4-0.8-4.6-0.4
			c-0.8,0.4-1.4,0.4-2,1.2c-0.6,0.4-1-3.9-0.6-5c0.4-1.2,1.4-1.5,3-0.8c1.6,0.8,1.8,0,2.2-1.2c0.4-1.2,0.8-2.7,2.6-3.9
			c1.8-1.2-0.2-1.9-0.6-2.3c-0.6-0.4-1.2-1.5-1.6,0c-0.4,1.5-1.4,3.5-1.4,3.5s-1,0-2.4-0.4c-1.4-0.4-0.4-1.2,0.2-1.9
			c0.6-0.4,1.4-3.9,0.8-4.6c-0.6-0.8-1-1.2-2-0.8c-1.2,0.4-0.4-1.9-1.2-2.7c-0.8-0.8-0.6,0.4-0.6,1.5c0,1.2-1.2,0.8-1.2,0.8
			s-1.8-0.4-2.4,0c-0.6,0.4-1.8,1.5-1.4,2.3c0.4,0.8,1.6,0.8,2,3.1c0.4,2.3-1.6,3.1-2,3.1c-0.4,0.4-2,1.2-2,1.2s-1.6-0.8-2.8-0.8
			c-1.4,0-1.6,0.4-1.4,1.2c0.2,1.2,1,0.4,1.4,0.4c0.4,0,0.4,1.2,1.6,0.8c1.2-0.4,1-1.2,2,0.8s2,1.9,3.8,3.9c1.6,1.9-0.2,3.9-1.2,3.9
			s-1-1.5-1.4-3.1c-0.6-1.5-2.6,0.4-2.6,0.4s-1.8,1.9-2.6,1.9c-1,0-1.6-0.4-0.4-1.9c1.2-1.9-1.4-1.9-1.4-4.6c0-2.7-0.6,2.7-0.6,3.9
			c0,1.2-1,0.4-3.2,0.8c-2.2,0.4-1.8,1.9-4.8,5.8c-2.8,3.9-3.6,4.6-3.2,7.7c0.2,3.5,1,2.3,2,2.7c1.2,0.4,0.8,4.6,1.6,4.3
			c1-0.4,1.6-1.5,3.4,0.4c1.8,1.9,2.8,2.3,5,3.1c2.2,0.8,3.6,1.9,4.8,1.5c1.2-0.4,2,0.4,2,1.9c0,1.9,0.8,1.9,0.6,4.6
			c-0.2,2.3,1.4-1.9,1.4-1.9s0.6,3.9,0.2,4.6c-0.6,0.4,0.2,2.7,0.8,2.7c0.6-0.4,1.6,0.8,2.4-0.4c0.8-1.2-0.4-5.4-0.4-7
			s-0.8-2.3-1.2-3.9c-0.4-1.5,1-1.9,1.6-0.4s1.4,0.4,2.4-1.2c1-1.2,1-3.9,1-3.9s-1.6-4.3-2.8-5.4c-1.2-1.2-0.6-1.2,0.6-1.9
			c1.2-0.4,0-1.2,0.2-4.3c0.2-2.7,0.2-4.6,1-4.6c0.6,0,3-0.8,5-0.4s2.8,3.1,4.2,3.5c1.4,0.4,3.4,0.8,3.8,1.9
			c0.4,1.2-1.4,1.5-0.6,3.9c1,1.9,1,1.9,2,2.7c1,0.8,2,0.4,3.2-3.1c1.2-3.1,1.6-3.5,2-2.7c0.4,0.4,2.8,6.2,3.6,7.7
			c0.6,1.2,2,4.3,2,5.4c0.2,1.2,2,1.2,2.4,1.2c0.6,0,2.4,3.1,2.8,4.6c0.2,1.5,0.8,1.9,2.4,2.7c1.8,0.8,0,3.9-0.4,5.4
			c-0.4,1.5-0.6,1.9-1.2,3.9s0,0,0.6,0.8c0.6,0.8,1,1.9,2,1.2c1-0.4,1.6,0,2,1.5s1,2.7,1.4,4.3c0.4,1.2,0,3.5-0.6,1.9
			c-0.6-1.2-2.2-0.4-2.2-0.4s-0.8,1.5-1,0.8c-0.2-0.8-0.8-1.9-1.8-1.2c-1,0.4-1.8,0-2.8,0.4s-1.4-1.2-0.8-1.9c0.6-1.2,0.8-5,2-6.6
			c1.4-1.5,1-3.9,0-3.9S4,358,3.6,358.4c-0.6,0.4-1.6,0.4-2.4,1.9c-1,1.2-3.2,0.8-2.2,1.2c1,0.4-1.4,2.7-2,2.7
			c-0.8,0-0.6-3.5-0.6-4.6c0-1.2-1,0.8-1,0.8s-2-2.3-2.8-0.8c-0.8,1.5-2,2.3-2.8,3.9c-1,1.5-3,4.3-3,4.3s0.8-0.8,2.4-1.5
			c1.6-0.8,1.4-0.4,2.8-1.9c1.4-1.2,2.6-1.9,3.6,0.4s-0.4,3.9-0.4,3.9s0.6,1.9,1,2.3c0.6,0.4,0.6-0.4,1.6-1.5c1-1.2,0.6,1.9,0.8,3.1
			c0.2,1.2,1.2,1.2,1.6-0.4c0.6-1.2,1-2.3,1.4-1.5c0.4,0.8,0.8,2.7,1.2,4.6c0.4,1.9-2.8,2.3-3.2,2.7c-0.6,0.4-3,1.2-3.4,1.5
			s-1.6,2.7-2.8,2.7c-1,0-1-3.1-1-5c-0.2-1.9-1.4,0.4-1.6,1.2c-0.2,0.8-1.4,0.4-2.2,0.8c-1,0.4-2.4,1.9-2.4,4.3
			c0,1.9,1.2,3.1,0.8,4.3c-0.4,1.2-2.8,1.9-3.6,1.2c-1-0.4-2.2,0.8-1.8,1.9c0.4,1.2,0.2,2.7-0.8,2.3c-1-0.4-1,1.5-0.6,2.7
			c0.4,1.2-1.2,3.9-1.6,2.7c-0.4-1.2-1.2-1.5-1.2,0c0,1.5,0.2,2.7,1,5c0.8,1.9-1.6,3.5-2.6,5c-1,1.5-4,7-5.4,7.7
			c-1.4,1.2-1.4,4.6-0.6,5.8c0.6,1.2,1.4,7,1.8,8.5c0.4,1.9-0.2,7-1.4,7c-1.2-0.4-0.6-3.5-1.6-4.3c-1.2-0.8-1.8-5.4-2-8.5
			c-0.2-3.1-0.6-1.2-1.4-0.4c-0.8,1.2-1.6-1.9-2-2.7c-0.4-0.8-2.6,0.4-4.2,0.4c-1.6-0.4-2,1.2-2,1.9s-0.2,3.1-1.6,1.5
			c-1.4-1.5-1.8-1.5-3.2-1.5c-1.4,0-2.8-0.4-3,0.8c-0.2,1.2-1.8,3.5-2.6,3.9c-1,0.4-2.6,3.1-1.8,3.9c0.8,0.4,0.8,4.3,0.2,6.2
			c-0.6,1.9-0.4,5.8-0.2,9.7c0.2,3.9,1.8,6.2,3.2,8.5s2,3.1,3.4,1.2c1.4-1.9,2-0.8,2.4-0.4c0.4,0.4,1.4-1.2,1-3.9
			c-0.4-2.3,0.6-4.6,1.8-4.3c1.2,0.4,2.8-0.8,3.8-0.4c1,0.4,1.4,5.4,0,7.3c-1.4,1.9-0.6,5.4-1,7.7c-0.2,2.3-1.4,2.7,0,2.7
			c1.4,0,1,0.4,2,0.8c1,0.4,1.8-1.5,2.8-1.9c1-0.4,3.2,3.9,2.8,6.2c-0.4,1.9-0.8,5.8-0.6,9.3c0.2,3.5,0.6,3.9,1,4.6
			c0.2,1.2,1.4,3.5,2.4,2.3c1.2-1.2,2.4-1.9,2.8-3.1c0.4-1.2,2.8,1.9,2.6,2.7c-0.2,0.8,1,1.5,1.6,0.8c0.8-0.8,1.2-1.9,2-4.3
			c0.8-1.9,2-3.9,2.8-4.3c0.6-0.4,2.2-3.5,3.2-2.7c1,0.4-0.4,3.1-0.6,4.6c-0.2,1.5,0,6.2,0.6,6.2c0.6,0.4,0.2-3.1,1-5.4
			c0.6-2.3,2-3.9,2.6-3.9s1.2,5.4,2,3.9c1-1.5,2.8-1.2,3.2,0.4c0.4,1.5,0.8,2.3,0.8,2.3s0.6-1.2,0.6-2.3c0-1.2,2-2.7,3.4-1.2
			c1.4,1.5,0.8,1.9,1.4,2.3s1.4-3.5,1.8-3.9s0,4.3-1,6.6s0.8,1.5,0.8,1.5s0,0,0.4,0.8c0.4,0.8,1.8-0.8,2.2,0.8
			c0.6,1.5,1.4,1.9,2.2,5c0.8,2.7,2,1.9,3.6,1.5s3.6,1.5,5,5c1.6,3.5,1.4,6.2,2.4,6.2c1,0,1.4,2.7,1.4,3.9s-2.4,3.5-3.6,3.9
			c-1.4,0.4-1.4,3.1,0.8,2.3c2-0.8,1.2-2.3,2.4-3.1c1.4-0.8,2.6,1.2,1.4,4.3c-1.2,3.1-3.6,3.5-1.4,3.9c2,0.4,1-0.4,2-3.9
			c1.2-3.1,1-1.9,1.8-1.9c0.8,0,2.4,0.8,3.2,1.9c0.6,1.2,2.4,2.7,3.4,3.9c1,1.2,2.4,0.8,3.2,0.4c0.8-0.4,3,1.5,3.8,3.9
			c0.8,1.9,2.8,2.3,3.6,3.1c1,0.8,2.4,3.9,2.4,6.6c0.2,2.7-1.4,8.1-1.6,9.7c-0.2,1.2-2.2,6.2-4.2,9.3c-2,3.1-0.8,7-0.6,8.5
			c0.2,1.5-1.4,7.3-1,8.5c0.4,1.2-0.6,4.3-1.4,6.2c-0.8,1.9-1.4,5.4-1.8,7c-0.6,1.5-2.2,1.2-3.8,1.9c-1.6,0.8-2.4,1.5-2.4,1.5
			s-2.8,2.7-4.4,4.6c-1.6,1.9,0.6,5.8-0.2,8.5c-0.8,3.1-1.6,2.7-2.4,6.2c-0.8,3.5-1.2,0.4-1.8,1.2c-0.6,0.8-1,2.7-1.2,5
			c-0.2,1.9-1.4,4.3-3.2,7.3c-1.8,3.1-2.8,2.7-4.6,1.5c-1.8-1.2-1.6-10-1.8-8.5c-0.2,1.2-0.2,6.2,0.2,7c0.2,0.8,1,3.9,1.6,4.6
			c0.6,0.8,0.6,1.9,0,3.5c-0.6,1.2-2,6.2-2.4,6.2c-0.6,0.4-4.6,1.2-5.4,0.4c-0.8-0.8-1.2,1.9-1,3.5c0.2,1.5,0.8,3.5-0.6,2.7
			c-1.4-0.4-3.4-2.3-3.4-1.2c0,1.2,0.4,4.3,1.2,4.3c0.8,0,1.6-1.2,1.2,0.8c-0.4,1.9-1.4,3.5-2,4.3c-0.6,0.8-1.2,3.5-2.4,5.4
			c-1.4,1.9-1.4,2.7-1,3.9c0.2,0.8,2.2,0.4,2.6,0.8c0.4,0.4-0.4,4.3-1,5c-0.6,0.8-2.8,4.6-3.6,5.4c-1,1.2-1,4.3-0.6,5.8
			c0.2,1.5,2.4,5.4,3.6,6.2s3.6,0.4,3.4,1.2c-0.2,0.8-3.2,1.5-3.6,1.9s-2.4,1.2-3.6,1.2c-1,0-3-1.9-3.4-1.9s0.2-1.2,1.6-3.1
			c1.4-1.9-0.6-4.6-0.8-1.5c-0.2,2.7-0.8,3.9-1.4,3.9c-0.6,0-1.4-1.9-1.8-2.7c-0.4-0.8-2-1.5-1.8-4.6c0.2-3.1-0.8-2.7-1.6-4.3
			c-0.8-1.2,1-2.3,0.8-3.9c-0.2-1.2-1.4-0.4-1.6-2.3c-0.2-1.9,1-4.6,1.2-5.4c0.2-0.8-0.8-2.3-1-3.9c-0.2-1.2,0.6-2.7,1.4-4.6
			c1-1.9,1.6-4.6,1.6-5.4c0-0.8-0.6-3.9-0.6-5.8c0-1.9,0.6-2.7,1-5.8c0.2-2.7-1-1.9-1-4.3c0-2.3,1.4-1.5,1-3.9
			c-0.2-2.3,0.6-3.9,1-5.4c0.4-1.5,0.8-4.3,1.4-6.2c0.6-1.9-0.6-6.2-0.6-7c0-0.8,1.6-1.9,1-3.5c-0.8-1.5,0.2-2.7,1-4.3
			c0.8-1.2-0.2-5,0.2-9.7c0.4-4.6,0.8-12.8,0.8-13.5c0-0.8,0.2-3.9-0.6-6.2c-0.6-1.9-1.4-3.9-2.4-4.6c-1-0.8-2-3.1-2.8-3.5
			c-0.6-0.4-3.8-2.7-3.8-6.2c0-3.9-2.2-6.6-2.4-9.3c-0.2-2.7-2.2-8.5-2.4-11.2c-0.2-2.7-2.8-3.5-3.2-6.2c-0.4-2.7,1.4-5,1.6-7
			c0.2-1.9-1-5.8-1-7c-0.2-1.2,2-5,2.8-5.8c0.8-0.8,1.4-4.3,2-4.3c0.6,0,0.4-3.1,1-5.8c0.6-2.7-0.2-7-0.6-7.3s-0.8-3.9-1.4-5
			c-0.6-1.2-2-0.4-2-0.4s0.2,2.3-1,3.9c-1.2,1.2-1.4-0.4-1.8-1.2c-0.4-0.8-1.8-1.2-2.4-2.3c-0.6-1.2-1.8-3.1-2.4-3.9
			c-0.8-0.8-2-1.5-1.8-4.6c0.2-3.1-1.8-5-2.2-5.4c-0.6-0.4-1.6-1.9-2.2-1.2c-0.6,0.8-1.8-1.5-2.8-1.2c-1,0.4-2.8-3.1-3.4-4.6
			c-0.6-1.2-1.2-3.1-2.4-3.1s-1.4,0.8-2,2.7c-0.8,1.9-2-1.2-2.4-1.9c-0.4-0.8-1.4-1.2-2.8-1.2c-1.4,0-2.4-3.9-3-4.6
			c-0.6-0.4-4.2-3.9-5-5c-1-1.2-1.8-5-1.4-6.2c0.4-1.2-0.6-4.6-0.6-4.6s-1.8-4.3-2.4-4.3c-0.6,0-2.8-7.3-4-9.7c-1.2-1.9-4-7-4.4-9.3
			c-0.6-2.3-0.6-6.2-2-4.3c-1.4,1.9-0.2,3.9,1,5.8c1.4,1.9,1,4.3,2.8,7c1.8,3.1,1,5.8,1.8,7c0.8,1.2,3.6,4.6,2.4,6.6
			c-1.2,1.9-2.4-2.7-2.8-2.7c-0.6-0.4-1.8-0.8-1.6-2.3c0.2-1.5-1-3.1-2-5.4s-1.4-1.2-2.4-1.2c-1.2,0-0.2-2.7,0.6-4.3
			c0.6-1.2-0.6-3.1-1.4-3.9c-0.8-0.4-1.8-6.6-2.8-10.4c-1-3.9-1.8-5.4-3-5.4c-1.2,0.4-1.6-2.7-2.4-3.9c-0.8-1.2-2-6.2-3.2-8.5
			c-1.4-2.7-2.4-7.7-2.4-10.4c0.2-2.7,0.6-10.4,0.6-12c0-1.9-0.6-6.2-0.6-7c0-0.8-0.6-1.9-1.2-2.3c-0.6-0.4-2-3.9-3.2-3.9
			c-1.2,0-2-2.7-1.6-4.6s-1-5-1.6-5c-0.6,0-1.6-3.5-2-5.4c-0.4-1.9-1.4-1.9-1.2-0.8c0.2,1.2-0.2,3.1,0.6,3.5
			c0.6,0.4,1.2,4.6,0.6,5.4c-0.6,0.4-1.6-1.5-3-2.7c-1.4-1.2-0.8-6.6-0.8-7.7c0-1.2-1.8-2.7-2.6-2.7s-1.6,0.4-1.6-3.1
			c-0.2-3.5-2.4-5.4-3.2-5.4c-0.8,0-5-3.5-6.3-3.5c-1.4,0-3.6-2.3-4.4-1.2c-0.8,1.2-2.2-1.9-3-1.9s-0.8,1.2-2.2,2.7
			c-1.4,1.9-2,0.8-2.8,1.9c-0.8,1.2-2.8,2.7-2-0.4c0.6-3.1,0.6-3.9-0.4-2.7c-1,0.8-1.4,2.7-1.4,4.3c0,1.2-1.8,3.5-1.8,3.5
			s1.6,0.4,2.4,0c0.6-0.4,0.2,3.1-0.6,3.9c-0.6,0.8-1.6,2.7-2.6,2.3s-1.2-2.3-1.8-2.7s-2,1.9-4.4,4.3s-2,0.4-2.8,1.2
			c-1,0.8-4.2,3.1-5.4,3.5c-1.2,0.4-1-2.7-0.2-2.7c0.6,0,3.2-2.3,3.8-3.1c0.6-0.8,3.6-2.7,4.4-3.9c0.8-0.8,2-1.9,1.6-3.9
			c-0.6-1.5-2.2,0.8-2.2,0.8s-1.4-2.3-1.6-3.1c-0.4-0.4-1.2,1.9-1.2,1.9s-1.6-0.4-1.4-3.5c0.4-2.7-1-2.7-1.2-1.5
			c-0.2,1.2-2.4,3.5-2.6,1.9c-0.2-1.2-2-3.9-2.6-6.2c-0.6-1.9,0.6-2.3,1.6-4.3c1.2-1.9,2.8-2.3,4.4-1.9c1.4,0.4,2.4-3.1,1.8-3.5
			c-0.6-0.4-1.4-0.4-2.2,0.8c-0.8,1.2-2.8,1.2-2.8,1.2s-2.8,0-4-1.5c-1.2-1.5-1.8-3.9-1.8-3.9s2.4-1.9,4.2-1.9L-160.2,308.2z
			 M-39.4,386.6c1.4,0.4,1.4-3.5,1.2-4.6c-0.2-1.2-0.2-5.4,0.4-6.2c0.6-0.8,1.2-3.1,2.6-3.5c1.4-0.4,2.4,1.9,2.2,4.3
			c-0.2,2.3,0.2,4.6,0.8,4.6c0.6,0,2-1.9,1.6-3.5c-0.6-1.5,0.4-7,0.4-5c0,1.9,1,3.1,1.8,2.7c0.6-0.4-0.6-5-1.6-5.4
			c-1-0.4-2.8-0.4-3.2,0c-0.4,0.4-2.6-1.2-3.6-1.2c-1,0.4-2.6,1.2-3.2,3.1c-0.6,1.9,0,6.2-0.2,7.7
			C-40.4,381.6-40.6,386.3-39.4,386.6z M-31.9,386.6c0.2,1.2,1.8,0.4,2.4-1.2c0.8-1.5,2.4-1.9,3-3.5c0.6-1.2,1-1.2,2.2-1.9
			c1.4-1.2,2.4-1.2,1.8-2.7c-0.6-1.2-3.2,0-3.6-0.4c-0.4-0.4-3.2,5.8-3.2,5.8s-2.4,1.9-2.4,2.7C-31.9,385.9-32.3,385.1-31.9,386.6z
			 M-45.6,366.2c0,1.5,1.4,1.5,2,0.8c0.8-0.8,2-1.2,2.4-1.5c0.6-0.4,0.2,1.2,1.4,1.2c1.2,0,2.6,0.8,3,0.4c0.4-0.4,1.6-3.5,0.6-3.9
			s-2.4-1.9-3.2-3.9c-0.8-1.5-2.6,1.9-4.4,3.5C-45.2,364.6-45.6,364.2-45.6,366.2z M-99.7,357.7c-1-0.8,0.4,3.1,1,3.9
			c0.6,0.8,2,0.8,2,1.9c0.2,1.2,0.6,4.6,1.2,4.3c0.6-0.4,0.6-3.1,0.2-4.3c-0.6-1.2-2.4-4.3-2.8-4.3
			C-98.5,359.2-99.3,357.7-99.7,357.7z"/>
		<path class="st1" d="M-34.7,321.3c-0.4,0.8,1.6,1.9,2,0.8C-32.3,321.3-33.7,319.4-34.7,321.3z"/>
		<path class="st1" d="M-29.5,322.9c-1.4,0.8,0,2.7,0.8,1.9C-27.9,324.4-28.3,322.1-29.5,322.9z"/>
		<path class="st1" d="M-95.1,280.4c-0.2,1.2,0.8,1.2,2,1.2s3,0,3.4-0.4c0.6-0.4,3.2-1.9,3,0c0,1.5,1,3.9,1.6,3.9
			c0.6-0.4,1.8-2.7,2.4-1.9c0.6,0.8,0.8,3.1,1.4,3.5c0.6,0.4,2.2,0.4,3,0s3-0.4,4,0c1,0.4,3.8,1.5,4,0.4c0.2-1.2,1-1.2,1.2-2.3
			c0-1.2,0.6-4.3,0.6-4.3s-0.6-1.9-1.4-1.2c-0.8,0.8-1.2,1.5-2,1.2c-0.8-0.4-0.8-3.1-2.2-2.7c-1.4,0.4-1.6,1.9-2,2.7
			c-0.4,0.8-1.4,1.2-1.8,0.8c-0.4-0.4-2.4-2.7-2.4-2.7s-4.2-0.4-4.4-1.5c-0.2-1.2-0.8-2.7-2.8-2.3c-2,0.4-5.2,2.7-5.9,2.7
			c-0.6,0,0.6,1.9,0,1.9C-94.1,278.8-94.9,278.5-95.1,280.4z"/>
		<path class="st1" d="M-80.1,273c-1,0.8-0.8,2.7,0,2.7c0.6,0,2.4-1.2,3-0.4c0.6,0.8,1.8,0,1.8-0.8c0-0.8,0.6-4.3-0.6-4.6
			C-77.1,270-78.5,271.9-80.1,273z"/>
		<path class="st1" d="M-68.2,270.7c-0.2,1.2,0.6,2.3,1.8,2.3c1,0,3.4-1.2,3.4,0c0.2,0.8,0,1.5,1.2,1.9c1.2,0.4,1.8,0.8,2.4,0.8
			c0.6,0,0.4-2.3-0.2-3.9c-0.6-1.5-0.4-1.5-2-2.3c-1.6-0.8-3.2-0.8-4.2-0.8C-66.8,268.8-68,268.4-68.2,270.7z"/>
		<path class="st1" d="M-66.6,278.8c-0.6,1.2,0,4.6-0.2,5c-0.2,0.4,0,1.9,0.8,1.5c0.6-0.4,1-3.9,1.6-3.9c0.6,0,3.2-1.2,3.6,0.8
			c0.4,1.9,0.4,1.2,1.6,1.2c1.2,0,2.2-2.3,2.2-3.5c0-0.8-0.6-2.7-2.2-2.3C-60.8,278.5-65.8,277.7-66.6,278.8z"/>
		<path class="st1" d="M-63.4,288.1c-0.6,0.8-0.2,3.5,0.6,3.5c1,0,2.6-1.2,2.8,0c0.2,1.2,0.8,5.8,2.4,4.3c1.6-1.5,1.4-3.1,2-3.1
			c0.4,0,0-3.9-0.8-5c-0.6-0.8-3-0.4-3.6,0C-60.6,288.1-62.4,287-63.4,288.1z"/>
		<path class="st1" d="M-53.3,289.7c0.2,0.4,0.8,1.5,2,1.2s2.8-0.8,3.6-0.8c0.8,0,1-2.7,0-3.1c-0.8,0-1.6-1.9-2.4-1.2
			C-50.9,286.2-53.7,288.5-53.3,289.7z"/>
		<path class="st1" d="M-53.7,282.3c-0.4,1.9,3.4,2.7,3,0.8C-51.1,280.8-53.1,280.4-53.7,282.3z"/>
		<path class="st1" d="M-52.9,273.4c-1.2-0.4-3-1.2-3-1.9c0-0.4-0.6,2.3,0.4,3.5c1,0.8,2.6,2.3,3.6,3.5c1.2,0.8,3.4,1.2,4,2.7
			c0.6,1.9,3,3.1,3,3.1l2.8,0.4c0,0,2-0.8,4-0.4c2,0.4,5,0.8,6.7,0.8c1.6,0,2-1.2,2-1.9c0.2-0.8-3-1.9-3.8-1.9c-0.8,0-5.2,0-6.7,0
			c-1.4,0-3,0-4,0s-1.8-1.5-2.6-2.3c-0.8-0.8-2.6-3.9-3.6-3.9C-50.9,274.6-50.7,274.6-52.9,273.4z"/>
		<path class="st1" d="M59.7,309.8c-0.4,1.2-1,1.2-0.4,3.9c0.8,2.3,1.2,3.9,1.8,3.9c0.6,0,2.8-0.4,3,1.2c0.2,1.5,1,2.7,2.4,1.9
			c1.4-0.8,2.6-1.5,3-2.3c0.4-1.2,2.8-1.2,2.8-1.2s2-3.1,1.2-4.3c-0.8-1.2-2.4-1.9-3.2-2.3c-0.8,0-1.6,1.2-3.4,1.2
			c-1.8,0-2.8,1.5-3.6,0C62.9,309.8,60.1,309,59.7,309.8z"/>
		<path class="st1" d="M-17.6,275c1,1.5,1.6,0.4,3,1.2c1.4,0.4,2.4,4.3,3,5c0.6,0.4,1.6,0,2-1.2c0.4-1.2,1-4.6,1-4.6s0,3.5,1,4.3
			c1,0.8,3.6-0.4,4.4-0.4c0.6,0,4.8,1.2,6.1,2.3c1.2,1.2,4,1.9,4.8,3.9c0.8,2.3,0.8,10,1.4,11.2c0.4,0.8,2-2.7,2.2-3.9
			c0.4-0.8,2.2-0.4,2.8,0.8c0.6,1.2,2,4.3,2,5.4c0,1.2-0.4,3.1-0.8,2.3c-0.6-0.8-1.4-0.4-1-1.9c0.4-1.5,0.6-4.3-0.2-4.3
			c-0.6,0-1.4,0-1.4,0s-1.4-0.8-2.2,1.9c-0.8,2.7-0.2,5.4,0.4,5.4s2,0,2,0.8c0,0.8-1.4,2.7-1.4,3.9c0,1.2,1.2,5.4,1.6,6.2
			c0.4,0.8,2.2,1.9,2.6,1.9c0.6,0-1.2,0.4-0.8,1.5c0.4,1.2,1.2,4.3,2,5c1,0.8,3.6,3.9,4,5.4c0.4,1.5,2.4-1.2,2.8-1.2
			s0.4,3.9,1.6,3.9s1.6-0.4,2.8-1.9c1-1.5,0.8-3.9,0.8-5.4c0-1.5,0-2.7,1.2-2.3c1.2,0.4,1.8-0.4,1.6-1.9c0-1.9-1-3.9,0.8-4.3
			c1.8-0.4,2.8-2.7,4-2.7s4.2,0.8,4.6,0c0.4-0.8,1.8-5,2.8-5c1,0,3.4-0.4,5.9-1.2c2.2-0.8,4.8-3.5,5.4-3.1c0.8,0,2.6,0,2-0.8
			c-0.6-1.2-1.4-3.5-2.8-3.5c-1.4,0,0-3.9,0.2-3.9c0.4,0,2,0.4,2,2.3s0.6,3.9,2.2,3.5c1.8-0.8,1.4-3.5,1.2-3.9
			c-0.4-0.8-0.6-2.3-1-3.9c-0.4-1.2-0.2-2.7,1.6-3.1c1.8-0.4,4.4,1.5,4.2-1.5c0-2.7,0-5.8,0.6-7.3c0.6-1.5,1.6-2.7,1-3.1
			c-0.6-0.4-1.4,0.8-2-1.9c-0.6-2.7,0.6-4.6,1.2-5.8c0.6-1.2,4.4-7.7,6.5-8.9c2-1.2,3.4-5,2-5.8c-1.4-0.8-4.2-2.3-6.1,0.4
			c-1.8,2.7-2.8,5.4-5,4.6c-2-0.8-1.8,0.4-2-4.6c0-5-2.4-13.5-4.2-13.1c-1.8,0.4-1.8,0.4-1.8,0.4s-32.3-0.4-33.5,1.9
			c-1,1.9-2,7.3-3,5.8c-1-1.5-1.2-5-2.4-3.5c-1.2,1.5,0,5-1.2,7.3c-1,2.3-4,1.9-4.8,1.2c-0.8-0.8-1.8-1.5-5.2-1.2
			c-3.4,0.4-7.5,2.3-6.7,4.6c0.8,1.9-1.6,3.5-2.2,2.3c-0.6-1.2-3.4,1.2-3.2,3.5c0.2,1.9-0.4,4.6-2,3.9c-1.4-0.4-2.6,1.2-2.6,3.1
			c0,1.9-3.4,3.1-3.6,3.1C-14.8,273-19,273-17.6,275z"/>
		<path class="st1" d="M-35.5,445.4c-0.2,2.7,1.2,1.9,2.8,1.9c1.6,0,4.4-0.4,4.8,0.8c0.6,1.2,2.8,3.5,3.6,4.6
			c0.6,1.2,2.8,1.2,2.8,0.4c0.2-1.2-1.4-3.9-2.4-3.9c-1,0.4-2.8-1.9-4-3.9c-1-1.9-3-1.9-3.8-1.9C-32.3,443.4-35.5,445.4-35.5,445.4z
			"/>
		<path class="st1" d="M-25.9,438c-1.2,0.4-1,3.1,0.6,2.7C-24,440.3-24.9,437.6-25.9,438z"/>
		<path class="st1" d="M-25.3,460.1c-1.2,0.4-1,5,0.6,4.3C-23.2,463.1-24,459.3-25.3,460.1z"/>
		<path class="st1" d="M-7.9,457c-1.2,0.4-1,5,0.6,4.3C-5.9,460.4-6.7,456.6-7.9,457z"/>
		<path class="st1" d="M-19.8,458.1c0,0,1.4,0.4,2.4,0.4s1.4,1.2,2.2,1.9c0.8,0.8,2.2-1.2,2.8-1.2c0.6,0,1.2,3.1,1.4-0.4
			c0.2-3.5-1.6-5-2.6-5.4c-1-0.4-2.2,0-3,0.4C-17.6,454.3-19.8,458.1-19.8,458.1z"/>
		<path class="st1" d="M90.6,406.3c0.6-0.4,2.6-1.9,3.8-2.7c1.2-1.2,5-3.9,5.4-3.9c0.6,0,7.1,0.4,8.1-0.4c1-0.8,3.2-1.9,4.4,3.9
			c1,5.8,0,3.9-1,4.6c-1,1.2,0.4,3.5,1,3.5c0.6,0,2.4,3.5,3.2,3.5c1,0,3.2,1.9,3.2,1.9s2.2,3.5,3.4,3.5c1.2,0,2,1.9,3.4-0.8
			c1.4-2.7,3-5.8,4.4-5.4s2.8,2.7,4.4,2.7c1.8,0,4.8-0.4,5.4,0.8c0.6,1.2-3.6,5.8-3.2,7c0.2,1.2,0.8,0.8,2-2.3
			c1.4-3.1,3.2-3.1,4.8-3.9c1.6-0.8,2.4,4.3,2.6,5.8c0.2,1.5,1.4,4.6,2.4,7.7c1,3.5,1.8,8.1,2.8,12s1.6,9.3,2.8,11.6
			c1,2.3,2,6.2,2.6,9.7c0.6,3.1,2.2,6.2,2.8,6.6c0.6,0.4,2.8,6.2,2.8,7.7c0.2,1.5-0.8,5,1.4,5.4c2,0.4,4-1.9,4.6-2.3
			s5.9-4.6,6.5-2.7c0.6,1.5-1,8.5-1,10.4c-0.2,1.9-4,10.8-4,13.1c-0.2,2.3-2.4,6.6-3.8,7c-1.4,0.4-4.4,7.7-5.4,10.4
			c-1,2.3-2.8,7.7-3.6,8.1c-0.8,0.4-1,6.2-0.6,7c0.4,1.2,0.2,7.3,1.4,9.7c1.2,1.9,1.6,3.9,1,5.4c-0.6,1.9,0.2,6.2,0,9.7
			c-0.2,3.5-1.6,7.7-2.2,8.9c-0.6,1.2-3.8,3.1-4.8,5.4c-1,2.7-2,5-1.8,6.2c0.2,1.2,1.4,7.7,1.2,9.7c-0.2,1.5-2.6,3.9-3.6,4.6
			c-1,1.2-0.6,3.1-0.2,5.4c0.2,1.9-1.8,5.4-2.8,7.3c-1,1.9-3.4,8.1-5,10.4c-1.6,2.3-3.6,4.3-5.4,3.9c-1.6-0.4-5,0-5.6,1.2
			c-0.6,1.2-1.6,1.2-2.8-0.4c-1.4-1.2-1.4-3.1-1.6-6.2c-0.2-2.7-0.6-4.6-0.6-4.6s-0.4-4.6-1.6-6.6c-1.2-1.9-1.6-4.6-2.2-6.2
			c-0.6-1.5-0.2-5-0.4-7.7c-0.2-3.1-1-7.3-1.6-9.3c-0.6-1.9-2-7-2.4-8.5c-0.6-1.9-1.2-5.4-1-10.8c0.2-5.4,2-8.1,3-9.7
			c1-1.5,0.2-3.9-0.8-7s0.2-8.5-0.6-10.4c-0.8-1.9-3.4-11.6-4.8-13.1c-1.4-1.5-1.6-1.9-0.8-5.8c0.8-3.9,0-7.3,1.4-9.7
			s0.6-3.9-0.8-5.4s-1-2.3-2-0.4c-1.2,1.9-2.8,2.7-3.6,1.2c-1-1.9-0.6-4.6-2.4-7c-1.6-1.9-4,0.8-4.6,1.2c-0.6,0.4-2.4,2.7-4.4,3.5
			c-1.8,0.4-3.2-0.4-5-0.4c-1.8,0-3.4,0.4-3.6,1.9c-0.2,1.9-0.6,2.7-1.8,1.2c-1.2-1.9-3.6-6.2-3.6-6.2s-3.2-5.4-4-8.5
			c-0.6-3.1-1.8-5.4-4.4-7.7c-2.4-2.3-1-5-1.4-7.7c-0.2-2.7-1.6-3.9-1-3.9c0.6-0.4,0.6-1.9,2-5.8c1.4-3.9,0.6-7.7,0.2-9.7
			c-0.2-1.9-1.6-5.4-0.2-8.5c1.4-3.5,2.6-10.8,3.6-12.8s3.6-5,5-6.2c1.4-1.2,0.6-4.6,1.4-8.5s2-5.8,2.4-5.8c0.4,0,1.8-2.7,3.4-4.6
			C87.3,405.6,90.2,407.1,90.6,406.3z M148.3,514.5c-0.4-1.2-2.6-0.8-3,0.4c-0.4,1.2-0.8,7.3,0.4,7.7
			C146.8,523.4,148.9,516.9,148.3,514.5z"/>
		<path class="st1" d="M172.3,553.6c-1.6-0.8-1.8,3.5-3.2,6.2c-1.4,2.7-2.8,5.4-3.2,5c-0.6-0.4-3.4,1.9-2.4,5.8s0.8,7.7-0.2,9.7
			c-1,1.9,0.8,7,0.6,10c-0.2,2.7,0.4,4.6,2.2,4.6c1.8,0,2.4-1.2,3.2-4.6c0.8-3.5,1-7,1.6-9.7c0.8-2.7,1.4-8.9,1.8-10.4
			c0.4-1.5,1.2-6.6,1-9.7C173.7,557.8,173.1,553.9,172.3,553.6z"/>
		<path class="st1" d="M220.1,485.9c-0.8,0.8-1.6,9.7,0,10.8c1.6,1.2,2.4-4.3,2-5.4C221.5,489.8,221.3,484.8,220.1,485.9z"/>
		<path class="st1" d="M109.1,387.8c-1.2,0-1.8,3.9-1,5.4c0.8,1.2,1.6,1.2,2.2-0.8C110.9,390.5,109.7,387.8,109.1,387.8z"/>
		<path class="st1" d="M99,392.1c-0.4,1.2,1,1.2,1.4,0.4C100.6,391.3,100,389,99,392.1z"/>
		<path class="st1" d="M114.8,396.7c-0.4,0.4,0.8,2.3,1.4,2.7c0.6,0.4,1.2,1.9,1.8,2.3c0.6,0.4,2.2,0,1.6-2.7
			c-0.6-2.7-1.6-2.7-2-2.7C117.2,396.7,115.4,395.5,114.8,396.7z"/>
		<path class="st1" d="M83.3,343.4c-1.2,0.4-1.4,3.1-2,3.1c-0.8,0-1.8,0.4-1.4,2.3c0.2,1.9,0.8,3.1,0,3.9c-0.8,0.8,0.2,3.9,1.2,4.3
			s2.2-1.2,3.2-1.9s2.2-2.3,2.2-4.6s-0.2-4.6-0.8-5.4C84.9,343.4,84.1,343,83.3,343.4z"/>
		<path class="st1" d="M84.7,335.6c-1,0.8-0.6,3.5-0.2,4.6c0.6,1.2,1.4,4.3,2.8,5.4c1.4,1.2,4,1.9,3,3.1c-1,1.2-2.8,3.9-3.2,5.4
			c-0.2,1.5,2.2,3.1,2.2,3.1s-0.8,1.9-0.2,2.3c0.6,0.4,1-1.9,2-1.9s3.2,1.2,4.2,1.2s2.8-2.7,2.6-4.6c-0.2-1.9-1.4-4.6-2.6-5.8
			c-1.2-1.2-2.4-5.8-3.2-7c-0.8-1.2,0.8-3.9-0.2-5.4c-1-1.9-1.6-1.5-2.6-3.1c-1-1.2-2,0.4-2.6,1.9C86.3,336.8,85.5,334.9,84.7,335.6
			z"/>
		<path class="st1" d="M93.4,372c-0.2-2.3-2.8-4.6-4.4-5c-1.6-0.4-1.4-1.9,0.4-2.3c1.8-0.4,1.8-1.5,3.2-1.9c1.6-0.4,3.2-1.2,4.4-1.5
			c1.2-0.4,1.2-2.3,1.2-3.9c0-1.5,3.2-1.9,3.2-1.9s1.8-3.5,2.8-5s2.8-1.2,4.4-0.4c1.4,0.8-0.2-1.9-0.6-3.1c-0.6-1.2-0.2-4.3,0.2-5.8
			c0.4-1.5,2.8-2.3,3.4-1.9c0.6,0.4,0,2.7,0.2,5c0.2,1.9,1.2,3.5,1.2,3.5l1-0.4c0,0,0,0,1.6,0c1.8,0,1.2,1.9,2.4,1.2
			c1.4-0.8,2.8-1.9,3.4-2.3c0.6-0.4,2-0.4,4,0.8c2,1.2,1-2.3,1.4-4.6c0.4-1.9,1.2-5.8,2.4-5.4c1.4,0.4,2.4,1.9,3.4,0.4
			c1-1.2-2-3.1-2-3.9c0-0.8,2.4-0.8,4.8-1.2c2.2-0.4,3.6,0,4.6-0.4s-0.8-4.3-1.2-4.3c-0.4,0-3,0.4-4.4,0.4c-1.4-0.4-2.8,1.5-4,1.9
			c-1.2,0.4-1.4-3.1-2-4.6c-0.6-1.5-1-4.6,0.8-6.2c1.8-1.5,4.8-5,5.2-6.6c0.6-1.5-2-1.2-4.6-1.2c-2.4,0.4,0.4,1.5-2,6.2
			c-2.4,4.6-3.6,1.5-5.4,4.6c-1.8,3.1-0.6,3.5,1.2,4.6c1.6,1.2,0.2,4.3-0.2,5c-0.4,0.8-2.4,3.9-2,5.8c0.2,1.9-1.4,3.5-1.4,3.5
			s-4.8,1.9-5.9,2.3c-1,0.4-1.2-1.2-1-2.7c0.2-1.5-1-5.4-1.2-7.7s-2,1.2-2.2,2.7c-0.2,1.5-2.6,1.9-4,0.8c-1.4-1.2-2.2-5-2-5.8
			c0.2-0.8-0.8-4.6-0.8-5.8c0-1.2,2.8-5.4,5.4-6.2c2.4-1.2,5.6-7,7.5-9.7c1.8-2.7,2.4-5.8,3-6.6c0.6-0.8,9.7-5.4,12.9-6.6
			c3.2-1.2,10.5,1.2,11.7,1.9c1.2,0.4,1.8,1.2,4.8,3.5c2.8,1.9,5.4,1.9,7.3,2.7c1.8,0.4,3,1.5,4.2,2.7c1.2,1.2,0,1.9-2.8,3.9
			c-2.8,1.9-4.8,1.2-6.5,0.4c-1.6-1.2-2.4-1.2-1.4,0.4c1.2,1.5,0.8,2.3,1,4.6c0.2,2.3,2,0.4,2.4-0.4c0.4-0.4,0.4-1.5,1.8,0.4
			c1.4,1.9,2,0.8,2.6,0.4c0.6-0.4,0.2-3.1,0.6-4.3c0.4-1.2,2-1.2,2.4-1.5c0.4-0.4,1.4-1.2,2-1.5c0.8-0.4,0.6,2.3,1.4,3.1
			c0.8,0.8,0.4-3.5,0.2-4.6c-0.2-1.2-0.6-3.9-0.2-4.6c0.4-0.8,3.2-1.2,3.8-0.4c0.6,1.2-1,4.3-0.6,6.2c0.4,1.9,1.4-1.2,2-2.7
			c0.6-1.5,2,0,4.4-0.8c2.4-0.8,1.8-3.5,4.4-1.9c2.4,1.5,1.8,1.5,2.6,0c0.8-1.5,2.2,0.4,3.6-0.8c1.4-1.2,1.4,0,2.4,1.2
			c1,1.2,2.4-1.9,2.8-3.1c0.6-1.2,2.6-1.2,3.6-0.8c1,0.4,2.4,1.5,3.4,1.5s2.8,1.5,2.8,1.5s2.2,1.5,2.8,0.4c0.6-1.2-0.2-2.3-2-4.3
			c-2-1.9-1.2-5,0-5.4c1.2-0.4,1-1.5,2-2.7c1-1.2,2-5,3.2-4.3c1,0.8,2,2.3,3.2,3.9c1.2,1.2,0.2,3.1-0.2,4.6c-0.2,1.2,0.2,6.2,0.6,7
			c0.4,0.8-0.4,3.9-1.4,5c-1,1.2-2.4,4.3-2,4.6c0.4,0.4,3.6-2.3,3.6-2.3s2-4.6,2.8-6.2c1-1.2,1.8-1.2,2,0.4c0.2,1.5,1.8,1.9,3,1.2
			c1.4-1.2,0-1.9-0.2-4.3c-0.2-2.3-2.2-1.2-3.4-0.4c-1.2,0.4-2,3.1-2.4,3.1c-0.4,0-0.4-1.5-0.2-3.9c0.2-2.3-0.6-3.9-0.6-5
			c0-1.2,0.4-1.2,1.4-3.9c1-2.7,1,1.9,1,4.3c0.2,2.3,1,1.2,1.8,1.2c0.8-0.4,0.4-3.5,1-5c0.6-1.5,2-1.9,3.4,0.4s1.2,1.5,2.8,2.7
			c1.6,1.2,1.8,1.2,1.8,3.9c0.2,2.3,1.2,2.7,1.8,1.9c0.6-0.8,0.2-3.9-0.2-5c-0.4-1.2-3.6-2.7-4.6-4.6s0.6-1.9,1.8-1.9
			c1.2,0,3.4,0.4,3.4,0.4s2.4-1.2,3.8-3.1s2.2-1.9,3.6-2.7c1.4-1.2,3.4-1.2,4.8-0.4c1.4,0.4,2.2-1.2,3.6-1.9
			c1.4-1.2,2.8-1.9,3.2-1.2c0.4,0.4,3.6,1.9,4.2,1.9c0.6-0.4,1.8-1.2,3.8-2.7c2-1.5,1.2-1.2,2-1.9c0.8-0.8,2-1.2,4.8,1.2
			c2.8,2.3,0,0,0.8,1.5s1.2-0.4,3-0.8c1.8-0.4,3,0,4.2,0.4c1.2,0.4,3.8,0.4,5,1.9c1.2,1.5-0.8,5-1.4,6.2c-0.6,1.2,1,1.9,1.6,1.5
			c0.6-0.4,4.8,0,6.9,0.4c2,0.4,2.8,2.3,3.6,2.3c1,0,2.4-0.8,2.8-1.9c0.6-1.2,3.8-1.5,4.8-1.9s4,0,4.4,0.4c0.4,0.4,0.8,3.1,0.8,5.4
			c0,1.9,1.2,3.9,2,4.3c1,0.4,2.6-3.1,3.2-3.9c0.6-0.4,1.4,2.3,1.8,1.5c0.4-0.8,3.6,0.4,5-1.2c1.4-1.2,2,0,2.8-0.4
			c0.6-0.4,1.6-3.5,1.6-4.6c0-1.2,0.6-1.9,0-3.5s-2.4-0.4-4.4-1.5c-2-1.2-0.2-2.7,0.6-3.9c0.8-1.2,2,0,3.4,0.4
			c1.4,0.4,0.8-0.8,1.4-0.8s3,1.2,4.4,1.2c1.4,0,2.4,2.7,2.4,2.7s-3.6,1.9-4.4,1.9c-0.8,0-0.2,1.9,0.4,1.9s1.6,0.8,2.4,1.9
			c1,1.2,5,0,5.4,0c0.6,0,2,1.2,3.6,3.1c1.6,1.9,2.6,2.7,2.6,2.7s2.2,0,4.4-0.4c2.2-0.4,5.2-0.4,5.6,0.4c0.6,0.8,2,1.5,3,3.5
			s1.8,1.2,3.2,0.8c1.4-0.4,2.8-0.8,4.2-0.8c1.4,0,5.6-0.4,6.5,1.9c0.8,2.3,1.8,1.9,1.8,1.9s1.2-4.3,1.6-5c0.6-0.8,2.2,0.4,3.2,1.5
			c1,1.2,6.3,0,7.5,0.4c1.4,0.4,3.2,3.1,2,5.4c-1,1.9,0.8,5.8,0.4,7.7c-0.4,1.9-1.4,2.3-2.4,2.7s1,3.1,2,5s-0.6,2.3-1.4,1.5
			c-1-0.8-3.2,0.4-6.3,1.9s-4.2,4.6-7.5,5c-3.2,0.4-1.8-0.4-5.9-0.4s-3.8,1.9-4.6,4.6c-0.8,2.7,0.4,1.9,0,4.3c-0.4,1.9-1,4.6-1,6.2
			c0,1.9-2.4,1.9-3.2,3.9c-0.8,1.5-2,5.4-4.4,8.5c-2.2,2.7-3.8,7.3-3.8,7.3s0.4-4.6,1.4-7.7s-1.2-7.7-1.4-11.2
			c-0.2-3.5,0.6-4.6,2-7.7c1.4-3.1,4.4-4.3,5.9-5.8c1.4-1.5,6.7-8.9,6.7-8.9s-1,1.2-2.4,2.3c-1.4,1.2-2.8,3.1-4,3.1
			c-1,0-0.6-1.9-0.8-4.3c-0.2-1.9-2.6-0.4-3.6,1.5s-2.6,3.5-4.4,6.2c-1.8,2.7-1.4,2.3-2.4,2.7c-1.2,0.4-3.2-1.2-4-2.7
			c-1-1.2-1.8,1.2-4.8,1.2c-2.8,0.4-6.3-0.4-7.5-0.4c-1.4,0.4-4.6,7.7-6.7,9.3c-2,1.2-4.4,3.9-3.8,5.4c0.6,1.9,1.8-1.5,2.4-1.5
			c0.6,0-0.4,3.9,0.8,3.9c1.2,0,1.8-1.2,3-1.5c1.2-0.4,2,1.9,2.4,4.6c0.2,2.7-0.6,5.4-1,8.9c-0.6,3.9-1.4,7.3-3.4,10.4
			c-2,3.1-5.4,8.9-6.3,10.4c-0.6,1.5-3,0.4-3.4-0.8c-0.4-1.2-1.6,2.3-2.4,3.1c-1,0.8-1.8,2.3-1.8,4.6c0,1.9-2.6,1.9-2.6,3.5
			c0,1.2,1.6,5,2.2,7c0.6,1.9-0.2,7.7-1.4,8.9c-1.2,1.2-1.6,2.7-3.2,1.2c-1.6-1.9-0.2-3.1,0.4-5.8c0.6-2.7-0.6-4.6-1-5.4
			c-0.2-0.8-1.4,1.5-1.8,1.9c-0.6,0.4-0.6-2.3-0.2-3.9c0.4-1.5-0.2-5-0.6-5.4c-0.4-0.4-2.8,3.9-4,3.9c-1-0.4-0.2-5,0.2-6.2
			c0.4-1.2-0.8-0.4-1.6,1.2c-0.8,1.2-2.4,4.3-3.2,3.9c-0.6-0.4-2,1.9-1,3.9c1,1.5,1.4,2.7,2,3.1c0.6,0.4,2.4-0.4,3-0.8
			s2,1.9,0.6,4.3c-1.4,2.3-4,2.7-3.6,4.3c0.6,1.5,1.8,3.9,2.8,7.7s0.6,7.7,1,10.4c0.2,2.7-3.8,8.9-5,10.8c-1.2,1.9-2.4,6.2-4.4,8.5
			c-2,1.9-6.3,3.9-6.9,3.1c-0.6-0.8-2.4,1.2-2.4,4.3c0.2,2.7,1,2.7,1,3.5c0,0.8-1.4,3.9-1.8,5.4c-0.6,1.2-2.4,0-2-3.9
			c0.2-3.9,1.6-5.4,1.4-7.3c-0.2-1.9-1.4-2.7-2-1.2c-0.8,1.5-3.2,6.2-3.2,6.2s1,4.6,2,6.6c1.2,1.9,2,4.6,3.6,8.5
			c1.6,3.9,0.4,7.3,0,10.4c-0.4,2.7-1.6,2.7-2.8,3.5c-1,0.4-1.4,1.2-1.8,2.7c-0.4,1.5-2.2,3.5-2.4,1.9c-0.2-1.2-2-4.6-2-4.6
			s-1.2-4.6-2.8-7c-1.6-2.3-2.4-3.5-2.4-1.2s-1,7-1,8.5c0,1.5-2.4-4.6-2.4-7.3c0-2.7-0.4-7-0.2-11.2c0.2-4.3-2.8-0.4-2.8-0.4
			s-1.4,4.6-2,4.6c-0.6,0-1-3.9-0.8-7c0.2-3.1-0.6-6.2-1-7c-0.4-1.2-2.6-5.4-3-8.1c-0.4-2.7-1.2-1.9-2-0.4c-0.8,1.5-0.6,1.5-3.6,1.5
			c-3.2,0-3,3.9-4.6,6.2s-2.8,7-4.8,8.5c-1.8,1.5-2.6,3.1-2.6,5s0,6.6-0.4,9.3c-0.4,2.7-0.6,6.2-1.6,8.9c-1,2.7-1.8,7-2.4,7
			c-0.8,0-1-3.9-1-6.2c0-2.3-2.2-7.7-2.8-9.7c-0.6-1.9-2.4-10-2.4-10s-1.6-8.5-1.4-11.2c0.2-2.3,0.2-8.9,0.2-8.9s-2,4.3-3,3.9
			c-1-0.4-1.8-3.1-1.6-6.6c0.2-3.5-1.6-3.1-2.4-3.9c-1-0.4-2-5.4-2.8-5.4c-0.6,0-1,0-1.6,1.5c-0.6,1.5-3.2,1.2-4,1.2
			c-0.6,0-4.6-0.4-5.9-1.2c-1.2-0.8-2.4-5.4-3.2-6.2c-0.6-0.4-2.6,2.7-3.4,2.3c-0.8-0.4-2.4-3.1-4-4.6c-1.6-1.5-2.2-5.4-2.8-7.7
			c-0.6-2.3-2.8,1.2-2.6,3.9c0.2,2.7,3.2,6.2,3.2,7.7c0,1.9,0.6,2.3,2,4.6s0.2,3.9,1.2,4.3s2.2-1.9,3.6-3.5c1.4-1.2,1.2-3.1,1.8-3.1
			c0.6,0,0.6,3.5,1.6,3.9c1,0.4,3.8,3.5,4.4,5.4s-0.6,3.5-1.2,5.4c-0.6,1.9-2,7-3.4,9.3c-1.4,1.9-2.8,5-4.8,5.8
			c-2,0.8-2.2,3.1-3.8,3.1c-1.6,0.4-5.9,4.6-6.7,5.4c-0.6,0.8-4.2,2.7-5.2,1.9c-1-0.8-1.4-6.2-1.8-10s-1-6.2-1.4-7.7
			c-0.4-1.5-2.8-5.8-3.2-6.6c-0.6-0.8-1.8-7-2-9.7c-0.2-2.7-1.6-1.5-1.8-4.6c-0.2-3.1-1.8-7-2-8.5c-0.2-1.9-2.8,0.4-4,0.4
			c-1,0.4-3-1.5-2.8-5.8c0.2-4.3,1.4-4.3,2.6-4.3c1.4,0,0.8-1.2,2-3.9c1.4-2.7,1.8-7.7,1.8-11.2c0.2-3.5-1-1.9-2-1.2
			c-1,0.4-2.6,1.2-3.2,1.2c-0.6-0.4-2.6-1.5-3-0.8c-0.4,0.8-2.6,0.4-3.2-1.2c-0.6-1.2-3.2-2.7-3.4-3.9c-0.2-1.2,0-7.3-0.6-8.9
			c-0.6-1.5-1.6,0.4-2.4,1.2c-0.6,1.2-2.4,1.9-2,2.7c0.6,0.8,2.2,2.3,2,4.6c-0.2,1.9-1.4,2.7-2,3.9c-0.6,1.2-2,2.7-2.4,1.2
			c-0.4-1.2-1.8-7-2-8.1c-0.4-1.2-1.6-3.9-2-6.2s-1.8-3.1-2.8-5s-3.6-4.6-4.6-7c-1-1.9-2.8-3.9-3-1.2c-0.2,2.7,1.8,3.1,2.6,5.8
			c0.8,2.7,2.4,4.3,3.4,5c1,0.8,3.4,4.3,3.4,4.3s-1,0.8-2,0.4c-1-0.4-0.2,3.1-0.2,5c-0.2,1.9-1,1.9-1.4-0.4c-0.2-1.9-1-4.6-1.6-5.4
			c-0.6-0.8-4-2.7-4.4-3.5c-0.6-0.4-2.8-3.5-3-5.8c-0.2-2.3-2.2-2.7-2.8-1.9c-0.6,0.4-2.4,3.5-3.4,3.5s-2.4-1.2-3.4-1.5
			s-1.2,3.5-1.6,5.4c-0.4,1.9-2,0.4-3,2.3c-1,1.9-2.4,3.9-2,5.4c0.4,1.5,1,1.5-0.2,2.7c-1.2,1.2-1.8,3.9-3,4.3
			c-1.2,0.4-2.8,1.2-3.4,0.4c-0.6-0.8-1.2,2.7-1.6,3.5c-0.4,0.8-1-2.3-1.6-3.9c-0.6-1.2-2.4-0.4-2.8-0.4c-0.6-0.4-1-2.7-1.8-3.9
			c-0.6-1.2-0.6-3.5,0-4.3c0.6-0.8,1-1.9,0.6-4.6c-0.4-2.3-0.6-7.7,0.6-8.5c1.4-1.2,4.4,0,6.1,0c1.6,0,4.2,1.2,4.8-0.4
			C93.2,377,93.6,374.3,93.4,372z M143,325.6c-0.4,2.3,3,4.6,3.6,2.7C147.5,326.4,143.8,322.1,143,325.6z M138.6,389.3
			c0.2,1.2,1.6-1.5,2.6-1.5s3.4,0.8,4-1.2c0.6-1.9,2.8-1.9,4.4-1.5c1.8,0.4,3.2,2.7,4.4,3.1c1.2,0.4,4.4-0.4,5.4-0.8
			c1-0.4,0.8-4.3-1-6.2c-1.6-1.9-3.2-4.6-4.8-5.8c-1.6-1.2-2-1.9-1.2-2.7c1-0.4,2-2.7,0.8-2.7c-1.4,0-2.4,0.8-2.6,1.9
			c-0.2,1.2-1,2.7-1.4,3.5c-0.6,0.4-1.8,2.7-2.2,1.2c-0.4-1.5-1.8-6.2-2.4-6.6s-1.6,0-2.4,2.7c-0.8,2.7-1.6,5.4-2.4,6.2
			c-0.8,1.2-1.8,4.3-1,4.6C139.4,384.7,138.6,389.3,138.6,389.3z M168.8,370.8c-1.6,2.3-2,5-1.4,7c0.6,1.9,2.4,7.7,3.4,8.1
			c1,0.4,4.2,1.5,2.8,3.9c-1.4,2.3-1.6,3.1-2.8,2.7c-1.2-0.4-0.6,6.2,0.2,7c1,0.4,3.6,2.3,4.6,2.7s4-0.4,3.8-1.9
			c-0.2-1.5-0.6-7.7-1.6-9.7c-1-1.5,1.4-3.1,0.8-4.6c-0.6-1.2-1.6-0.8-2-2.3c-0.6-1.5-0.8-3.1-1.6-4.3c-0.8-1.2-1.4,1.2-1.4-1.9
			c0.2-2.7,2-4.6,2.8-3.1c0.8,1.5,3.2,0.8,3.6,0c0.6-0.8-1-3.1-1.4-4.6c-0.4-1.5-3-2.7-3.4-2.3c-0.4,0.4-1.4,1.9-2.4,3.5
			C171.7,372.3,169.6,370,168.8,370.8z"/>
		<path class="st1" d="M184,296.6c-1,1.9-3,1.2-4.4-0.4c-1.4-1.5-3.2-1.9-4-2.3s0.2-3.9,1-4.6c1-0.8,3.4-3.1,5.2-4.6
			c1.8-1.5,2.4-4.6,3.6-4.6c1.4,0,7.7-2.7,8.5-1.9c0.8,0.4,4.6,1.2,5.4-1.2c0.8-1.9,3.6-0.8,2.8,1.2c-0.6,1.9-3,6.2-4.6,5.4
			c-1.6-0.8-6.1-0.4-8.1,0s-3.8,2.7-5.4,4.6c-1.8,1.9-1.4,3.9-0.6,4.3C184,292.4,184.8,295.1,184,296.6z"/>
		<path class="st1" d="M317.3,348.8c-0.8,0.4-3-0.4-2.2,3.1c0.8,3.9,1,6.2,0.8,9.3c-0.2,3.1,0,8.9,0.2,9.7c0.2,0.8,1.4,2.7,2,1.9
			c0.6-0.4-0.2-5.8-0.2-7c0-1.2,1-2.7,1.4-2.7c0.6-0.4,0-4.6-0.6-6.6c-0.6-1.9-1.6-2.7-1-3.1c0.6-0.4,1.2-2.3,0.8-2.7
			C317.9,350.3,318.3,348.4,317.3,348.8z"/>
		<path class="st1" d="M316.1,375.8c-1,0.4-1.4,3.1-1.4,3.9c0,0.8-3.6,2.3-2.4,4.6c1.2,1.9,2.4,0.4,4.2,0.4c1.8-0.4,3.6-1.2,3.6-1.2
			s2.8,0.4,2.4-2.3c-0.4-2.7-3.2-2.7-3.8-2.7C317.9,378.5,317.1,375.1,316.1,375.8z"/>
		<path class="st1" d="M313.1,385.9c-1,1.2-0.4,5.8-1.2,8.9c-0.8,3.1-1.4,6.2-2,6.2c-0.6,0-3.2,1.9-4,3.9c-0.8,1.5-4.6-1.2-5,0
			c-0.6,1.2-1.6,3.1-2.2,3.9c-0.6,1.2-2.4,0.4-2,3.5c0.4,3.1,1.4,6.2,2,6.2c0.6,0,1.8-1.2,1.8-3.9s1.8,0,2.8-0.4s1.4-1.9,1.8-4.3
			c0.4-1.9-0.6,1.2,1,1.9c1.6,0.8,2-1.2,2-1.9c0-0.8,2.8-1.9,3.4-2.7c0.6-0.8,2.6-1.9,2.8-3.1c0.2-1.2,0-7,0.6-7.7
			c0.6-0.4,1.6-0.4,0.6-4.3C314.3,387.8,314.3,384.3,313.1,385.9z"/>
		<path class="st1" d="M284,437.6c-2,0.8-3.2,8.9-1.6,8.5C284,446.1,285.7,437.3,284,437.6z"/>
		<path class="st1" d="M365.4,624.3c-0.6,0.4,0,3.5,0.6,4.6c0.6,1.2,0.8,4.6,0.6,5.8c-0.2,1.2-2.4,2.3-1.4,3.9c1,1.2,3,0,2.8,1.5
			c-0.2,1.5-1.4,3.9-0.2,4.3c1.2,0.4,1.6-1.9,2-3.9c0.6-1.9,1-3.5,1.8-4.6c1-1.2,0-3.5-0.6-3.5c-0.6,0-0.8,1.2-2,0
			c-1.2-1.2-1-0.8-1.6-3.5C366.8,626.2,366.8,622.7,365.4,624.3z"/>
		<path class="st1" d="M364.3,640.9c-0.2,1.2-1.4,1.5-2,2.7c-0.8,1.2,0,1.9-2.2,4.6c-2.2,2.7-5,5.4-5.4,7.7
			c-0.6,2.3,0.6,3.9,2.6,3.9c2,0.4,1.6,1.2,3-1.9c1.4-3.1,2.8-5,4.4-7.7c1.8-2.7,1.8-6.6,1.8-6.6S364.3,640.1,364.3,640.9z"/>
		<path class="st1" d="M320.2,643.2c-1.4,2.7,1.4,2.7,1,5.8c-0.4,2.7,2,1.9,2.6,1.2c0.6-0.4,2.2-6.6,2-8.1c-0.2-1.5-2.8,2.7-3.6,2.3
			C321.8,644,320.2,643.2,320.2,643.2z"/>
		<path class="st1" d="M310.7,622.3c0-2.7-0.8,2.7-1.4,0.4c-0.6-2.3,0.6-6.2-0.8-4.6c-1.4,1.5-2,2.7-2,4.3c-0.2,1.2-2.4,1.9-2.4,0.4
			c0.2-1.2,1-4.6,0.2-5.8c-1-1.2-2.4-1.9-3.6-2.7s0.2-3.5-3-1.9c-3.2,1.2-4.4,3.1-4.4,3.1s-2.8-1.9-3.8,0.4c-1,1.9-2.2,6.2-2.2,6.2
			s-3.6,0.4-4.4,0.4c-0.8,0.4-2,2.3-3.2,3.1c-1.2,0.8-3.2,1.5-4,0.4s-2-3.9-1.6-5.4c0.4-1.5,3.2-3.9,2.2-6.2c-1-2.7-1.6-3.1-1.8-4.6
			c-0.2-1.5,0.4-2.3-1.2-5.4c-1.6-3.1-1.2-7-0.6-7.3c0.6-0.4-0.4-3.9-1-5c-0.6-1.2-0.6-6.2,0.6-7.3c1-1.2,4.2-6.2,5.2-6.2
			s2.4,0.8,3.2-0.4c1-1.2,3.6-0.8,3.6-1.9s0.2-5.4,1-6.6c0.6-1.2,3.4-2.7,3.8-3.9c0.4-1.2,1-5.4,1.8-6.2s1.4-2.7,2.6,0
			c1.2,2.7,2.4,3.9,2.8,1.2c0.6-2.7,0.2-1.9,1.4-4.3c1.2-2.3-0.2-6.2,1-3.9c1.2,2.3,2,4.3,2,4.3s-0.2-5.4,0.6-5.4
			c0.8,0,1.6,2.7,2,2.7c0.4,0,4-1.5,4.6,0.4c0.6,1.9-1.8,7-1,8.5c1,1.9,2.8,2.7,4,4.6c1.4,1.5,2.8,5.4,3.6,1.9c0.6-3.1,2-7.7,1-10.4
			c-1-2.3,0.2-10,0.6-10.4c0.4-0.4,1,6.2,2.4,8.9c1.4,2.7,2.6,5,3.2,8.1c0.6,3.1,0.8,8.5,2,10.4c1.2,1.9,3.6,1.9,3.4,4.3
			c-0.2,2.3,2.6,7,4,11.2c1.4,4.6,1.6,14.3,1.6,18.5c0,4.3-1.6,9.7-2.8,12.8c-1.2,3.1-1.6,7.3-2,8.9c-0.6,1.5-0.2,1.2-2.2,2.3
			c-2,1.2-3.4,4.3-4,3.1c-0.6-1.2-2.4-2.7-2.8-1.5c-0.6,1.2-1.2,4.3-2,1.2c-1-3.1-3-2.7-3.4-3.1c-0.4-0.4-0.4-1.9-0.4-4.6
			c0-2.7-1.6-2.7-1.8-3.9C311.1,624.3,310.7,623.1,310.7,622.3z"/>
		<path class="st1" d="M371.4,570.9c1.8,1.2,4.8-4.6,3.6-5.4C373.8,564.8,371.4,570.9,371.4,570.9z"/>
		<path class="st1" d="M354.7,584.1c-0.2,2.7-1.8,1.2-2.6-1.2c-0.8-2.3-2.4-4.3,0-3.1C354.5,581,354.9,582.9,354.7,584.1z"/>
		<path class="st1" d="M243.5,498.3c-1.6,0.8,2.4,6.2,2.8,7c0.4,0.8,4,7,4,9.7c0,2.7,2.4,9.7,3,10.8s4,5,4.4,7
			c0.6,1.9,1.6,2.7,1.6-0.4c0-2.7,0.2-6.2,1-7.7c0.6-1.5,0.4-3.9-0.6-3.9c-1,0.4-2-3.5-3.6-5.8c-1.6-2.3-3-3.9-4.6-7.3
			c-1.6-3.5-3.6-5.4-4.6-7.3C245.7,498.7,244.1,497.9,243.5,498.3z"/>
		<path class="st1" d="M248.7,484.4c-1,0.4-1,4.3-0.6,5.4c0.6,1.2,1.6,0.4,2.2,5.4c0.6,4.6,2,9.7,2.4,11.2c0.6,1.9,2.8,4.6,3.6,5.8
			c0.8,1.2,2-0.4,1.4-1.9c-0.6-1.5-1.6-3.9-1.8-5.8c-0.2-1.9-0.8-4.6-1.8-7.7c-1-3.1-2-3.9-2.6-6.2
			C251,488.3,248.7,484.4,248.7,484.4z"/>
		<path class="st1" d="M259.8,534.2c-1,2.3,0.2,4.3,0.6,4.6c0.4,0.4,1.8,1.2,3.2,0.8c1.4-0.4,3.2-1.2,1.6-2.7
			c-1.4-1.5-3.2,0-3.6-1.9C261,532.7,260.2,532.7,259.8,534.2z"/>
		<path class="st1" d="M267.3,536.2c-1,0.8-2.4,1.2-1.4,3.1c1,1.9,1.8,2.7,3.2,2.3c1.6-0.4,4,1.5,4,0c0.2-1.5-1.4-3.9-2-3.9
			C270.7,537.7,267.3,536.2,267.3,536.2z"/>
		<path class="st1" d="M280.4,545.1c-0.2,2.3,2,3.5,2,0.8C282.6,543.1,280.6,542.7,280.4,545.1z"/>
		<path class="st1" d="M287.3,546.6c0.2,2.7,2.8-1.5,2.8-1.5s2-0.4,2-2.3c0-1.9-2-4.3-2.8-1.9C288.7,542.7,287.3,545.1,287.3,546.6z
			"/>
		<path class="st1" d="M281.4,517.2c-0.8,0.4-0.6,1.9-1,4.6c-0.2,2.7-1.4,4.6-0.4,5.8c1,1.2,3-4.6,3.6-2.7c0.6,1.9-0.2,2.7,0.8,5
			c1,2.3,2.6,1.9,2.6,1.9s-0.2-6.2-1.6-7.7c-1.4-1.5-2.4-3.5-0.6-2.7c1.8,0.4,2.6-0.8,2.2-2.3c-0.4-1.5-2.8-0.8-3.6-0.4
			C282.6,518.4,281.4,517.2,281.4,517.2z"/>
		<path class="st1" d="M282.2,511.8c-1,1.9-0.2,3.9,1.2,3.5c1.4-0.4,4.4-1.2,5.2-1.2c0.6,0,1.6-3.5,1-3.5c-0.6,0-4.2,1.2-4.6,1.5
			S282.2,511.8,282.2,511.8z"/>
		<path class="st1" d="M295.7,508.4c-1.2-1.2-3.4,8.5-1.8,9.7C295.5,518.4,296.8,509.1,295.7,508.4z"/>
		<path class="st1" d="M277.6,494.4c0-1.9-2,0.4-2.2,2.3s1.4,3.5-1,3.5c-2.4,0-2.6,3.9-3.2,4.6c-0.6,0.8-1,1.2-2,1.5
			c-1,0.4-1.4,2.7-1.6,3.9c-0.2,1.2-2-2.3-2.6-1.2c-0.6,1.2-0.2,6.2,0.8,10.4s3.2,7,4,7c0.6,0,2,0,2.8,0.4c1,0.4,4,1.2,3.8-1.2
			c-0.2-2.3-0.4-6.2,1-8.5c1.4-2.3,2.6-3.9,2-7c-0.6-3.5-2-5.4-1-7s2-1.9,2-3.5C280.2,497.9,278,502.9,277.6,494.4z"/>
		<path class="st1" d="M284,457.3c-1,0,0.2,2.7-1.2,4.6c-1.4,1.9-2.8,2.7-2,5.8c0.8,3.1,3.6,5.4,2.8,7c-0.6,1.2-2.6,3.9-2.8,6.2
			c-0.2,2.3,3.2-3.9,4-6.2c1-2.3,2.8-1.2,3.2-2.3c0.4-1.2,0.4-1.2,0.4-1.2s-1.4-0.4-2.6-1.2c-1.2-0.8-2.6,1.9-2-1.9
			c0.6-4.3,2.6-3.5,2.2-6.6C285.9,458.1,284.5,457.3,284,457.3z"/>
		<path class="st1" d="M285.3,480.1c-0.4,0.4-1.6,5-0.2,5s4,0.8,3.4-0.4C288.1,483.2,286.9,479,285.3,480.1z"/>
		<path class="st1" d="M289.7,476.3c-0.6,0-2.2,5.4,0.2,5.4C292.1,481.3,291.5,476.7,289.7,476.3z"/>
		<path class="st1" d="M290.1,485.9c-1.8,4.6-1.8,3.9-3,2.7c-1.4-1.2-3.4,2.3-3,3.9c0.4,1.2,3.2-0.4,4,1.9c0.6,2.3,0.6,2.7,2,1.9
			c1.4-0.4,2.6-4.3,2.2-6.2C291.7,488.6,290.1,485.9,290.1,485.9z"/>
		<path class="st1" d="M299,516.9c-1,1.9-1.4,1.9,0.8,3.1c2.2,0.8,2.8,0.8,2,2.7c-1,1.9-1.6,4.6-0.8,5c0.8,0.4,3.2-1.2,3.4,0
			c0.2,1.2-0.6,1.2,2,1.9c2.6,0.8,3.2,2.7,3.6,3.9c0.6,1.2,2,4.6,1,4.6s-2.2,2.7-1.4,2.7c0.8,0.4,3.2-0.8,3.2,0
			c0.2,0.8,1.4,5.8,2.8,5.4c1.4-0.4,2-5,2.8-6.2c0.6-1.2,3.2-1.9,3.6,0.4c0.2,2.3,1,4.6,2.6,6.2c1.6,1.5,3.4,3.1,3.6,1.9
			c0.2-1.2-0.8-6.2-1.8-7c-1-0.8-2.8-5.4-2.8-7c0-1.9-1.6-2.3-2.4-3.9c-0.8-1.2-1.4-5-3.4-5.8s-2.4-1.9-4.6-4.3
			c-2-1.9-6.9-1.9-7.1-0.8c-0.2,1.2,0,0-1.6-1.2c-1.6-1.2-2.8,0-3.2-1.9C301.2,515.3,300.2,514.5,299,516.9z"/>
	</g>
</g>
</svg>
