<?xml version="1.0" encoding="utf-8"?>
<!-- Generator: Adobe Illustrator 22.0.1, SVG Export Plug-In . SVG Version: 6.00 Build 0)  -->
<svg version="1.1" id="Layer_1" xmlns="http://www.w3.org/2000/svg" xmlns:xlink="http://www.w3.org/1999/xlink" x="0px" y="0px"
	 viewBox="0 0 699 398" style="enable-background:new 0 0 699 398;" xml:space="preserve">
<style type="text/css">
	.st0{fill:url(#SVGID_1_);}
	.st1{fill:url(#SVGID_2_);}
	.st2{fill:url(#SVGID_3_);}
	.st3{fill:url(#SVGID_4_);}
	.st4{fill:url(#SVGID_5_);}
	.st5{fill:url(#SVGID_6_);}
	.st6{fill:url(#SVGID_7_);}
	.st7{fill:url(#SVGID_8_);}
	.st8{fill:url(#SVGID_9_);}
	.st9{fill:url(#SVGID_10_);}
	.st10{fill:url(#SVGID_11_);}
	.st11{fill:url(#SVGID_12_);}
	.st12{fill:url(#SVGID_13_);}
	.st13{fill:url(#SVGID_14_);}
	.st14{fill:url(#SVGID_15_);}
	.st15{fill:url(#SVGID_16_);}
	.st16{fill:url(#SVGID_17_);}
	.st17{fill:url(#SVGID_18_);}
	.st18{fill:url(#SVGID_19_);}
	.st19{fill:url(#SVGID_20_);}
	.st20{fill:url(#SVGID_21_);}
	.st21{fill:url(#SVGID_22_);}
	.st22{fill:url(#SVGID_23_);}
	.st23{fill:url(#SVGID_24_);}
	.st24{fill:url(#SVGID_25_);}
	.st25{fill:url(#SVGID_26_);}
	.st26{fill:url(#SVGID_27_);}
	.st27{fill:url(#SVGID_28_);}
	.st28{fill:url(#SVGID_29_);}
	.st29{fill:url(#SVGID_30_);}
	.st30{fill:url(#SVGID_31_);}
	.st31{fill:url(#SVGID_32_);}
	.st32{fill:url(#SVGID_33_);}
	.st33{fill:url(#SVGID_34_);}
	.st34{fill:url(#SVGID_35_);}
	.st35{fill:url(#SVGID_36_);}
	.st36{fill:url(#SVGID_37_);}
	.st37{fill:url(#SVGID_38_);}
	.st38{fill:url(#SVGID_39_);}
	.st39{fill:url(#SVGID_40_);}
	.st40{fill:url(#SVGID_41_);}
	.st41{fill:url(#SVGID_42_);}
	.st42{fill:url(#SVGID_43_);}
	.st43{fill:url(#SVGID_44_);}
	.st44{fill:url(#SVGID_45_);}
	.st45{fill:url(#SVGID_46_);}
	.st46{fill:url(#SVGID_47_);}
	.st47{fill:url(#SVGID_48_);}
	.st48{fill:url(#SVGID_49_);}
	.st49{fill:url(#SVGID_50_);}
	.st50{fill:url(#SVGID_51_);}
	.st51{fill:url(#SVGID_52_);}
	.st52{fill:url(#SVGID_53_);}
	.st53{fill:url(#SVGID_54_);}
	.st54{fill:url(#SVGID_55_);}
	.st55{fill:url(#SVGID_56_);}
</style>
<g>
	
		<linearGradient id="SVGID_1_" gradientUnits="userSpaceOnUse" x1="14.6457" y1="400.0734" x2="14.6457" y2="405.7408" gradientTransform="matrix(1 0 0 -1 0 502)">
		<stop  offset="0" style="stop-color:#FFFFFF"/>
		<stop  offset="1" style="stop-color:#FFFFFF"/>
	</linearGradient>
	<path class="st0" d="M17.2,96.4c-1.6-0.8-0.9,2.8-2.5,3.5c-1.6,0.4-3.6,1.6-2.4,2c1.3,0.4,4.3-0.2,4.6-0.8
		C17.3,100.3,17.6,96.6,17.2,96.4z"/>
	
		<linearGradient id="SVGID_2_" gradientUnits="userSpaceOnUse" x1="3.3382" y1="398.1875" x2="3.3382" y2="400.7529" gradientTransform="matrix(1 0 0 -1 0 502)">
		<stop  offset="0" style="stop-color:#FFFFFF"/>
		<stop  offset="1" style="stop-color:#FFFFFF"/>
	</linearGradient>
	<path class="st1" d="M4.4,101.3c-1.9-0.2-4,0-4.3,0.8s1.8,1.6,3.1,1.6c1.3,0,4-1.2,3.4-1.4C6.1,102.3,4.4,101.3,4.4,101.3z"/>
	
		<linearGradient id="SVGID_3_" gradientUnits="userSpaceOnUse" x1="16.5828" y1="418.5076" x2="16.5828" y2="420.9906" gradientTransform="matrix(1 0 0 -1 0 502)">
		<stop  offset="0" style="stop-color:#FFFFFF"/>
		<stop  offset="1" style="stop-color:#FFFFFF"/>
	</linearGradient>
	<path class="st2" d="M15.2,81.7c-0.7,0.2,1.2,1.8,1.8,1.8c0.6,0,1.8-2.4,0.4-2.4C16.3,80.9,17,80.9,15.2,81.7z"/>
	
		<linearGradient id="SVGID_4_" gradientUnits="userSpaceOnUse" x1="144.929" y1="113" x2="144.929" y2="460.167" gradientTransform="matrix(1 0 0 -1 0 502)">
		<stop  offset="0" style="stop-color:#FFFFFF"/>
		<stop  offset="1" style="stop-color:#FFFFFF"/>
	</linearGradient>
	<path class="st3" d="M21.1,63.2c0,0,0,0,1,1.2s2.7,1.6,4.2,1.8c1.5,0.2,1.5-1.2,0.3-2.4c-1.2-1.4-1.5-1.2-2.5-1.4
		c-1-0.2-1.2-1.6-3.7-1.6c-2.7,0-2.4-1.8-2.7-2.6c-0.3-0.8,2.4-0.4,3-0.2c0.6,0.2,3.3-2.6,3.3-2.6s4.3-2.2,4.8-1.8
		c0.4,0.4,3-0.4,4.2-0.8c1.2-0.4,1.8-2.8,1.8-2.8s1.5,0.6,2.4,1.8c0.9,1.2,2.7,0,3.1,0c0.4,0,3,2.2,3,2.2s3.3,0,4.6-0.2
		c1.3-0.2,4.8-0.2,6.1,0.2c1.3,0.4,7.3,0.8,7.9,0.8c0.6,0,4,1.6,6.1,0.8c2.1-0.6,3.1,0.4,3.6,0.6c0.4,0.2,1,0.2,1.8,1.6
		c0.9,1.4,1.6,0.2,2.8-0.6c1.2-0.8,1-1.8,1-1.8s0,0,1-0.2c1-0.2,1.6,0.4,4.5,0.6c2.8,0.2,2.1-0.6,4.2-1.6c1.9-0.8,4,1.2,4.6,0.8
		c0.6-0.2,1.5-2,1.9-1.2c0.4,0.8,1.3,2.6,1.3,2.6s2.1-2.2,2.8-2.2c0.6,0,2.7,0.8,3.9,0.6c1.2-0.2,5.7-0.2,6.6,0.8
		c1,1.2,3.4,0.8,4.8,2c1.3,1.2,2.7-0.8,1.9-1.4c-0.6-0.4-2.4-2.2-2.4-2.2s-2.5-4.1-2.8-4.7s-0.9-0.6-1.5,1.2c-0.6,1.8-3.1,1.8-6,2
		c-2.8,0.2-1-1.8-4.2-2c-3.1-0.2-1.9-1.8-1-1.8c1,0,1.6-2.6,1.9-4.3c0.3-1.6,1.5-1.4,3.9-1.2c2.2,0.2,3-0.4,5.2,0
		c2.4,0.4,2.1-1.4,4.5-1.2c2.4,0.2,1.2,0.6,2.5,1.8c1.3,1.2,2.1,0.8,4,2c1.8,1.2,1.2,1.2,1.9,1.4c0.9,0.2,3.6-0.4,5.2-0.6
		c1.6-0.2,3-0.4,3.9,0.8c0.9,1.4,0.6,2.8,1.8,4.1c1.2,1.2-0.6-4.1-0.6-5.9c0-1.8,2.4-0.2,3.9-0.2c1.5,0,3.1-0.6,3.4,0.2
		c0.3,0.8-2.1,2.2-0.6,4.3s2.5,2.6,3.9,2.6c1.3,0,4.3,0.4,3,2.8c-1.3,2.4-4.8,2.2-6,2.2c-1.2,0-3.1,0.8-2.7,2.2
		c0.4,1.4,3.1,0.6,4.9,0.6s7.5,0.6,8.9,0c1.5-0.6,1.2-3.5-0.4-4.1c-1.6-0.6-0.3-2,1.3-1.6s3.3-0.6,3,0s0.1,2.2,0.1,4.1
		c0,1.8,0.4,2.8,1.6,2.4c1.2-0.4,1.3-0.6,2.5-0.8c1.2-0.2,0.4-4.1-0.1-6.1s-1.2-3.3-1-4.3c0.1-1.2,1.9-1.4,3-0.2
		c1,1.2,2.4,3.5,2.4,3.5s1.9,1.6,2.7,3.5c0.6,1.8,0.9,1.4,2.1,0.2c1.3-1.2,1.6-0.8,2.8,0.2c1.2,1.2,0.3,3.5,0.3,4.1s1.6,0,1.9-1.4
		c0.3-1.4,1.6-1.4,2.5-1.8c0.9-0.4,0.9-3.3,0.9-3.3s-2.1-0.6-4.3-0.4c-2.1,0.2-2.8-0.2-4.5-1.8c-1.6-1.6-0.6-2.6-1.5-4.3
		s2.7-2.4,4.8-3.9c2.1-1.4,4.3-0.4,3.9,2.8c-0.4,3.5-0.9,2.8,1.6,2.2c2.5-0.6-0.1-3.7,1-3.9c1.2-0.2,4.2-0.8,5.1-0.6
		c1,0.2,6.4-0.6,7.8-0.6s3.4,1.6,4.9,2.6c1.5,1.2,5.5,2.6,6.4,3.5c1,0.6,7.9,2,8.7,2.2c0.6,0.2,0.6,2.8,1.3,5.3
		c0.6,2.2,2.5,0.6,3.1,0.6c0.6,0,3,1.6,3.6,2.6c0.6,1.2,5.7,2,5.7,2s-1.2,2-1.6,2.6c-0.4,0.6-1.6,1.2-2.7,2c-1,0.8-2.1-0.2-3.4-1.4
		c-1.3-1.2-3.6-1.8-4.2-1.4c-0.4,0.4-0.1,1.4,0.1,2c0.3,0.6,2.5,1.6,3.9,2.8c1.3,1.4,1,2.6,1.2,4.5s-1.3-0.6-3-1.2
		c-1.6-0.4-1.8,1.8-1.8,1.8s-2.1-0.2-3.1-0.2c-1,0,0,0-1.8-1.8c-1.8-1.8-1.5,1.2-2.5,0.2c-1-0.8-1.9-2.2-2.5-1.8
		c-0.4,0.4-2.1-2-3.1-1.8c-1,0.2-4.9-0.6-6-0.2s-1.8,0.4-2.7,0.8c-0.9,0.4-1.2-3.3-0.6-4.3c0.4-1.2,1.6-1.4,3.9-0.6
		c2.1,0.6,2.4,0,2.8-1.2c0.4-1.2,1-2.2,3.3-3.3c2.4-0.8-0.1-1.6-0.9-2c-0.6-0.4-1.5-1.4-1.9,0c-0.4,1.4-1.6,2.8-1.6,2.8
		s-1.3,0-3.1-0.2c-1.8-0.2-0.4-1.2,0.3-1.6c0.9-0.4,1.8-3.3,1-3.9c-0.9-0.6-1.2-1.2-2.7-0.6c-1.5,0.4-0.4-1.6-1.5-2.2
		c-1-0.6-0.6,0.4-0.6,1.4c0,0.8-1.5,0.6-1.5,0.6s-2.4-0.4-3.1,0c-0.9,0.4-2.4,1.4-1.8,2c0.4,0.6,2.1,0.6,2.7,2.6
		c0.4,2-2.1,2.4-2.7,2.6c-0.4,0.2-2.5,1.2-2.5,1.2s-1.9-0.6-3.6-0.6c-1.6,0-2.1,0.2-1.8,1.2c0.3,0.8,1.2,0.4,1.6,0.4
		s0.4,1.2,1.9,0.6c1.5-0.4,1.2-1.2,2.5,0.6c1.3,1.8,2.7,1.6,4.8,3.3c2.1,1.6-0.3,3.5-1.5,3.5s-1.2-1.4-1.8-2.6
		c-0.6-1.4-3.3,0.2-3.3,0.2s-2.1,1.6-3.3,1.6s-1.9-0.2-0.4-1.8c1.5-1.6-1.8-1.8-1.8-4.1c0-2.2-0.6,2.2-0.6,3.5
		c0,1.2-1.3,0.2-4.2,0.6c-2.8,0.4-2.4,1.8-6,4.9c-3.6,3.3-4.5,3.9-4.2,6.7c0.3,2.8,1.2,2,2.7,2.4c1.5,0.4,1,3.9,2.1,3.7
		c1.2-0.2,1.9-1.4,4.3,0.2c2.4,1.6,3.4,2,6.3,2.6c2.8,0.6,4.6,1.8,6.1,1.4c1.5-0.4,2.5,0.2,2.5,1.8c0,1.6,1,1.8,0.9,3.9
		c-0.1,2,1.8-1.8,1.8-1.8s0.9,3.5,0.1,3.9c-0.6,0.4,0.1,2.4,1,2.2c0.9-0.2,1.9,0.6,3-0.4c1-1.2-0.4-4.5-0.4-5.9c0-1.4-1-2-1.5-3.5
		c-0.4-1.4,1.3-1.6,1.9-0.2c0.6,1.4,1.8,0.2,3-0.8c1.2-1.2,1.2-3.3,1.2-3.3s-1.9-3.7-3.4-4.5s-0.9-1.2,0.6-1.6
		c1.5-0.4,0-1.2,0.3-3.7c0.3-2.4,0.3-4.1,1.2-4.1c0.9,0,3.9-0.6,6.3-0.4c2.5,0.2,3.6,2.6,5.4,2.8c1.6,0.2,4.3,0.6,4.8,1.8
		c0.4,1.2-1.8,1.4-0.6,3.3c1.2,1.8,1.3,1.6,2.5,2.2c1.2,0.6,2.5,0.2,4-2.4s2.1-2.8,2.7-2.4c0.4,0.4,3.6,5.5,4.5,6.5
		c0.9,1.2,2.5,3.7,2.7,4.7c0.1,1.2,2.5,1.2,3.1,1.2c0.6,0,3.1,2.4,3.4,3.9s1,1.8,3.1,2.4c2.1,0.6,0,3.3-0.4,4.5
		c-0.4,1.4-0.9,1.8-1.5,3.5c-0.6,1.6,0,0,0.9,0.6c0.9,0.6,1.2,1.6,2.5,1.2c1.3-0.4,1.9,0,2.5,1.4c0.4,1.4,1.2,2.4,1.6,3.7
		c0.4,1.2,0,2.8-0.6,1.8c-0.6-1.2-2.8-0.4-2.8-0.4s-1,1.4-1.3,0.6c-0.3-0.6-1-1.6-2.1-1.2c-1.2,0.4-2.4,0-3.6,0.2
		c-1.3,0.2-1.8-0.8-1-1.8c0.9-0.8,1-4.3,2.7-5.7c1.6-1.4,1.2-3.5,0-3.5c-1.2,0-1.6,2-2.4,2.4c-0.6,0.4-1.9,0.4-3.1,1.6
		c-1.2,1.2-4,0.6-2.8,1.2c1.2,0.4-1.6,2.2-2.7,2.2c-1,0-0.6-2.8-0.6-4.1s-1.3,0.6-1.3,0.6s-2.7-2-3.6-0.6c-1,1.4-2.5,2-3.6,3.5
		c-1.2,1.4-3.9,3.7-3.9,3.7s1-0.6,3-1.4c1.9-0.6,1.8-0.4,3.4-1.6s3.3-1.6,4.5,0.4c1.2,2-0.4,3.3-0.4,3.3s0.6,1.6,1.3,2
		c0.6,0.4,0.9-0.4,1.9-1.4c1.2-0.8,0.6,1.8,1,2.6c0.3,0.8,1.5,0.8,2.1-0.2c0.6-1.2,1.2-2,1.6-1.4c0.4,0.6,1,2.2,1.5,3.9
		c0.4,1.6-3.4,2-4.2,2.2c-0.6,0.2-3.9,1.2-4.3,1.4c-0.4,0.2-2.1,2.2-3.4,2.2c-1.3,0-1.2-2.6-1.3-4.3c-0.1-1.6-1.8,0.2-1.9,0.8
		c-0.1,0.6-1.6,0.4-2.8,0.6c-1.2,0.2-3.1,1.8-3.1,3.7c0,1.8,1.5,2.6,1,3.7c-0.4,0.8-3.4,1.6-4.6,1.2s-2.8,0.6-2.4,1.6
		c0.4,0.8,0.1,2.2-1,2c-1.2-0.2-1.3,1.4-0.9,2.4c0.4,1.2-1.5,3.5-1.9,2.4c-0.4-0.8-1.5-1.4-1.5,0c0,1.4,0.3,2.4,1.3,4.3
		c1,1.8-2.1,2.8-3.3,4.3c-1.2,1.4-5.1,5.9-6.7,6.7c-1.6,0.8-1.6,3.9-0.9,4.9c0.9,1.2,1.8,5.9,2.4,7.5c0.4,1.6-0.1,6.1-1.6,5.9
		c-1.5-0.2-0.6-2.8-2.1-3.7c-1.5-0.6-2.4-4.7-2.7-7.5c-0.3-2.6-0.6-1.2-1.6-0.2c-1,0.8-1.9-1.8-2.5-2.4c-0.4-0.6-3.3,0.4-5.2,0.2
		c-1.9-0.2-2.7,1.2-2.7,1.8c0,0.6-0.3,2.6-2.1,1.4c-1.8-1.4-2.1-1.4-4-1.4c-1.8,0-3.4-0.2-3.9,0.6c-0.3,0.8-2.1,2.8-3.3,3.5
		c-1.2,0.4-3.3,2.6-2.4,3.3c1,0.4,1,3.7,0.3,5.5c-0.6,1.8-0.4,4.9-0.1,8.1c0.3,3.3,2.4,5.3,4.2,7.3c1.8,2,2.5,2.6,4.3,0.8
		c1.8-1.8,2.5-0.6,3-0.4c0.4,0.2,1.8-1.2,1.3-3.3c-0.4-2,0.6-3.9,2.1-3.7c1.5,0.2,3.6-0.6,4.8-0.4c1.2,0.2,1.8,4.5,0,6.3
		c-1.8,1.8-0.9,4.5-1.2,6.5c-0.3,2-1.8,2.4,0,2.4c1.8,0,1.3,0.4,2.5,0.6c1.2,0.2,2.4-1.4,3.4-1.6c1.2-0.2,4.2,3.5,3.6,5.3
		c-0.4,1.8-1,4.9-0.9,7.9c0.1,2.8,0.9,3.3,1.2,4.1c0.3,0.8,1.6,2.8,3.1,2c1.5-0.8,3-1.6,3.4-2.4c0.4-0.8,3.6,1.6,3.3,2.2
		c-0.3,0.6,1.2,1.4,2.1,0.6c1-0.6,1.5-1.8,2.5-3.7c1-1.8,2.7-3.5,3.4-3.7c0.9-0.2,2.8-2.8,4.2-2.4c1.3,0.4-0.4,2.6-0.6,4.1
		c-0.1,1.4,0,5.3,0.6,5.5c0.6,0.2,0.3-2.6,1.2-4.7c0.9-2,2.5-3.3,3.3-3.3c0.9,0,1.5,4.7,2.7,3.5c1.2-1.4,3.4-1.2,4,0.2
		c0.4,1.4,1,2,1,2s0.9-0.8,0.9-2c0-1.2,2.7-2.2,4.3-0.8c1.6,1.4,1,1.8,1.8,2c0.9,0.2,1.6-2.8,2.1-3.3c0.4-0.2,0,3.7-1.2,5.7
		s1,1.4,1,1.4s0,0,0.4,0.6c0.4,0.6,2.1-0.6,2.8,0.6c0.6,1.4,1.8,1.8,2.8,4.3c1,2.4,2.5,1.8,4.5,1.4c1.9-0.4,4.5,1.4,6.4,4.3
		c1.9,2.8,1.6,5.3,3,5.3s1.6,2.4,1.6,3.5c0,0.8-3,2.8-4.6,3.5c-1.6,0.4-1.6,2.6,1,2s1.5-2,3.1-2.6s3.3,0.8,1.8,3.7
		c-1.5,2.6-4.5,2.8-1.8,3.5c2.7,0.4,1.2-0.4,2.7-3.3c1.5-2.6,1.3-1.8,2.4-1.8c1,0,3.1,0.6,4,1.6c0.9,0.8,3,2.2,4.3,3.5
		c1.3,1.2,3,0.6,4,0.2c1-0.4,3.9,1.4,4.8,3.3c1,1.8,3.4,2,4.6,2.6c1.2,0.6,3,3.5,3.1,5.7c0.1,2.2-1.8,6.9-1.9,8.1
		c-0.1,1.2-2.8,5.3-5.2,7.9c-2.5,2.6-1,5.9-0.9,7.1c0.1,1.4-1.6,6.3-1.2,7.5c0.4,1.2-0.6,3.7-1.6,5.3c-1,1.6-1.6,4.5-2.4,5.9
		c-0.6,1.4-2.8,0.8-4.8,1.6c-1.9,0.6-3,1.4-3,1.4s-3.4,2.2-5.5,4.1c-1.9,1.8,0.6,4.9-0.3,7.5c-1,2.4-1.9,2.2-3,5.3
		c-1,2.8-1.5,0.4-2.4,1.2c-0.9,0.6-1.3,2.4-1.5,4.3s-1.8,3.7-4,6.3c-2.1,2.6-3.4,2.2-5.8,1.4c-2.4-0.8-1.9-8.5-2.4-7.5
		c-0.3,1.2-0.1,5.3,0.1,5.9c0.3,0.6,1.3,3.3,2.1,3.9c0.9,0.6,0.6,1.8,0,2.8c-0.6,1.2-2.5,5.3-3.1,5.5c-0.6,0.2-5.8,1.2-6.7,0.4
		c-1-0.6-1.5,1.6-1.3,2.8c0.1,1.4,1,2.8-0.9,2.4c-1.8-0.4-4.3-2-4.3-0.8s0.4,3.7,1.5,3.7s1.9-0.8,1.5,0.6c-0.4,1.6-1.8,2.8-2.5,3.7
		c-0.6,0.6-1.5,2.8-3.1,4.5c-1.6,1.6-1.6,2.4-1.3,3.3c0.3,0.6,2.8,0.2,3.3,0.6c0.4,0.4-0.4,3.7-1.2,4.3c-0.6,0.6-3.4,3.9-4.6,4.7
		c-1.2,0.8-1.2,3.7-0.9,4.9c0.3,1.4,3,4.7,4.5,5.5c1.5,0.6,4.6,0.4,4.3,1.2c-0.3,0.6-4,1.4-4.5,1.6c-0.4,0.2-3.1,1.2-4.5,1.2
		s-3.9-1.8-4.3-1.8c-0.4,0,0.3-0.8,1.9-2.6c1.6-1.8-0.6-3.9-1-1.4c-0.3,2.4-1,3.3-1.8,3.3c-0.9,0-1.8-1.6-2.4-2.2
		c-0.4-0.6-2.7-1.4-2.4-4.1c0.3-2.6-1-2.4-1.9-3.7c-1-1.2,1.3-2,1-3.3c-0.3-1.2-1.8-0.4-1.9-2c-0.1-1.6,1.3-3.9,1.5-4.5
		c0.1-0.6-1-2-1.2-3.3s0.6-2.2,1.8-4.1s1.9-4.1,1.9-4.7s-0.9-3.3-0.9-4.9c0-1.8,0.9-2.4,1.2-4.9c0.3-2.4-1.2-1.6-1.2-3.7
		s1.6-1.4,1.3-3.5c-0.3-2,0.9-3.5,1.3-4.7c0.4-1.4,1-3.7,1.6-5.3c0.6-1.6-0.6-5.1-0.6-5.9c0-0.6,2.1-1.6,1.2-2.8
		c-1-1.4,0.3-2.4,1.3-3.7c1-1.2-0.1-4.3,0.3-8.3s1-11,1-11.8c0-0.6,0.1-3.5-0.6-5.3c-0.9-1.8-1.8-3.3-3-3.9
		c-1.2-0.6-2.7-2.6-3.4-2.8c-0.9-0.2-4.8-2.2-4.8-5.5s-2.8-5.7-3.1-7.9c-0.3-2.2-2.8-7.1-3-9.6c-0.1-2.2-3.6-2.8-4.2-5.5
		c-0.4-2.4,1.6-4.3,1.9-5.9s-1.2-4.9-1.3-6.1c-0.1-1.2,2.5-4.3,3.4-4.9c1-0.6,1.8-3.7,2.5-3.7c0.6,0,0.4-2.4,1.2-4.9
		c0.6-2.4-0.3-5.9-0.9-6.3c-0.4-0.4-1-3.5-1.8-4.3c-0.9-0.8-2.5-0.4-2.5-0.4s0.3,2-1.2,3.3c-1.5,1.2-1.8-0.2-2.4-0.8
		c-0.4-0.6-2.4-0.8-3.1-2c-0.9-1.2-2.1-2.6-3.1-3.5c-1-0.6-2.5-1.4-2.4-4.1c0.1-2.6-2.1-4.3-2.8-4.7c-0.6-0.4-1.9-1.6-2.8-0.8
		c-0.9,0.6-2.4-1.4-3.4-1.2c-1.2,0.2-3.4-2.6-4.3-3.9c-0.9-1.2-1.5-2.6-3-2.6s-1.6,0.6-2.7,2.2c-1,1.6-2.5-1.2-3-1.8
		c-0.4-0.6-1.8-0.8-3.6-0.8s-3.1-3.5-3.7-3.9c-0.6-0.4-5.2-3.5-6.4-4.3c-1.2-0.8-2.4-4.3-1.8-5.3c0.4-0.8-0.9-3.9-0.9-3.9
		s-2.4-3.7-3.1-3.7c-0.9,0-3.4-6.3-4.9-8.1c-1.5-1.8-4.9-5.9-5.7-7.9c-0.6-2-0.9-5.3-2.5-3.7c-1.6,1.6-0.3,3.3,1.3,4.9
		c1.6,1.8,1.3,3.7,3.6,6.1c2.4,2.4,1.3,4.9,2.4,6.1c1,1.2,4.5,3.9,3,5.7c-1.5,1.8-3-2.2-3.6-2.4c-0.6-0.2-2.1-0.6-1.9-2
		c0.1-1.4-1.3-2.4-2.5-4.5c-1.2-2-1.6-0.8-3.1-0.8s-0.1-2.4,0.6-3.7c0.9-1.2-0.9-2.6-1.8-3.3c-1-0.4-2.4-5.7-3.6-8.8
		c-1.3-3.3-2.4-4.7-3.9-4.5c-1.5,0.2-2.1-2.2-3.1-3.1c-1-0.8-2.5-5.3-4.2-7.5c-1.6-2.2-3.1-6.5-3-9c0.1-2.4,0.6-8.8,0.6-10.4
		c0-1.6-0.9-5.5-0.9-6.1c0-0.6-0.9-1.8-1.5-2c-0.6-0.2-2.5-3.5-4-3.5c-1.5,0-2.5-2.2-1.9-3.9c0.4-1.6-1.3-4.3-2.1-4.3
		c-0.9,0-2.1-2.8-2.7-4.5c-0.4-1.6-1.8-1.6-1.5-0.6c0.3,0.8-0.1,2.4,0.6,2.8c0.9,0.4,1.5,4.1,0.9,4.5s-2.1-1.4-3.9-2.4
		c-1.6-1.2-1-5.7-1-6.7c0-1.2-2.4-2.2-3.3-2.2c-1,0-1.9,0.2-2.1-2.6c-0.1-2.8-3.1-4.5-4.2-4.5s-6.3-2.8-7.9-2.8
		c-1.6,0-4.5-2-5.5-1.2s-2.8-1.6-3.9-1.6c-1,0-1,0.8-2.8,2.4c-1.8,1.6-2.5,0.6-3.4,1.8c-1,1.2-3.4,2.2-2.7-0.4
		c0.9-2.6,0.9-3.3-0.4-2.4c-1.3,0.6-1.6,2.4-1.6,3.7c0,1.2-2.4,2.8-2.4,2.8s2.1,0.2,3,0c0.9-0.2,0.1,2.4-0.6,3.3
		c-0.9,0.6-1.9,2.4-3.3,2c-1.3-0.4-1.5-2-2.2-2.2c-0.9-0.2-2.7,1.6-5.7,3.7s-2.5,0.4-3.6,1.2c-1.2,0.6-5.4,2.6-6.7,2.8
		c-1.5,0.2-1.2-2.4-0.3-2.4c0.9,0,4-2,4.8-2.6c0.9-0.6,4.5-2.4,5.5-3.3c1-0.6,2.7-1.8,1.9-3.3c-0.6-1.4-2.8,0.6-2.8,0.6
		s-1.6-2-2.1-2.4c-0.4-0.4-1.5,1.8-1.5,1.8s-2.1-0.4-1.6-2.8c0.4-2.4-1.2-2.4-1.5-1.4c-0.3,1.2-3.1,2.8-3.3,1.8
		c-0.1-1.2-2.7-3.5-3.3-5.3c-0.6-1.8,0.6-2,2.1-3.7s3.6-2,5.5-1.8c1.8,0.2,3-2.6,2.4-2.8c-0.6-0.2-1.8-0.4-2.8,0.6
		c-1,1.2-3.4,0.8-3.4,0.8s-3.6,0-5.1-1.4c-1.5-1.4-2.4-3.5-2.4-3.5s3-1.6,5.2-1.8L21.1,63.2z M172.6,130.4c1.6,0.2,1.6-2.8,1.5-3.9
		c-0.1-0.8-0.1-4.7,0.4-5.5c0.6-0.6,1.5-2.6,3.3-2.8c1.8-0.2,3,1.6,2.8,3.7s0.3,4.1,1,4.1c0.6,0,2.7-1.6,1.9-2.8
		c-0.6-1.4,0.4-5.9,0.4-4.3c0,1.6,1.3,2.6,2.1,2.4c0.9-0.2-0.9-4.3-1.9-4.5c-1.2-0.2-3.4-0.2-4,0c-0.4,0.2-3.3-1.2-4.6-0.8
		c-1.3,0.2-3.3,0.8-4,2.6c-0.6,1.8,0,5.3-0.1,6.5C171.5,126.3,171.2,130.2,172.6,130.4z M182,130.4c0.4,1,2.1,0.2,3.1-1.2
		c1-1.4,3.1-1.8,3.9-2.8c0.6-1.2,1.2-0.8,2.8-1.8c1.6-0.8,3-1.2,2.4-2.2c-0.6-1.2-4.2,0-4.6-0.4c-0.4-0.4-4,4.9-4,4.9
		s-3,1.6-3.1,2.2C182.1,129.8,181.4,129.1,182,130.4z M164.7,113.1c0,1.2,1.6,1.4,2.7,0.6c1-0.6,2.5-1.2,3.1-1.4
		c0.6-0.2,0.3,1.2,1.8,1.2s3.3,0.6,3.9,0.4c0.4-0.2,1.9-2.8,0.9-3.3c-1.2-0.2-3-1.8-4-3.3c-1-1.4-3.3,1.8-5.5,2.8
		C165.4,111.6,164.7,111.2,164.7,113.1z M96.8,105.5c-1.3-0.6,0.4,2.6,1.3,3.5c0.9,0.6,2.5,0.6,2.7,1.8c0.1,1.2,0.6,3.9,1.5,3.7
		c0.9-0.2,0.9-2.6,0.1-3.7c-0.6-0.8-3.1-3.7-3.6-3.7C98.5,107.2,97.4,105.7,96.8,105.5z"/>
	
		<linearGradient id="SVGID_5_" gradientUnits="userSpaceOnUse" x1="179.7822" y1="426.2726" x2="179.7822" y2="428.1282" gradientTransform="matrix(1 0 0 -1 0 502)">
		<stop  offset="0" style="stop-color:#FFFFFF"/>
		<stop  offset="1" style="stop-color:#FFFFFF"/>
	</linearGradient>
	<path class="st4" d="M178.6,74.6c-0.4,0.6,1.9,1.6,2.4,0.8C181.5,74.4,179.8,73,178.6,74.6z"/>
	
		<linearGradient id="SVGID_6_" gradientUnits="userSpaceOnUse" x1="185.378" y1="424.1031" x2="185.378" y2="426.1541" gradientTransform="matrix(1 0 0 -1 0 502)">
		<stop  offset="0" style="stop-color:#FFFFFF"/>
		<stop  offset="1" style="stop-color:#FFFFFF"/>
	</linearGradient>
	<path class="st5" d="M185,76c-1.8,0.6-0.1,2.4,1,1.8C187.1,77.3,186.6,75.4,185,76z"/>
	
		<linearGradient id="SVGID_7_" gradientUnits="userSpaceOnUse" x1="119.5637" y1="457.2447" x2="119.5637" y2="468.057" gradientTransform="matrix(1 0 0 -1 0 502)">
		<stop  offset="0" style="stop-color:#FFFFFF"/>
		<stop  offset="1" style="stop-color:#FFFFFF"/>
	</linearGradient>
	<path class="st6" d="M102.8,39.2c-0.1,0.8,1,0.8,2.4,0.8c1.5,0,3.7,0,4.5-0.4c0.6-0.4,4-1.4,3.9-0.2c-0.1,1.4,1.3,3.5,2.1,3.3
		c0.7-0.2,2.4-2.2,3.1-1.4c0.7,0.8,0.9,2.6,1.6,3.1c0.7,0.4,2.8,0.4,3.9,0c1-0.4,3.7-0.4,4.9-0.2c1.2,0.4,4.8,1.2,5.1,0.4
		c0.3-0.8,1.3-1,1.5-2c0.1-0.8,0.6-3.7,0.6-3.7s-0.6-1.6-1.8-0.8c-1,0.8-1.5,1.2-2.4,0.8c-1-0.2-1-2.6-2.7-2.2
		c-1.8,0.4-2.1,1.8-2.7,2.4c-0.6,0.6-1.8,1-2.2,0.8s-3-2.2-3-2.2s-5.2-0.2-5.5-1.2c-0.1-0.8-1-2.4-3.6-2c-2.4,0.2-6.6,2.2-7.3,2.2
		c-0.6,0,0.7,1.8-0.1,1.8C104.1,38,103.1,38,102.8,39.2z"/>
	
		<linearGradient id="SVGID_8_" gradientUnits="userSpaceOnUse" x1="123.933" y1="466.6212" x2="123.933" y2="471.4947" gradientTransform="matrix(1 0 0 -1 0 502)">
		<stop  offset="0" style="stop-color:#FFFFFF"/>
		<stop  offset="1" style="stop-color:#FFFFFF"/>
	</linearGradient>
	<path class="st7" d="M121.4,33.1c-1.3,0.6-1,2.2-0.1,2.2c0.9,0,3.1-1,3.7-0.2c0.6,0.8,2.4,0.2,2.2-0.6c-0.1-0.8,0.6-3.9-0.6-3.9
		C125.3,30.5,123.5,32.1,121.4,33.1z"/>
	
		<linearGradient id="SVGID_9_" gradientUnits="userSpaceOnUse" x1="142.2854" y1="466.8151" x2="142.2854" y2="472.7663" gradientTransform="matrix(1 0 0 -1 0 502)">
		<stop  offset="0" style="stop-color:#FFFFFF"/>
		<stop  offset="1" style="stop-color:#FFFFFF"/>
	</linearGradient>
	<path class="st8" d="M136.3,31.1c-0.1,1,0.9,2,2.2,2c1.3,0,4.2-0.8,4.5-0.2c0.1,0.8-0.1,1.4,1.5,1.6c1.5,0.2,2.2,0.6,3.1,0.6
		s0.6-2-0.1-3.3c-0.7-1.4-0.6-1.2-2.5-2s-4-0.8-5.2-0.6C138.1,29.4,136.6,29,136.3,31.1z"/>
	
		<linearGradient id="SVGID_10_" gradientUnits="userSpaceOnUse" x1="144.5043" y1="458.197" x2="144.5043" y2="464.5999" gradientTransform="matrix(1 0 0 -1 0 502)">
		<stop  offset="0" style="stop-color:#FFFFFF"/>
		<stop  offset="1" style="stop-color:#FFFFFF"/>
	</linearGradient>
	<path class="st9" d="M138.6,38c-0.9,1,0,4.1-0.3,4.3c-0.3,0.2,0.1,1.6,1,1.4c0.9-0.2,1.3-3.3,1.9-3.3s4-1,4.6,0.6s0.6,0.8,2.1,1
		c1.5,0.2,2.7-2,2.8-2.8c0.1-0.8-0.7-2.2-2.8-2C145.9,37.8,139.5,37,138.6,38z"/>
	
		<linearGradient id="SVGID_11_" gradientUnits="userSpaceOnUse" x1="147.4599" y1="449.235" x2="147.4599" y2="456.8364" gradientTransform="matrix(1 0 0 -1 0 502)">
		<stop  offset="0" style="stop-color:#FFFFFF"/>
		<stop  offset="1" style="stop-color:#FFFFFF"/>
	</linearGradient>
	<path class="st10" d="M142.6,45.9c-0.7,0.6-0.3,2.8,0.9,3.1c1.2,0.2,3.3-1,3.6-0.2c0.1,0.8,1,4.9,3,3.7c1.9-1.4,1.9-2.6,2.4-2.6
		c0.6-0.2-0.1-3.5-1-4.3c-0.9-0.8-3.7-0.2-4.5,0.2C146.2,46.1,143.8,44.9,142.6,45.9z"/>
	
		<linearGradient id="SVGID_12_" gradientUnits="userSpaceOnUse" x1="158.9935" y1="453.6576" x2="158.9935" y2="458.1797" gradientTransform="matrix(1 0 0 -1 0 502)">
		<stop  offset="0" style="stop-color:#FFFFFF"/>
		<stop  offset="1" style="stop-color:#FFFFFF"/>
	</linearGradient>
	<path class="st11" d="M155.1,47.3c0.1,0.4,1,1.2,2.4,0.8c1.5-0.2,3.6-0.6,4.5-0.8c1-0.2,1.2-2.4,0.1-2.6c-1-0.2-1.9-1.4-3-1
		C158.3,44.3,154.8,46.3,155.1,47.3z"/>
	
		<linearGradient id="SVGID_13_" gradientUnits="userSpaceOnUse" x1="156.7928" y1="459.3218" x2="156.7928" y2="462.0384" gradientTransform="matrix(1 0 0 -1 0 502)">
		<stop  offset="0" style="stop-color:#FFFFFF"/>
		<stop  offset="1" style="stop-color:#FFFFFF"/>
	</linearGradient>
	<path class="st12" d="M154.8,41c-0.4,1.6,4.5,2.4,3.9,0.6C158.1,39.8,155.3,39.2,154.8,41z"/>
	
		<linearGradient id="SVGID_14_" gradientUnits="userSpaceOnUse" x1="168.7905" y1="458.6609" x2="168.7905" y2="470.1824" gradientTransform="matrix(1 0 0 -1 0 502)">
		<stop  offset="0" style="stop-color:#FFFFFF"/>
		<stop  offset="1" style="stop-color:#FFFFFF"/>
	</linearGradient>
	<path class="st13" d="M155.7,33.3c-1.3-0.4-3.7-1-3.7-1.4c0-0.4-0.6,2,0.6,2.8s3.1,2,4.6,2.8c1.5,0.8,4.2,0.8,5.1,2.4
		c0.9,1.4,3.9,2.6,3.9,2.6l3.6,0.4c0,0,2.4-0.8,4.9-0.4c2.5,0.2,6.3,0.8,8.4,0.6c2.1-0.2,2.4-1,2.7-1.6c0.1-0.6-3.9-1.8-4.9-1.6
		c-1,0.2-6.6,0.2-8.2,0c-1.6-0.2-3.7-0.2-5.1,0c-1.3,0.2-2.2-1.2-3.3-2c-1-0.8-3.1-3.3-4.5-3.5C158.3,34.3,158.4,34.3,155.7,33.3z"
		/>
	
		<linearGradient id="SVGID_15_" gradientUnits="userSpaceOnUse" x1="305.6142" y1="428.3377" x2="305.6142" y2="437.6607" gradientTransform="matrix(1 0 0 -1 0 502)">
		<stop  offset="0" style="stop-color:#FFFFFF"/>
		<stop  offset="1" style="stop-color:#FFFFFF"/>
	</linearGradient>
	<path class="st14" d="M297.1,64.6c-0.4,1-1.3,1-0.4,3.3c0.9,2,1.5,3.3,2.4,3.3c0.7-0.2,3.4-0.2,3.7,0.8c0.3,1.2,1.2,2.2,3.1,1.4
		c1.9-0.8,3.4-1.2,3.9-2c0.4-0.8,3.4-1,3.4-1s2.4-2.6,1.5-3.7c-0.9-1-3-1.8-4-2c-1-0.2-1.9,1-4.2,1c-2.2,0-3.6,1.2-4.5,0
		C301,64.4,297.4,64,297.1,64.6z"/>
	
		<linearGradient id="SVGID_16_" gradientUnits="userSpaceOnUse" x1="258.3291" y1="420.1371" x2="258.3291" y2="496.5294" gradientTransform="matrix(1 0 0 -1 0 502)">
		<stop  offset="0" style="stop-color:#FFFFFF"/>
		<stop  offset="1" style="stop-color:#FFFFFF"/>
	</linearGradient>
	<path class="st15" d="M200.2,34.9c1.3,1.2,2.1,0.4,3.7,0.8s3,3.7,3.9,4.3c0.9,0.4,2.1,0,2.7-0.8c0.6-0.8,1.3-4.1,1.3-4.1
		s0,3.1,1.3,3.7c1.3,0.6,4.6-0.4,5.5-0.2c0.9,0.2,6.1,1,7.5,2c1.5,0.8,4.9,1.4,6,3.5s1,8.8,1.6,9.6c0.6,0.8,2.4-2.4,2.8-3.3
		c0.4-0.8,2.7-0.2,3.6,0.8c0.7,1,2.5,3.7,2.4,4.7c-0.1,1-0.4,2.6-1,2c-0.6-0.6-1.8-0.4-1.3-1.6c0.4-1.2,0.6-3.7-0.1-3.7
		c-0.9,0-1.6,0-1.6,0s-1.6-0.6-2.7,1.6c-1,2.2-0.1,4.5,0.6,4.5c0.7,0,2.5,0,2.5,0.6c0,0.6-1.9,2.4-1.8,3.5s1.5,4.7,1.9,5.5
		s2.7,1.4,3.4,1.6c0.6,0.2-1.5,0.2-1,1.4c0.6,1,1.5,3.7,2.7,4.3c1.2,0.6,4.6,3.3,5.1,4.5c0.4,1.2,3.1-0.8,3.6-1
		c0.6-0.2,0.4,3.3,1.9,3.3c1.5,0.2,2.1-0.2,3.4-1.6c1.3-1.4,1-3.3,1-4.5c0.1-1.4,0-2.4,1.5-2c1.5,0.4,2.2-0.2,2.1-1.8
		c-0.1-1.4-1.3-3.3,1-3.9c2.4-0.4,3.6-2.4,4.9-2.4c1.5,0,5.4,0.8,5.8,0c0.4-0.8,2.4-4.3,3.6-4.3c1.2-0.2,4.5-0.4,7.3-1
		c2.8-0.6,6-2.8,7-2.6c1,0.2,3.4,0.2,2.7-0.8c-0.7-0.8-1.9-3.1-3.6-3.1c-1.6,0-0.1-3.3,0.3-3.3s2.7,0.4,2.5,2
		c-0.1,1.4,0.6,3.5,2.8,2.8c2.2-0.6,1.9-2.8,1.5-3.5c-0.4-0.6-0.7-2-1.2-3.3c-0.4-1-0.3-2.4,1.9-2.6c2.4-0.2,5.5,1.2,5.4-1.2
		c-0.1-2.4,0-4.9,0.6-6.3c0.6-1.4,2.1-2.2,1.3-2.6s-1.8,0.6-2.5-1.6c-0.7-2.2,0.6-3.9,1.5-4.9c0.9-0.8,5.5-6.7,8.1-7.7
		c2.5-0.8,4.3-4.3,2.5-5.1c-1.8-0.8-5.2-2-7.6,0.2c-2.4,2.4-3.6,4.7-6.3,3.9c-2.7-0.8-2.4,0.2-2.4-3.9c-0.1-4.3-3-11.8-5.4-11.2
		c-2.4,0.4-2.4,0.4-2.4,0.4s-40.6-0.2-41.9,1.4c-1.3,1.8-2.5,6.3-3.7,5.1s-1.5-4.3-3-3.1s-0.1,4.3-1.5,6.3s-5.1,1.8-6.1,1
		s-2.2-1.4-6.6-1c-4.5,0.4-9.2,2-8.2,3.9c1,1.8-1.9,2.8-2.7,2c-0.7-0.8-4.3,1-4,2.8c0.1,1.8-0.6,3.9-2.4,3.5c-1.9-0.4-3.1,1-3.3,2.6
		c-0.1,1.4-4.3,2.6-4.6,2.6C203.6,33.3,198.1,33.1,200.2,34.9z"/>
	
		<linearGradient id="SVGID_17_" gradientUnits="userSpaceOnUse" x1="186.3126" y1="314.0884" x2="186.3126" y2="322.5631" gradientTransform="matrix(1 0 0 -1 0 502)">
		<stop  offset="0" style="stop-color:#FFFFFF"/>
		<stop  offset="1" style="stop-color:#FFFFFF"/>
	</linearGradient>
	<path class="st16" d="M177.5,181c-0.1,2.2,1.5,1.6,3.4,1.6c1.9,0,5.5-0.4,6.1,0.6c0.6,1.2,3.6,2.8,4.5,3.9c0.9,0.8,3.4,1.2,3.6,0.2
		c0.1-0.8-1.8-3.5-3-3.3c-1.2,0.2-3.6-1.6-4.9-3.3c-1.3-1.6-3.9-1.6-4.8-1.6C181.4,179.4,177.5,181,177.5,181z"/>
	
		<linearGradient id="SVGID_18_" gradientUnits="userSpaceOnUse" x1="189.9117" y1="324.9926" x2="189.9117" y2="327.3213" gradientTransform="matrix(1 0 0 -1 0 502)">
		<stop  offset="0" style="stop-color:#FFFFFF"/>
		<stop  offset="1" style="stop-color:#FFFFFF"/>
	</linearGradient>
	<path class="st17" d="M189.6,174.7c-1.5,0.2-1.2,2.6,0.6,2.2C192,176.6,191.1,174.5,189.6,174.7z"/>
	
		<linearGradient id="SVGID_19_" gradientUnits="userSpaceOnUse" x1="190.6899" y1="304.8484" x2="190.6899" y2="308.6324" gradientTransform="matrix(1 0 0 -1 0 502)">
		<stop  offset="0" style="stop-color:#FFFFFF"/>
		<stop  offset="1" style="stop-color:#FFFFFF"/>
	</linearGradient>
	<path class="st18" d="M190.3,193.4c-1.5,0.4-1.2,4.5,0.6,3.7C192.9,196.3,191.8,193,190.3,193.4z"/>
	
		<linearGradient id="SVGID_20_" gradientUnits="userSpaceOnUse" x1="212.582" y1="307.3347" x2="212.582" y2="311.1198" gradientTransform="matrix(1 0 0 -1 0 502)">
		<stop  offset="0" style="stop-color:#FFFFFF"/>
		<stop  offset="1" style="stop-color:#FFFFFF"/>
	</linearGradient>
	<path class="st19" d="M212.3,191c-1.5,0.4-1.2,4.5,0.6,3.7C214.7,193.9,213.8,190.6,212.3,191z"/>
	
		<linearGradient id="SVGID_21_" gradientUnits="userSpaceOnUse" x1="202.6486" y1="307.877" x2="202.6486" y2="314.1788" gradientTransform="matrix(1 0 0 -1 0 502)">
		<stop  offset="0" style="stop-color:#FFFFFF"/>
		<stop  offset="1" style="stop-color:#FFFFFF"/>
	</linearGradient>
	<path class="st20" d="M197.2,191.8c0,0,1.8,0.4,3,0.4s1.8,0.8,2.8,1.6c1,0.6,2.8-0.8,3.4-0.8s1.5,2.6,1.6-0.2
		c0.1-2.8-1.9-4.3-3.3-4.7s-2.8,0-3.9,0.2C200,188.6,197.2,191.8,197.2,191.8z"/>
	
		<linearGradient id="SVGID_22_" gradientUnits="userSpaceOnUse" x1="374.7751" y1="168.08" x2="374.7751" y2="361.1001" gradientTransform="matrix(1 0 0 -1 0 502)">
		<stop  offset="0" style="stop-color:#FFFFFF"/>
		<stop  offset="1" style="stop-color:#FFFFFF"/>
	</linearGradient>
	<path class="st21" d="M335.8,147.7c0.6-0.4,3.3-1.6,4.8-2.4c1.5-0.8,6.3-3.3,7-3.3c0.6,0,8.9,0.2,10.1-0.4s4.2-1.8,5.5,3.3
		c1.3,4.9,0,3.3-1.3,4.1c-1.3,0.8,0.4,2.8,1.2,2.8c0.6,0,3,2.8,4.2,2.8s4,1.6,4,1.6s2.8,2.8,4.3,2.8s2.7,1.6,4.3-0.6
		s3.7-4.9,5.5-4.5c1.6,0.4,3.4,2.2,5.7,2.2c2.1,0,6.1-0.4,6.9,0.6c0.6,1.2-4.5,4.9-4.2,5.9c0.3,0.8,1,0.6,2.7-2
		c1.6-2.6,4.2-2.6,6.1-3.5c1.9-0.6,3,3.7,3.3,4.9c0.3,1.4,1.8,3.9,3,6.7c1.2,2.8,2.4,6.9,3.6,10.2c1.3,3.3,2.1,7.9,3.4,10
		s2.5,5.5,3.3,8.1c0.9,2.6,2.8,5.5,3.4,5.7c0.6,0.2,3.4,5.5,3.6,6.7c0.1,1.4-1,4.3,1.6,4.5c2.7,0.2,4.9-1.6,5.8-2
		c0.9-0.4,7.3-3.9,8.1-2.4c0.9,1.4-1.2,7.3-1.3,8.8c-0.1,1.6-4.9,9.2-5.1,11.2c-0.1,2-3,5.7-4.8,6.1c-1.8,0.4-5.7,6.7-7,8.7
		c-1.3,2-3.4,6.5-4.5,6.9c-1,0.4-1.3,5.3-0.9,6.1s0.1,6.3,1.6,8.1c1.5,1.8,1.9,3.3,1.3,4.7c-0.6,1.6,0.3,5.3,0,8.1s-2.1,6.7-2.8,7.7
		c-0.6,0.8-4.8,2.4-6.1,4.7c-1.3,2.2-2.5,4.3-2.1,5.5c0.3,1.2,1.6,6.7,1.5,8.1c-0.1,1.4-3.3,3.3-4.6,4.1c-1.3,0.8-0.6,2.6-0.3,4.5
		c0.3,1.8-2.4,4.7-3.4,6.3c-1.2,1.6-4.3,6.9-6.4,9s-4.6,3.7-6.7,3.5c-2.1-0.2-6.3,0-7.2,1.2c-0.9,1.2-1.9,0.8-3.6-0.2
		c-1.6-1.2-1.8-2.6-1.9-5.3c-0.1-2.4-0.6-4.1-0.6-4.1s-0.4-3.9-1.9-5.7c-1.5-1.8-1.9-3.9-2.8-5.3s-0.3-4.3-0.4-6.7
		c-0.1-2.4-1.2-6.3-1.9-7.9c-0.9-1.6-2.5-5.9-3.1-7.5c-0.6-1.6-1.5-4.7-1.3-9.2c0.1-4.5,2.5-6.9,3.9-8.3c1.3-1.4,0.1-3.3-1-5.9
		c-1.2-2.6,0.1-7.3-0.9-8.7c-1-1.6-4.3-10-6.1-11.4c-1.8-1.4-1.9-1.8-1-4.9c1-3.3,0-6.3,1.6-8.3c1.6-2,0.9-3.5-1-4.7
		c-1.8-1.4-1.2-2-2.7-0.4c-1.5,1.6-3.4,2.4-4.6,0.8c-1.2-1.6-0.9-4.1-3-5.9c-2.1-1.8-4.9,0.6-5.8,1.2c-0.9,0.4-3.1,2.4-5.5,2.8
		c-2.2,0.4-4-0.2-6.3-0.2s-4.3,0.2-4.6,1.8c-0.3,1.6-0.9,2.4-2.4,0.8c-1.5-1.6-4.5-5.3-4.5-5.3s-4.2-4.5-4.9-7.1
		c-0.9-2.6-2.4-4.5-5.5-6.5s-1.3-4.3-1.6-6.5c-0.3-2.2-1.9-3.3-1.2-3.5c0.9-0.2,0.6-1.8,2.5-4.9c1.8-3.3,0.6-6.5,0.3-8.3
		c-0.3-1.8-1.9-4.5-0.3-7.5c1.6-2.8,3.3-9.2,4.6-11c1.3-1.8,4.6-4.3,6.4-5.5c1.8-1.2,0.6-4.1,1.6-7.5c1-3.5,2.5-4.9,3-4.9
		s2.4-2.4,4.3-3.9C331.7,146.6,335.2,148.1,335.8,147.7z M408.1,240.5c-0.4-1-3.3-0.6-3.9,0.4c-0.4,1.2-1,6.3,0.4,6.7
		C406.3,248,409,242.3,408.1,240.5z"/>
	
		<linearGradient id="SVGID_23_" gradientUnits="userSpaceOnUse" x1="433.2794" y1="192.5283" x2="433.2794" y2="228.31" gradientTransform="matrix(1 0 0 -1 0 502)">
		<stop  offset="0" style="stop-color:#FFFFFF"/>
		<stop  offset="1" style="stop-color:#FFFFFF"/>
	</linearGradient>
	<path class="st22" d="M438.2,273.8c-2.1-0.8-2.4,2.8-4,5.5c-1.6,2.4-3.4,4.5-4.2,4.3c-0.6-0.2-4.3,1.6-3.1,4.9
		c1.2,3.5,1,6.7-0.1,8.3c-1.2,1.6,1,6.1,0.6,8.5c-0.3,2.4,0.4,4.1,2.8,4.1s3.1-1.2,4.2-4.1c1-2.8,1.2-5.9,2.1-8.3
		c1-2.4,1.8-7.7,2.4-9c0.4-1.4,1.5-5.7,1.3-8.1C440,277.5,439.4,274.2,438.2,273.8z"/>
	
		<linearGradient id="SVGID_24_" gradientUnits="userSpaceOnUse" x1="499.102" y1="276.8438" x2="499.102" y2="286.3404" gradientTransform="matrix(1 0 0 -1 0 502)">
		<stop  offset="0" style="stop-color:#FFFFFF"/>
		<stop  offset="1" style="stop-color:#FFFFFF"/>
	</linearGradient>
	<path class="st23" d="M498.3,215.8c-1,0.6-1.9,8.3,0,9.2s3.1-3.7,2.5-4.7C500.1,219.1,499.8,214.8,498.3,215.8z"/>
	
		<linearGradient id="SVGID_25_" gradientUnits="userSpaceOnUse" x1="358.9753" y1="365.2004" x2="358.9753" y2="370.4236" gradientTransform="matrix(1 0 0 -1 0 502)">
		<stop  offset="0" style="stop-color:#FFFFFF"/>
		<stop  offset="1" style="stop-color:#FFFFFF"/>
	</linearGradient>
	<path class="st24" d="M359,131.6c-1.5,0-2.4,3.5-1.3,4.5c1,1.2,1.9,0.8,2.8-0.6C361.3,133.8,359.8,131.6,359,131.6z"/>
	
		<linearGradient id="SVGID_26_" gradientUnits="userSpaceOnUse" x1="347.191" y1="366.0231" x2="347.191" y2="368.0682" gradientTransform="matrix(1 0 0 -1 0 502)">
		<stop  offset="0" style="stop-color:#FFFFFF"/>
		<stop  offset="1" style="stop-color:#FFFFFF"/>
	</linearGradient>
	<path class="st25" d="M346.3,135.3c-0.4,0.8,1.3,1.2,1.6,0.2C348.4,134.4,347.5,132.8,346.3,135.3z"/>
	
		<linearGradient id="SVGID_27_" gradientUnits="userSpaceOnUse" x1="369.0294" y1="358.3881" x2="369.0294" y2="363.2708" gradientTransform="matrix(1 0 0 -1 0 502)">
		<stop  offset="0" style="stop-color:#FFFFFF"/>
		<stop  offset="1" style="stop-color:#FFFFFF"/>
	</linearGradient>
	<path class="st26" d="M366,139.1c-0.6,0.4,1,2,1.8,2.4c0.9,0.4,1.5,1.8,2.1,2c0.6,0.2,2.8,0,2.1-2.2c-0.6-2.2-2.1-2.2-2.7-2.2
		C369,139.1,366.9,138.3,366,139.1z"/>
	
		<linearGradient id="SVGID_28_" gradientUnits="userSpaceOnUse" x1="326.0142" y1="397.0347" x2="326.0142" y2="408.6567" gradientTransform="matrix(1 0 0 -1 0 502)">
		<stop  offset="0" style="stop-color:#FFFFFF"/>
		<stop  offset="1" style="stop-color:#FFFFFF"/>
	</linearGradient>
	<path class="st27" d="M326.5,93.3c-1.5,0.4-1.6,2.4-2.7,2.4c-1,0-2.1,0.4-1.8,2c0.3,1.6,1,2.6,0,3.5c-1,0.6,0.1,3.5,1.5,3.7
		s2.8-1.2,4-1.8c1.2-0.6,2.8-2,2.8-4.1s-0.3-3.9-1-4.7C328.7,93.3,327.6,93.1,326.5,93.3z"/>
	
		<linearGradient id="SVGID_29_" gradientUnits="userSpaceOnUse" x1="336.45" y1="394.5137" x2="336.45" y2="417.5736" gradientTransform="matrix(1 0 0 -1 0 502)">
		<stop  offset="0" style="stop-color:#FFFFFF"/>
		<stop  offset="1" style="stop-color:#FFFFFF"/>
	</linearGradient>
	<path class="st28" d="M328.3,86.6c-1.3,0.6-0.9,2.8-0.1,4.1c0.6,1.2,1.8,3.7,3.4,4.5s5.1,1.8,3.9,2.6c-1.3,0.8-3.6,3.5-4,4.7
		c-0.3,1.4,2.8,2.6,2.8,2.6s-1,1.6-0.1,2c0.9,0.4,1.3-1.6,2.7-1.6s4,1.2,5.4,1.2c1.3,0,3.4-2.4,3.3-4.1c-0.1-1.6-1.8-4.1-3.3-4.9
		c-1.5-0.8-3.1-4.9-4.2-5.9c-1-0.8,1-3.3-0.1-4.7c-1.2-1.6-1.9-1.4-3.3-2.4c-1.3-1.2-2.5,0.2-3.3,1.6
		C330.4,87.8,329.3,86.2,328.3,86.6z"/>
	
		<linearGradient id="SVGID_30_" gradientUnits="userSpaceOnUse" x1="508.1624" y1="279.8605" x2="508.1624" y2="467.9404" gradientTransform="matrix(1 0 0 -1 0 502)">
		<stop  offset="0" style="stop-color:#FFFFFF"/>
		<stop  offset="1" style="stop-color:#FFFFFF"/>
	</linearGradient>
	<path class="st29" d="M339.3,118c-0.1-2-3.4-3.9-5.7-4.3c-2.1-0.4-1.8-1.8,0.4-2c2.4-0.2,2.1-1.4,4.2-1.8c1.9-0.4,4-1.2,5.5-1.4
		c1.5-0.2,1.5-2,1.5-3.5c0-1.4,4.2-1.8,4.2-1.8s2.4-2.8,3.6-4.3c1.3-1.4,3.6-1.2,5.5-0.4c1.8,0.6-0.1-1.6-0.9-2.6
		c-0.6-1.2-0.1-3.7,0.3-4.9c0.4-1.4,3.4-2,4.3-1.6c0.9,0.4,0,2.4,0.1,4.3c0.1,1.8,1.5,2.8,1.5,2.8l1.3-0.2c0,0,0,0,2.1,0
		c2.1,0,1.5,1.8,3.1,1.2c1.6-0.6,3.6-1.6,4.3-2c0.6-0.4,2.5-0.4,4.9,0.6c2.5,1.2,1.2-2,1.6-3.9c0.4-1.8,1.5-4.9,3.1-4.7
		c1.6,0.2,3,1.6,4.3,0.4c1.3-1.2-2.5-2.6-2.5-3.5c0-0.6,3.1-0.6,6-0.8c2.8-0.2,4.5,0,5.8-0.4s-1-3.7-1.5-3.7s-3.9,0.4-5.5,0.2
		c-1.6-0.2-3.4,1.4-4.9,1.8c-1.5,0.4-1.8-2.6-2.7-4.1c-0.9-1.4-1.2-3.9,1-5.3c2.1-1.4,6-4.3,6.6-5.7c0.6-1.4-2.7-1.2-5.8-0.8
		c-3.1,0.2,0.4,1.4-2.5,5.5s-4.5,1.4-6.7,4.1c-2.4,2.6-0.6,2.8,1.5,3.9c2.1,0.8,0.3,3.7-0.1,4.3c-0.4,0.6-3,3.3-2.7,4.9
		c0.3,1.8-1.6,2.8-1.6,2.8s-6.1,1.8-7.3,2c-1.2,0.2-1.5-1.2-1.2-2.4c0.3-1.4-1.3-4.5-1.5-6.5c-0.1-2-2.7,0.8-2.8,2.2
		c-0.1,1.4-3.3,1.6-5.1,0.6c-1.8-0.8-2.8-4.3-2.5-4.9c0.3-0.6-1-4.1-1-4.9s3.6-4.5,6.7-5.5c3.1-0.8,7.2-6.1,9.2-8.3
		c2.1-2.2,3.1-4.9,3.9-5.7c0.6-0.6,12.1-4.7,16.3-5.7c4.2-0.8,13.3,1.2,14.8,1.6c1.5,0.4,2.4,1.2,6,2.8c3.6,1.8,6.7,1.8,9.1,2.2
		c2.4,0.4,3.9,1.4,5.4,2.2c1.5,0.8,0,1.6-3.6,3.3c-3.6,1.6-6.1,1.2-8.1,0.2c-1.9-0.8-3.1-0.8-1.6,0.4c1.5,1.4,1,2,1.2,4.1
		c0.1,2,2.5,0.2,3-0.2c0.4-0.4,0.4-1.4,2.4,0.2c1.8,1.6,2.5,0.6,3.3,0.4c0.9-0.2,0.1-2.6,0.6-3.7c0.4-0.8,2.5-0.8,3-1.4
		c0.4-0.4,1.6-1.2,2.7-1.4c1-0.2,0.9,2,1.8,2.6c1,0.6,0.4-2.8,0.1-3.9c-0.3-0.8-0.6-3.5-0.1-4.1c0.4-0.6,4-1.2,4.8-0.2
		c0.9,0.8-1.3,3.7-0.9,5.3c0.4,1.6,1.6-0.8,2.5-2.2c0.9-1.4,2.7,0,5.7-0.6c3-0.6,2.4-2.8,5.5-1.6c3.1,1.4,2.4,1.4,3.3,0
		c1-1.4,2.8,0.2,4.6-0.6c1.8-0.8,1.8,0,3.1,0.8c1.3,0.8,3-1.8,3.6-2.6c0.6-0.8,3.3-0.8,4.6-0.6c1.3,0.2,3,1.4,4.3,1.4
		c1.3,0,3.4,1.4,3.4,1.4s2.8,1.4,3.4,0.4c0.6-0.8-0.1-2-2.7-3.7c-2.5-1.6-1.5-4.3,0-4.5c1.5-0.2,1.3-1.4,2.5-2.2
		c1.2-0.8,2.7-4.3,4-3.7c1.3,0.6,2.5,2,4.2,3.3c1.6,1.2,0.1,2.6-0.1,3.9c-0.3,1.2,0.3,5.5,0.9,6.1c0.4,0.6-0.4,3.3-1.8,4.3
		c-1.3,1.2-3.1,3.7-2.7,4.1c0.4,0.4,4.5-2,4.5-2s2.5-4.1,3.6-5.3c1.2-1.2,2.4-1.2,2.7,0.2c0.3,1.4,2.1,1.8,3.9,0.8
		c1.6-0.8,0-1.6-0.1-3.7c-0.1-2-2.8-0.8-4.3-0.4c-1.5,0.4-2.7,2.4-3.1,2.4s-0.4-1.4-0.1-3.5c0.3-2-0.6-3.3-0.6-4.3
		c0-1.2,0.4-1.2,1.6-3.5c1.2-2.2,1.2,1.6,1.3,3.7c0.1,2,1.3,1.2,2.4,0.8c1-0.2,0.4-2.8,1.3-4.3c0.9-1.4,2.7-1.6,4.3,0.4
		s1.5,1.4,3.4,2.2c1.9,0.8,2.1,1.2,2.4,3.3c0.1,2,1.5,2.2,2.4,1.6c0.9-0.6,0.1-3.5-0.3-4.3c-0.4-0.8-4.5-2.4-5.8-4.1
		s0.6-1.6,2.1-1.6c1.5,0,4.3,0.2,4.3,0.2s3.1-0.8,4.8-2.4c1.6-1.6,2.8-1.6,4.5-2.4c1.6-0.8,4.3-0.8,6-0.4c1.6,0.4,2.8-0.8,4.5-1.8
		c1.6-0.8,3.4-1.6,4-1.2c0.4,0.4,4.6,1.8,5.2,1.6c0.6-0.2,2.1-0.8,4.8-2.2c2.7-1.4,1.5-1.2,2.5-1.8c1-0.6,2.7-0.8,6.1,1.2
		c3.4,2,0,0,1,1.4c1,1.4,1.5-0.2,3.9-0.6c2.4-0.4,3.9,0,5.2,0.2c1.5,0.2,4.8,0.2,6.3,1.6s-1,4.3-1.8,5.3c-0.9,0.8,1.3,1.6,1.9,1.4
		c0.6-0.2,6.1,0,8.7,0.4c2.5,0.4,3.4,2,4.6,2s3-0.6,3.6-1.6c0.6-0.8,4.8-1.4,6.1-1.6c1.3-0.2,4.9,0,5.5,0.4c0.4,0.4,1,2.6,1,4.5
		s1.5,3.5,2.7,3.7c1.2,0.2,3.3-2.6,4.2-3.3c0.9-0.4,1.8,2,2.4,1.4c0.4-0.6,4.6,0.2,6.3-0.8c1.6-1.2,2.7,0,3.4-0.4
		c0.9-0.4,2.1-2.8,2.1-3.9c0-0.8,0.6-1.6,0-2.8c-0.6-1.4-3-0.4-5.5-1.4c-2.5-0.8-0.1-2.2,0.9-3.3c1-0.8,2.7,0,4.3,0.4s1-0.6,1.8-0.6
		c0.9,0,3.7,1.2,5.5,1.2s3,2.4,3,2.4s-4.6,1.8-5.7,1.8s-0.3,1.8,0.4,1.8c0.9,0,1.9,0.6,3.1,1.8c1.2,1.2,6.3,0,7,0
		c0.6,0,2.7,1.2,4.6,2.6c1.9,1.6,3.3,2.2,3.3,2.2s2.8,0,5.7-0.4c2.8-0.4,6.4-0.4,7.2,0.2c0.6,0.6,2.5,1.4,3.7,2.8
		c1.3,1.6,2.4,0.8,4.2,0.6c1.8-0.2,3.6-0.6,5.2-0.6s7.2-0.2,8.1,1.8c1,2,2.1,1.6,2.1,1.6s1.5-3.7,2.1-4.3s2.8,0.4,4.2,1.4
		c1.3,0.8,7.8,0,9.4,0.4c1.6,0.4,4,2.6,2.7,4.5c-1.3,1.8,1,4.9,0.4,6.7c-0.4,1.8-1.8,2-3.1,2.4c-1.3,0.4,1.3,2.6,2.5,4.3
		c1.2,1.6-0.6,2-1.8,1.4c-1.2-0.6-4.2,0.2-7.9,1.6c-3.9,1.4-5.4,4.1-9.2,4.3c-4,0.2-2.4-0.2-7.3-0.2c-4.9,0-4.8,1.8-5.8,4.1
		s0.4,1.8,0,3.7c-0.4,1.8-1.3,3.9-1.3,5.5c0,1.6-3,1.8-4,3.3c-1,1.4-2.7,4.7-5.5,7.1c-2.8,2.4-4.8,6.3-4.8,6.3s0.4-3.9,1.8-6.5
		c1.3-2.6-1.5-6.5-1.6-9.6c-0.1-2.8,0.9-3.9,2.5-6.5c1.6-2.6,5.7-3.7,7.3-4.9c1.6-1.4,8.5-7.7,8.5-7.7s-1.3,1.2-3,2
		s-3.6,2.6-4.9,2.6c-1.3,0-0.9-1.8-1-3.7c-0.1-1.8-3.3-0.4-4.5,1.4s-3.3,2.8-5.7,5.3c-2.4,2.2-1.6,2-3.1,2.2c-1.5,0.2-4-1.2-5.1-2.2
		c-1.2-1.2-2.4,0.8-6,1.2c-3.6,0.2-7.8-0.4-9.4-0.2c-1.6,0.2-5.8,6.7-8.2,7.9c-2.5,1.2-5.7,3.3-4.8,4.7c0.9,1.6,2.4-1.4,3-1.4
		c0.6,0-0.4,3.3,1,3.3s2.2-1.2,3.9-1.4c1.5-0.2,2.7,1.6,3,4.1c0.3,2.4-0.6,4.5-1.3,7.7c-0.6,3.3-1.6,6.3-4.3,9c-2.7,2.6-7,7.7-7.8,9
		c-0.9,1.4-3.9,0.2-4.3-0.6c-0.4-0.8-1.9,2-3.1,2.6c-1.2,0.6-2.4,2-2.4,3.9c0,1.8-3.3,1.8-3.3,2.8c0,1.2,1.9,4.3,2.8,5.9
		c0.9,1.6-0.1,6.5-1.6,7.7c-1.5,1.2-2.1,2.4-4.2,0.8c-1.9-1.6-0.3-2.4,0.4-4.9c0.9-2.4-0.9-3.9-1.2-4.5c-0.3-0.6-1.6,1.4-2.4,1.6
		c-0.6,0.2-0.6-2-0.1-3.5c0.4-1.4-0.3-4.3-0.9-4.5c-0.4-0.2-3.6,3.5-4.9,3.3c-1.3-0.2-0.1-4.3,0.3-5.5c0.4-1.2-1-0.2-1.9,0.8
		c-1,1.2-3.1,3.7-4,3.5c-0.9-0.2-2.5,1.8-1.2,3.3c1.3,1.4,1.8,2.4,2.7,2.6c0.9,0.2,3-0.4,3.9-0.6c0.9-0.2,2.5,1.6,0.9,3.7
		s-5.1,2.2-4.5,3.7c0.6,1.4,2.4,3.5,3.6,6.5c1.3,3.3,0.9,6.5,1.2,9c0.3,2.4-4.8,7.7-6.3,9.2c-1.5,1.6-3,5.5-5.5,7.3
		c-2.5,1.8-7.8,3.5-8.7,2.6c-0.9-0.6-3.1,1.2-3,3.7c0.1,2.4,1.3,2.2,1.3,2.8c0,0.6-1.6,3.5-2.4,4.5c-0.6,1.2-3,0-2.7-3.5
		c0.3-3.5,1.9-4.7,1.8-6.3s-1.6-2.4-2.7-1.2c-1,1.4-4.2,5.3-4.2,5.3s1.2,4.1,2.7,5.7c1.5,1.6,2.5,3.9,4.5,7.1c1.9,3.5,0.4,6.3,0,8.8
		s-2.1,2.4-3.4,2.8c-1.3,0.4-1.6,1.2-2.1,2.4c-0.4,1.4-2.8,2.8-3.1,1.8c-0.3-1.2-2.5-3.9-2.5-3.9s-1.5-4.1-3.6-6.1
		c-2.1-2-3-2.8-3-0.8s-1.3,5.9-1.3,7.1c0,1.4-3-4.1-3-6.3c0-2.2-0.4-6.1-0.3-9.8s-3.4-0.2-3.4-0.2s-1.6,3.9-2.5,3.9s-1.2-3.3-1-5.9
		c0.1-2.6-0.7-5.3-1.3-6.1c-0.4-0.8-3.3-4.5-3.7-6.9c-0.4-2.4-1.5-1.6-2.5-0.2c-1,1.4-0.6,1.4-4.6,1.4c-4,0-3.9,3.5-5.8,5.5
		c-1.9,2-3.6,5.9-6,7.3c-2.4,1.4-3.3,2.6-3.3,4.3s0,5.7-0.4,7.9c-0.4,2.2-0.9,5.5-1.9,7.7c-1.2,2.2-2.1,5.9-3.1,5.9
		c-1,0-1.3-3.1-1.3-5.3c0-2-2.8-6.7-3.4-8.3c-0.6-1.6-3.1-8.5-3.1-8.5s-1.9-7.5-1.8-9.6s0.1-7.7,0.1-7.7s-2.7,3.7-3.9,3.5
		c-1.2-0.2-2.4-2.6-2.1-5.7c0.1-2.8-1.9-2.6-3.1-3.3c-1.2-0.4-2.7-4.5-3.4-4.5c-0.9,0-1.3,0-1.9,1.4c-0.6,1.4-4.2,1.2-4.9,1.2
		c-0.9,0-5.8-0.2-7.3-0.8c-1.5-0.6-3.1-4.7-4-5.1c-0.7-0.4-3.3,2.4-4.3,2c-1-0.4-3-2.6-5.1-4.1c-2.1-1.4-2.8-4.5-3.6-6.5
		c-0.9-2-3.6,1.2-3.3,3.5c0.3,2.2,4,5.3,4,6.7c0,1.6,0.6,2,2.5,4.1c1.8,2,0.3,3.3,1.5,3.7s2.8-1.8,4.5-2.8c1.6-1.2,1.5-2.6,2.4-2.6
		c0.9,0,0.6,2.8,1.9,3.3c1.3,0.2,4.8,2.8,5.7,4.7c0.9,1.8-0.9,2.8-1.5,4.5c-0.6,1.6-2.7,6.1-4.3,7.9c-1.6,1.8-3.4,4.3-6,4.9
		c-2.5,0.6-2.8,2.4-4.8,2.6c-1.9,0.2-7.5,3.9-8.2,4.5c-0.9,0.6-5.4,2.4-6.6,1.8c-1.3-0.6-1.8-5.3-2.4-8.5c-0.4-3.5-1.2-5.3-1.6-6.5
		c-0.4-1.4-3.4-4.9-4.2-5.7c-0.6-0.6-2.4-6.1-2.5-8.3c-0.1-2.2-1.9-1.4-2.4-3.9c-0.3-2.4-2.1-5.9-2.5-7.5c-0.3-1.6-3.6,0.2-4.9,0.4
		c-1.3,0.2-3.9-1.4-3.4-4.9c0.3-3.7,1.6-3.7,3.3-3.7s1-1.2,2.7-3.5c1.6-2.2,2.1-6.7,2.4-9.8c0.1-2.8-1.2-1.6-2.5-1.2
		c-1.3,0.4-3.3,1.2-4,0.8c-0.6-0.2-3.3-1.4-3.7-0.6c-0.4,0.6-3.3,0.2-4-0.8c-0.6-1.2-4-2.4-4.3-3.5c-0.3-0.8,0-6.3-0.6-7.7
		c-0.6-1.4-2.1,0.2-3,1.2c-0.9,0.8-3.1,1.6-2.5,2.2c0.6,0.6,2.8,2,2.7,3.9c-0.1,1.8-1.6,2.2-2.5,3.3c-0.9,0.8-2.5,2.2-3,1.2
		c-0.4-1.2-2.1-6.1-2.7-6.9c-0.4-0.8-1.9-3.3-2.5-5.3c-0.4-2-2.4-2.6-3.4-4.3c-1.2-1.6-4.5-4.1-5.8-5.9s-3.6-3.3-3.9-0.8
		c-0.1,2.2,2.4,2.6,3.3,4.9c1,2.2,3.1,3.7,4.3,4.3s4.3,3.7,4.3,3.7s-1.3,0.6-2.5,0.4c-1.2-0.2-0.1,2.6-0.3,4.3
		c-0.1,1.6-1.3,1.6-1.6-0.2c-0.3-1.8-1.3-3.9-1.9-4.5c-0.6-0.6-4.9-2.4-5.7-2.8c-0.6-0.4-3.4-2.8-3.7-4.9c-0.3-2-2.8-2.2-3.4-1.8
		c-0.6,0.4-3.1,2.8-4.3,2.8c-1.2,0-3-1.2-4.3-1.4c-1.3-0.2-1.5,2.8-1.9,4.7c-0.4,1.8-2.7,0.4-3.7,2c-1.2,1.6-3.1,3.3-2.7,4.5
		c0.4,1.4,1.3,1.4-0.1,2.4c-1.5,1.2-2.4,3.5-3.9,3.7c-1.5,0.2-3.4,1.2-4.3,0.4c-0.9-0.6-1.5,2.2-1.9,2.8c-0.4,0.6-1.3-2-2.1-3.3
		c-0.9-1.2-3-0.2-3.6-0.4c-0.6-0.2-1.3-2.2-2.1-3.3c-0.9-0.8-0.6-2.8,0-3.7c0.6-0.6,1.3-1.8,0.9-3.9c-0.4-2-0.9-6.5,0.9-7.5
		c1.6-0.8,5.7,0,7.6,0c1.9,0,5.4,1,6-0.4C339.2,122.2,339.5,120,339.3,118z M401.7,78.3c-0.6,2,3.9,3.9,4.6,2.2
		C407.2,78.9,402.4,75.2,401.7,78.3z M396,133c0.3,0.8,1.9-1.4,3.3-1.4c1.3,0,4.3,0.6,5.1-0.8c0.9-1.6,3.4-1.8,5.7-1.4
		c2.1,0.4,4,2.4,5.5,2.6c1.5,0.2,5.5-0.2,6.7-0.6c1.3-0.4,1-3.7-1.2-5.3c-2.1-1.6-4-4.1-6-4.9c-1.9-0.8-2.7-1.8-1.5-2.2
		c1.2-0.4,2.7-2.2,1-2.2c-1.6,0-3.1,0.6-3.3,1.8c-0.1,1.2-1.2,2.4-1.8,2.8c-0.6,0.4-2.4,2.2-2.8,0.8c-0.4-1.4-2.4-5.5-3.1-5.7
		c-0.9-0.2-2.1,0-3.1,2.2c-1,2.2-2.1,4.5-3.1,5.5c-1,0.8-2.4,3.7-1.3,4.1C397.1,128.9,396,133,396,133z M433.9,117.1
		c-1.9,1.8-2.7,4.3-1.8,5.9c0.9,1.6,3.1,6.5,4.3,6.9c1.2,0.4,5.2,1.4,3.6,3.5s-1.9,2.6-3.4,2.4c-1.5-0.2-0.9,5.5,0.3,5.9
		c1.2,0.4,4.6,2,5.8,2.2s4.9-0.4,4.8-1.8c-0.1-1.4-0.9-6.7-2.1-8.1c-1.3-1.4,1.8-2.6,1-3.9c-0.9-1.2-1.9-0.6-2.7-2
		c-0.6-1.4-1-2.6-1.9-3.7c-1-0.8-1.8,0.8-1.6-1.6c0.1-2.4,2.5-4.1,3.4-2.6c1,1.4,4,0.6,4.6,0c0.6-0.6-1.3-2.6-1.8-4.1
		c-0.4-1.4-3.9-2.4-4.3-2s-1.8,1.8-3.1,2.8C437.6,118.2,434.9,116.1,433.9,117.1z"/>
	
		<linearGradient id="SVGID_31_" gradientUnits="userSpaceOnUse" x1="459.0509" y1="447.7208" x2="459.0509" y2="466.6159" gradientTransform="matrix(1 0 0 -1 0 502)">
		<stop  offset="0" style="stop-color:#FFFFFF"/>
		<stop  offset="1" style="stop-color:#FFFFFF"/>
	</linearGradient>
	<path class="st30" d="M453,53.2c-1.2,1.6-3.7,1.2-5.7-0.2c-1.8-1.4-4-1.6-4.9-2c-1-0.4,0.1-3.3,1.3-3.9c1.2-0.6,4.3-2.6,6.6-4.1
		c2.2-1.4,3-4.1,4.6-4.1s9.5-2.2,10.6-1.8c1,0.4,5.8,0.8,6.9-0.8c1-1.8,4.5-0.6,3.6,0.8c-0.9,1.6-3.9,5.1-5.8,4.5s-7.6-0.4-10.1,0
		c-2.5,0.4-4.8,2.4-7,4.1c-2.1,1.6-1.6,3.5-0.9,3.7C453.1,49.6,453.9,51.8,453,53.2z"/>
	
		<linearGradient id="SVGID_32_" gradientUnits="userSpaceOnUse" x1="620.3413" y1="382.9645" x2="620.3413" y2="403.89" gradientTransform="matrix(1 0 0 -1 0 502)">
		<stop  offset="0" style="stop-color:#FFFFFF"/>
		<stop  offset="1" style="stop-color:#FFFFFF"/>
	</linearGradient>
	<path class="st31" d="M620.5,98.2c-0.9,0.4-3.9-0.4-2.8,2.6c1,3.3,1.2,5.5,1,7.9c-0.1,2.4,0,7.7,0.3,8.3c0.3,0.6,1.6,2.2,2.5,1.8
		c0.9-0.4-0.3-4.9-0.3-5.9c0-0.8,1.2-2.2,1.8-2.4c0.6-0.2,0-4.1-0.9-5.7c-0.9-1.6-1.9-2.4-1.3-2.6s1.5-2,1-2.4
		C621.2,99.2,621.5,97.8,620.5,98.2z"/>
	
		<linearGradient id="SVGID_33_" gradientUnits="userSpaceOnUse" x1="620.2025" y1="372.657" x2="620.2025" y2="380.855" gradientTransform="matrix(1 0 0 -1 0 502)">
		<stop  offset="0" style="stop-color:#FFFFFF"/>
		<stop  offset="1" style="stop-color:#FFFFFF"/>
	</linearGradient>
	<path class="st32" d="M618.7,121.2c-1.2,0.4-1.6,2.6-1.6,3.5c0,0.6-4.6,2-3.1,3.9c1.5,1.8,3,0.4,5.4,0.2c2.4-0.2,4.5-1.2,4.5-1.2
		s3.4,0.2,3-2c-0.4-2.2-4.2-2.4-4.8-2.2C621.2,123.4,620,120.8,618.7,121.2z"/>
	
		<linearGradient id="SVGID_34_" gradientUnits="userSpaceOnUse" x1="606.3039" y1="344.4599" x2="606.3039" y2="372.341" gradientTransform="matrix(1 0 0 -1 0 502)">
		<stop  offset="0" style="stop-color:#FFFFFF"/>
		<stop  offset="1" style="stop-color:#FFFFFF"/>
	</linearGradient>
	<path class="st33" d="M615,130c-1.2,1-0.4,4.9-1.5,7.7c-1,2.6-1.8,5.1-2.5,5.1c-0.6,0-4.2,1.8-5.1,3.3c-1,1.4-5.8-1.2-6.4,0
		c-0.6,1.2-1.9,2.4-2.8,3.5c-0.9,0.8-3.1,0.2-2.7,2.8c0.4,2.6,1.6,5.3,2.7,5.3c1,0,2.4-0.8,2.4-3.5c0-2.4,2.4,0,3.4-0.2
		c1.2-0.2,1.8-1.8,2.4-3.7c0.4-1.8-0.6,0.8,1.3,1.6c1.9,0.6,2.7-1.2,2.7-1.8c0-0.6,3.6-1.8,4.3-2.4c0.6-0.6,3.3-1.8,3.4-2.6
		c0.1-0.8,0-6.1,0.9-6.5s1.9-0.4,0.6-3.7C616.6,131.6,616.6,128.7,615,130z"/>
	
		<linearGradient id="SVGID_35_" gradientUnits="userSpaceOnUse" x1="577.5559" y1="320.0755" x2="577.5559" y2="327.5518" gradientTransform="matrix(1 0 0 -1 0 502)">
		<stop  offset="0" style="stop-color:#FFFFFF"/>
		<stop  offset="1" style="stop-color:#FFFFFF"/>
	</linearGradient>
	<path class="st34" d="M578.6,174.5c-2.4,0.6-4,7.7-1.9,7.5C578.6,181.6,580.7,174.1,578.6,174.5z"/>
	
		<linearGradient id="SVGID_36_" gradientUnits="userSpaceOnUse" x1="684.6882" y1="150.7023" x2="684.6882" y2="167.9436" gradientTransform="matrix(1 0 0 -1 0 502)">
		<stop  offset="0" style="stop-color:#FFFFFF"/>
		<stop  offset="1" style="stop-color:#FFFFFF"/>
	</linearGradient>
	<path class="st35" d="M680.6,334.3c-0.6,0.4,0,2.8,0.6,3.9c0.6,0.8,1,4.1,0.9,4.9c-0.1,0.8-3,2-1.6,3.3c1.3,1.2,3.9,0,3.4,1.4
		c-0.3,1.4-1.6,3.3-0.1,3.7c1.5,0.4,1.9-1.6,2.7-3.3c0.6-1.6,1.2-2.8,2.4-3.9c1.2-0.8,0-2.8-0.6-2.8c-0.6,0-1,1.2-2.5,0
		c-1.5-1.2-1.2-0.6-2.1-2.8C682.5,336.1,682.4,333.2,680.6,334.3z"/>
	
		<linearGradient id="SVGID_37_" gradientUnits="userSpaceOnUse" x1="674.2465" y1="136.5255" x2="674.2465" y2="153.3403" gradientTransform="matrix(1 0 0 -1 0 502)">
		<stop  offset="0" style="stop-color:#FFFFFF"/>
		<stop  offset="1" style="stop-color:#FFFFFF"/>
	</linearGradient>
	<path class="st36" d="M679.4,348.7c-0.3,1-1.6,1.4-2.7,2.4c-1,1.2,0,1.6-2.8,3.9c-2.8,2.2-6.3,4.7-7,6.7c-0.6,2,0.6,3.3,3.3,3.5
		c2.7,0.2,1.9,0.8,3.9-1.8c1.8-2.6,3.4-4.3,5.7-6.5c2.1-2.2,2.1-5.7,2.1-5.7S679.5,348.1,679.4,348.7z"/>
	
		<linearGradient id="SVGID_38_" gradientUnits="userSpaceOnUse" x1="627.4019" y1="144.8068" x2="627.4019" y2="152.6547" gradientTransform="matrix(1 0 0 -1 0 502)">
		<stop  offset="0" style="stop-color:#FFFFFF"/>
		<stop  offset="1" style="stop-color:#FFFFFF"/>
	</linearGradient>
	<path class="st37" d="M624.1,350.5c-1.8,2.4,1.8,2.4,1.3,4.9c-0.4,2.4,2.5,1.6,3.3,1.2c0.9-0.4,2.8-5.7,2.5-6.9
		c-0.3-1.4-3.6,2.2-4.5,2C625.8,351.6,624.1,350.5,624.1,350.5z"/>
	
		<linearGradient id="SVGID_39_" gradientUnits="userSpaceOnUse" x1="600.9693" y1="155.866" x2="600.9693" y2="232.9111" gradientTransform="matrix(1 0 0 -1 0 502)">
		<stop  offset="0" style="stop-color:#FFFFFF"/>
		<stop  offset="1" style="stop-color:#FFFFFF"/>
	</linearGradient>
	<path class="st38" d="M612,333c0-2.2-1,2.4-1.6,0.4s0.6-5.5-1-4.1c-1.6,1.4-2.5,2.4-2.7,3.7c-0.1,1.2-3.1,1.6-3,0.4
		c0.1-1.2,1.3-3.9,0.1-4.9c-1.2-1.2-3.1-1.6-4.6-2.2c-1.5-0.6,0.1-2.8-3.9-1.8c-4,1.2-5.5,2.4-5.5,2.4s-3.6-1.6-4.8,0.2
		c-1.2,1.8-2.8,5.3-2.8,5.3s-4.6,0.2-5.7,0.4c-1,0.2-2.7,2-4.2,2.6c-1.5,0.6-4,1.4-4.9,0.2c-1-1.2-2.7-3.3-2.1-4.5
		c0.4-1.4,4.2-3.3,2.8-5.5c-1.3-2.2-2.1-2.6-2.4-4.1c-0.1-1.4,0.4-2-1.5-4.7s-1.5-5.9-0.6-6.3s-0.4-3.3-1.2-4.3
		c-0.6-1.2-0.6-5.3,0.6-6.3c1.3-1.2,5.4-5.5,6.4-5.5c1.2,0,3,0.6,4.2-0.4c1.2-1.2,4.6-0.6,4.6-1.6c0-0.8,0.3-4.5,1.2-5.7
		c0.9-1.2,4.3-2.2,4.8-3.3c0.4-0.8,1.3-4.7,2.4-5.5c1-0.6,1.8-2.2,3.3,0c1.5,2.2,3,3.3,3.6,0.8c0.6-2.2,0.1-1.6,1.6-3.7
		s-0.1-5.5,1.3-3.5c1.5,2,2.5,3.7,2.5,3.7s-0.1-4.5,0.9-4.5c1,0,1.9,2.2,2.5,2.2c0.4,0,4.9-1.4,5.8,0.2c0.9,1.6-2.4,5.9-1.2,7.5
		c1.2,1.6,3.4,2.4,5.1,3.9c1.6,1.4,3.6,4.5,4.5,1.8c0.9-2.6,2.5-6.7,1.3-8.7s0.3-8.5,0.9-9c0.4-0.4,1.3,5.3,3,7.7
		c1.6,2.4,3.3,4.3,4.2,6.9c0.9,2.6,1,7.5,2.5,9c1.5,1.6,4.5,1.6,4.3,3.7s3.3,5.9,5.1,9.8c1.8,3.9,1.9,12.2,1.9,15.9
		c0,3.7-1.9,8.3-3.4,11s-1.9,6.3-2.7,7.7c-0.6,1.4-0.3,1.2-2.8,2c-2.5,0.8-4.3,3.7-4.9,2.6c-0.6-0.8-3-2.4-3.6-1.4
		c-0.6,1.2-1.5,3.7-2.7,0.8c-1.2-2.6-3.9-2.2-4.3-2.6c-0.4-0.4-0.4-1.8-0.4-4.1s-2.1-2.4-2.4-3.3C612.4,334.3,612,333.7,612,333z"/>
	
		<linearGradient id="SVGID_40_" gradientUnits="userSpaceOnUse" x1="690.5962" y1="213.1376" x2="690.5962" y2="218.0934" gradientTransform="matrix(1 0 0 -1 0 502)">
		<stop  offset="0" style="stop-color:#FFFFFF"/>
		<stop  offset="1" style="stop-color:#FFFFFF"/>
	</linearGradient>
	<path class="st39" d="M688.2,288.7c2.1,1.2,6-4.1,4.5-4.7C691.2,283.2,688.2,288.7,688.2,288.7z"/>
	
		<linearGradient id="SVGID_41_" gradientUnits="userSpaceOnUse" x1="664.887" y1="200.7964" x2="664.887" y2="205.8834" gradientTransform="matrix(1 0 0 -1 0 502)">
		<stop  offset="0" style="stop-color:#FFFFFF"/>
		<stop  offset="1" style="stop-color:#FFFFFF"/>
	</linearGradient>
	<path class="st40" d="M667.3,300.1c-0.3,2.2-2.4,1.2-3.3-0.8c-1-2-3-3.7,0-2.6C666.9,297.2,667.5,298.9,667.3,300.1z"/>
	
		<linearGradient id="SVGID_42_" gradientUnits="userSpaceOnUse" x1="538.2069" y1="244.3083" x2="538.2069" y2="275.6475" gradientTransform="matrix(1 0 0 -1 0 502)">
		<stop  offset="0" style="stop-color:#FFFFFF"/>
		<stop  offset="1" style="stop-color:#FFFFFF"/>
	</linearGradient>
	<path class="st41" d="M527.7,226.4c-2.1,0.6,3,5.5,3.4,6.1c0.4,0.6,4.9,5.9,4.9,8.3s3,8.3,3.7,9.2c0.9,0.8,4.9,4.3,5.7,6.1
		c0.6,1.8,2.1,2.2,2.1-0.2c0-2.4,0.3-5.5,1.2-6.7c0.9-1.4,0.4-3.5-0.9-3.3c-1.3,0.2-2.5-2.8-4.6-4.9c-2.1-2-3.9-3.5-5.8-6.3
		c-1.9-2.8-4.5-4.7-5.8-6.3C530.5,226.8,528.6,226.2,527.7,226.4z"/>
	
		<linearGradient id="SVGID_43_" gradientUnits="userSpaceOnUse" x1="539.6414" y1="263.2552" x2="539.6414" y2="287.5676" gradientTransform="matrix(1 0 0 -1 0 502)">
		<stop  offset="0" style="stop-color:#FFFFFF"/>
		<stop  offset="1" style="stop-color:#FFFFFF"/>
	</linearGradient>
	<path class="st42" d="M534.3,214.4c-1.3,0.2-1.3,3.7-0.6,4.7c0.6,1.2,1.9,0.4,2.8,4.5c0.9,4.1,2.5,8.1,3.1,9.8
		c0.6,1.6,3.4,3.9,4.5,4.9c1,1.2,2.5-0.4,1.8-1.8c-0.6-1.4-1.9-3.5-2.1-4.9c-0.1-1.6-1-4.1-2.4-6.7c-1.3-2.6-2.5-3.5-3.3-5.3
		C537.3,217.9,534.3,214.4,534.3,214.4z"/>
	
		<linearGradient id="SVGID_44_" gradientUnits="userSpaceOnUse" x1="551.7859" y1="240.105" x2="551.7859" y2="245.682" gradientTransform="matrix(1 0 0 -1 0 502)">
		<stop  offset="0" style="stop-color:#FFFFFF"/>
		<stop  offset="1" style="stop-color:#FFFFFF"/>
	</linearGradient>
	<path class="st43" d="M548.1,257.1c-1.2,2,0.3,3.7,0.9,4.1c0.4,0.4,2.4,0.8,4,0.6c1.6-0.2,4-0.8,2.1-2.2c-1.8-1.4-4,0-4.6-1.8
		C549.8,255.9,548.7,255.9,548.1,257.1z"/>
	
		<linearGradient id="SVGID_45_" gradientUnits="userSpaceOnUse" x1="560.437" y1="237.8018" x2="560.437" y2="243.0943" gradientTransform="matrix(1 0 0 -1 0 502)">
		<stop  offset="0" style="stop-color:#FFFFFF"/>
		<stop  offset="1" style="stop-color:#FFFFFF"/>
	</linearGradient>
	<path class="st44" d="M557.7,259c-1.2,0.6-3,1.2-1.6,2.6c1.3,1.6,2.1,2.2,4.2,2c1.9-0.2,4.9,1.4,5.1,0s-1.8-3.5-2.7-3.5
		C561.9,260.2,557.7,259,557.7,259z"/>
	
		<linearGradient id="SVGID_46_" gradientUnits="userSpaceOnUse" x1="575.2804" y1="233.6496" x2="575.2804" y2="236.85" gradientTransform="matrix(1 0 0 -1 0 502)">
		<stop  offset="0" style="stop-color:#FFFFFF"/>
		<stop  offset="1" style="stop-color:#FFFFFF"/>
	</linearGradient>
	<path class="st45" d="M573.9,266.3c-0.3,2,2.5,2.8,2.7,0.6C576.8,264.9,574.2,264.5,573.9,266.3z"/>
	
		<linearGradient id="SVGID_47_" gradientUnits="userSpaceOnUse" x1="585.8732" y1="233.2346" x2="585.8732" y2="239.9699" gradientTransform="matrix(1 0 0 -1 0 502)">
		<stop  offset="0" style="stop-color:#FFFFFF"/>
		<stop  offset="1" style="stop-color:#FFFFFF"/>
	</linearGradient>
	<path class="st46" d="M582.7,267.9c0.3,2.4,3.6-1.4,3.6-1.4s2.7-0.4,2.7-2c0-1.6-2.7-3.7-3.6-1.8
		C584.4,264.5,582.6,266.3,582.7,267.9z"/>
	
		<linearGradient id="SVGID_48_" gradientUnits="userSpaceOnUse" x1="577.9675" y1="246.7036" x2="577.9675" y2="259.3495" gradientTransform="matrix(1 0 0 -1 0 502)">
		<stop  offset="0" style="stop-color:#FFFFFF"/>
		<stop  offset="1" style="stop-color:#FFFFFF"/>
	</linearGradient>
	<path class="st47" d="M575.4,242.7c-1,0.4-0.9,1.6-1.2,3.9c-0.3,2.2-1.8,3.9-0.4,4.9c1.3,1.2,3.9-3.9,4.5-2.2s-0.1,2.2,1,4.3
		c1.2,2,3.3,1.8,3.3,1.8s-0.1-5.5-1.9-6.7c-1.8-1.4-3-2.8-0.9-2.4c2.1,0.4,3.3-0.6,2.8-2c-0.4-1.4-3.6-0.6-4.6-0.4
		C576.9,243.7,575.4,242.7,575.4,242.7z"/>
	
		<linearGradient id="SVGID_49_" gradientUnits="userSpaceOnUse" x1="580.7719" y1="260.9064" x2="580.7719" y2="264.7707" gradientTransform="matrix(1 0 0 -1 0 502)">
		<stop  offset="0" style="stop-color:#FFFFFF"/>
		<stop  offset="1" style="stop-color:#FFFFFF"/>
	</linearGradient>
	<path class="st48" d="M576.3,238.2c-1.2,1.6-0.3,3.3,1.5,2.8c1.8-0.2,5.7-0.8,6.4-0.8c0.9,0,1.9-2.8,1.3-2.8
		c-0.6,0-5.2,1.2-5.8,1.4C579.3,238.8,576.3,238.2,576.3,238.2z"/>
	
		<linearGradient id="SVGID_50_" gradientUnits="userSpaceOnUse" x1="592.0184" y1="258.8686" x2="592.0184" y2="267.0966" gradientTransform="matrix(1 0 0 -1 0 502)">
		<stop  offset="0" style="stop-color:#FFFFFF"/>
		<stop  offset="1" style="stop-color:#FFFFFF"/>
	</linearGradient>
	<path class="st49" d="M593.3,235c-1.5-0.8-4.3,7.5-2.2,8.1C592.9,243.7,594.4,235.6,593.3,235z"/>
	
		<linearGradient id="SVGID_51_" gradientUnits="userSpaceOnUse" x1="564.0453" y1="250.8398" x2="564.0453" y2="279.5712" gradientTransform="matrix(1 0 0 -1 0 502)">
		<stop  offset="0" style="stop-color:#FFFFFF"/>
		<stop  offset="1" style="stop-color:#FFFFFF"/>
	</linearGradient>
	<path class="st50" d="M570.7,223c0-1.6-2.7,0.4-2.8,2c-0.1,1.6,1.8,2.8-1.3,2.8s-3.3,3.5-4,4.1c-0.6,0.6-1.3,0.8-2.7,1.4
		c-1.3,0.4-1.6,2.2-1.9,3.5s-2.7-2-3.3-1.2c-0.6,0.8-0.1,5.3,1,8.7c1.2,3.7,4.2,5.9,4.9,5.9c0.9,0,2.5,0,3.6,0.4
		c1.2,0.4,4.9,0.8,4.8-1.2c-0.1-2-0.4-5.3,1.2-7.3c1.6-2,3.3-3.3,2.5-6.1c-0.9-2.8-2.5-4.7-1.3-6.1c1.2-1.4,2.5-1.8,2.5-2.8
		C573.8,226.2,571,230.5,570.7,223z"/>
	
		<linearGradient id="SVGID_52_" gradientUnits="userSpaceOnUse" x1="579.3448" y1="290.0437" x2="579.3448" y2="310.8217" gradientTransform="matrix(1 0 0 -1 0 502)">
		<stop  offset="0" style="stop-color:#FFFFFF"/>
		<stop  offset="1" style="stop-color:#FFFFFF"/>
	</linearGradient>
	<path class="st51" d="M578.7,191.2c-1.2,0,0.1,2.4-1.5,4.1s-3.4,2.2-2.5,4.9c1,2.6,4.5,4.7,3.6,5.9c-0.9,1.2-3.3,3.5-3.6,5.5
		c-0.3,2,4-3.3,5.1-5.3c1.2-2,3.4-0.8,4-2c0.4-1.2,0.4-1.2,0.4-1.2s-1.8-0.4-3.3-1.2c-1.5-0.6-3.3,1.8-2.5-1.8
		c0.9-3.7,3.3-2.8,2.8-5.7C580.8,191.8,579.2,191.2,578.7,191.2z"/>
	
		<linearGradient id="SVGID_53_" gradientUnits="userSpaceOnUse" x1="581.8124" y1="286.6914" x2="581.8124" y2="291.3253" gradientTransform="matrix(1 0 0 -1 0 502)">
		<stop  offset="0" style="stop-color:#FFFFFF"/>
		<stop  offset="1" style="stop-color:#FFFFFF"/>
	</linearGradient>
	<path class="st52" d="M580.2,210.7c-0.6,0.2-1.9,4.3-0.1,4.3c1.8,0,4.9,0.6,4.3-0.4C583.6,213.6,582,209.9,580.2,210.7z"/>
	
		<linearGradient id="SVGID_54_" gradientUnits="userSpaceOnUse" x1="586.0709" y1="290.048" x2="586.0709" y2="294.5652" gradientTransform="matrix(1 0 0 -1 0 502)">
		<stop  offset="0" style="stop-color:#FFFFFF"/>
		<stop  offset="1" style="stop-color:#FFFFFF"/>
	</linearGradient>
	<path class="st53" d="M585.7,207.5c-0.6,0-2.8,4.7,0.1,4.5C588.9,211.8,588,207.7,585.7,207.5z"/>
	
		<linearGradient id="SVGID_55_" gradientUnits="userSpaceOnUse" x1="583.5784" y1="276.9909" x2="583.5784" y2="286.2163" gradientTransform="matrix(1 0 0 -1 0 502)">
		<stop  offset="0" style="stop-color:#FFFFFF"/>
		<stop  offset="1" style="stop-color:#FFFFFF"/>
	</linearGradient>
	<path class="st54" d="M586.2,215.8c-2.4,4.1-2.1,3.3-3.9,2.2c-1.6-0.8-4.3,2-3.9,3.3c0.4,1.2,4.2-0.2,4.9,1.8
		c0.9,2,0.9,2.2,2.5,1.8s3.3-3.7,2.8-5.3C588.3,218.1,586.2,215.8,586.2,215.8z"/>
	
		<linearGradient id="SVGID_56_" gradientUnits="userSpaceOnUse" x1="615.366" y1="232.0723" x2="615.366" y2="260.9421" gradientTransform="matrix(1 0 0 -1 0 502)">
		<stop  offset="0" style="stop-color:#FFFFFF"/>
		<stop  offset="1" style="stop-color:#FFFFFF"/>
	</linearGradient>
	<path class="st55" d="M597.4,242.5c-1.2,1.6-1.8,1.8,1,2.4c2.8,0.6,3.6,0.6,2.5,2.4c-1.2,1.8-1.9,4.1-1,4.3c1,0.2,4-0.8,4.3,0
		c0.3,0.8-0.6,1.2,2.7,1.8c3.3,0.6,4,2.2,4.6,3.3c0.6,0.8,2.7,3.9,1.3,3.9s-2.8,2.2-1.8,2.4c1,0.2,4-0.6,4.2,0
		c0.1,0.6,1.8,4.9,3.4,4.7c1.6-0.2,2.7-4.3,3.4-5.5c0.9-1.2,4.2-1.8,4.5,0.2s1.3,4.1,3.3,5.5c1.9,1.4,4.3,2.6,4.5,1.6
		c0.1-1.2-1-5.5-2.4-6.1c-1.3-0.6-3.6-4.5-3.6-6.1c0-1.6-1.9-2-3-3.3c-1-1.2-1.8-4.3-4.3-4.9c-2.5-0.6-3.1-1.8-5.8-3.7
		s-8.7-1.8-8.8-0.6c-0.1,1.2,0,0-1.9-0.8c-1.9-0.8-3.4,0-4-1.6C600,240.9,598.9,240.5,597.4,242.5z"/>
</g>
</svg>
